{"glyphs":{"0":{"ha":904,"x_min":57,"x_max":847,"o":"m 453 -14 q 155 104 253 -14 q 57 458 57 222 q 155 813 57 694 q 453 931 253 931 q 749 813 651 931 q 847 458 847 694 q 749 104 847 222 q 453 -14 651 -14 m 453 203 q 521 227 496 203 q 557 306 546 251 q 568 458 568 361 q 557 610 568 556 q 521 690 546 665 q 453 714 496 714 q 383 690 408 714 q 347 610 358 665 q 336 458 336 556 q 347 306 336 361 q 383 227 358 251 q 453 203 408 203 z "},"1":{"ha":625,"x_min":32,"x_max":535,"o":"m 535 917 l 535 0 l 263 0 l 263 646 q 53 536 158 553 l 32 767 q 194 821 110 775 q 313 917 279 867 l 535 917 z "},"2":{"ha":835,"x_min":46,"x_max":789,"o":"m 76 175 q 396 409 292 299 q 500 611 500 519 q 475 685 500 657 q 403 714 450 714 q 289 539 289 714 l 46 604 q 94 783 46 710 q 228 894 143 857 q 421 931 313 931 q 625 886 544 931 q 743 774 706 842 q 781 633 781 706 q 685 403 781 506 q 410 206 589 300 l 410 203 q 613 210 496 210 l 789 210 l 789 0 l 76 0 l 76 175 z "},"3":{"ha":829,"x_min":33,"x_max":778,"o":"m 419 931 q 671 861 582 931 q 760 667 760 792 q 728 547 760 593 q 655 482 696 501 q 588 463 614 463 l 588 457 q 665 441 621 457 q 743 378 708 425 q 778 251 778 332 q 730 112 778 172 q 598 19 682 51 q 410 -14 514 -14 q 160 40 251 -14 q 33 217 69 94 l 289 324 q 321 227 290 256 q 403 199 351 199 q 478 221 450 199 q 506 286 506 243 q 479 350 506 329 q 396 371 453 371 l 339 371 l 339 539 l 382 539 q 461 560 436 539 q 488 628 486 582 q 464 694 488 671 q 400 718 440 718 q 296 599 300 718 l 50 678 q 419 931 85 931 z "},"4":{"ha":915,"x_min":40,"x_max":885,"o":"m 885 188 l 754 188 l 754 0 l 507 0 l 507 188 l 40 188 l 40 311 l 424 917 l 754 917 l 754 375 l 885 375 l 885 188 m 300 375 l 507 375 l 507 585 l 511 736 l 508 736 q 433 586 483 667 l 300 375 z "},"5":{"ha":810,"x_min":25,"x_max":769,"o":"m 483 593 q 693 517 617 593 q 769 321 769 442 q 719 133 769 208 q 584 22 668 57 q 397 -14 500 -14 q 180 25 271 -14 q 25 160 89 64 l 271 301 q 309 219 281 246 q 400 193 338 193 q 487 219 456 193 q 518 299 518 246 q 489 378 518 350 q 399 407 460 407 q 274 364 315 407 l 63 400 l 124 917 l 715 917 l 715 704 l 325 704 l 308 574 l 300 532 l 301 532 q 375 577 326 561 q 483 593 424 593 z "},"6":{"ha":856,"x_min":60,"x_max":817,"o":"m 478 931 q 685 881 597 931 q 806 724 772 832 l 578 617 q 460 711 554 711 q 351 652 393 711 q 310 485 310 593 l 310 464 l 313 464 q 524 567 363 567 q 674 532 607 567 q 778 433 740 497 q 817 286 817 369 q 720 67 817 147 q 450 -14 624 -14 q 160 103 260 -14 q 60 458 60 221 q 174 813 60 696 q 478 931 288 931 m 457 388 q 379 361 407 388 q 351 289 351 335 q 379 216 351 242 q 457 190 407 190 q 536 216 508 190 q 564 289 564 242 q 536 362 564 336 q 457 388 508 388 z "},"7":{"ha":879,"x_min":58,"x_max":843,"o":"m 843 917 l 843 724 q 616 395 681 571 q 551 0 551 219 l 272 0 q 342 375 272 206 q 568 700 413 544 l 58 700 l 58 917 l 843 917 z "},"8":{"ha":876,"x_min":51,"x_max":825,"o":"m 438 926 q 703 856 607 926 q 800 664 800 786 q 761 542 800 593 q 649 464 722 490 l 649 463 q 780 381 735 436 q 825 242 825 325 q 722 55 825 124 q 438 -14 619 -14 q 154 55 257 -14 q 51 242 51 124 q 97 381 51 325 q 228 463 142 436 l 228 464 q 115 542 154 490 q 76 664 76 593 q 172 856 76 786 q 438 926 268 926 m 438 729 q 363 706 390 729 q 336 639 336 682 q 363 572 336 596 q 438 547 390 547 q 513 572 485 547 q 540 639 540 596 q 513 706 540 682 q 438 729 486 729 m 438 185 q 522 210 493 185 q 551 279 551 235 q 522 349 551 324 q 438 374 492 374 q 354 349 385 374 q 324 279 324 324 q 353 210 324 235 q 438 185 383 185 z "},"9":{"ha":850,"x_min":42,"x_max":803,"o":"m 414 931 q 703 811 603 931 q 803 451 803 692 q 401 -14 803 -14 q 186 33 272 -14 q 57 183 100 81 l 308 278 q 340 215 317 236 q 407 194 363 194 q 511 247 475 194 q 547 401 547 299 l 547 428 l 542 428 q 468 353 525 381 q 336 325 411 325 q 190 361 258 325 q 82 463 122 397 q 42 615 42 529 q 139 847 42 764 q 414 931 236 931 m 404 715 q 326 690 353 715 q 299 617 299 664 q 326 544 299 569 q 404 518 353 518 q 483 544 456 518 q 511 617 511 569 q 483 689 511 663 q 404 715 456 715 z "}," ":{"ha":371,"x_min":0,"x_max":0,"o":""},"A":{"ha":950,"x_min":-4,"x_max":954,"o":"m 611 190 l 332 190 l 279 0 l -4 0 l 304 917 l 644 917 l 954 0 l 663 0 l 611 190 m 563 374 l 513 556 l 474 706 l 471 706 l 433 557 l 382 374 l 563 374 z "},"Á":{"ha":950,"x_min":-4,"x_max":954,"o":"m 561 993 l 361 993 l 435 1221 l 692 1221 l 561 993 m 611 190 l 332 190 l 279 0 l -4 0 l 304 917 l 644 917 l 954 0 l 663 0 l 611 190 m 563 374 l 513 556 l 474 706 l 471 706 l 433 557 l 382 374 l 563 374 z "},"Ă":{"ha":950,"x_min":-4,"x_max":954,"o":"m 611 190 l 332 190 l 279 0 l -4 0 l 304 917 l 644 917 l 954 0 l 663 0 l 611 190 m 563 374 l 513 556 l 474 706 l 471 706 l 433 557 l 382 374 l 563 374 m 718 1215 q 653 1044 718 1106 q 474 982 589 982 q 294 1044 358 982 q 229 1215 229 1106 l 403 1215 q 421 1153 403 1175 q 474 1131 439 1131 q 526 1153 508 1131 q 544 1215 544 1175 l 718 1215 z "},"Â":{"ha":950,"x_min":-4,"x_max":954,"o":"m 390 992 l 189 992 l 342 1224 l 606 1224 l 758 992 l 557 992 l 474 1099 l 390 992 m 611 190 l 332 190 l 279 0 l -4 0 l 304 917 l 644 917 l 954 0 l 663 0 l 611 190 m 563 374 l 513 556 l 474 706 l 471 706 l 433 557 l 382 374 l 563 374 z "},"Ä":{"ha":950,"x_min":-4,"x_max":954,"o":"m 611 190 l 332 190 l 279 0 l -4 0 l 304 917 l 644 917 l 954 0 l 663 0 l 611 190 m 563 374 l 513 556 l 474 706 l 471 706 l 433 557 l 382 374 l 563 374 m 314 1217 q 413 1185 378 1217 q 447 1099 447 1154 q 413 1011 447 1042 q 314 981 378 981 q 218 1012 253 981 q 183 1099 183 1043 q 218 1185 183 1154 q 314 1217 253 1217 m 632 1217 q 731 1185 696 1217 q 765 1099 765 1154 q 731 1011 765 1042 q 632 981 696 981 q 536 1012 571 981 q 501 1099 501 1043 q 536 1185 501 1154 q 632 1217 571 1217 z "},"À":{"ha":950,"x_min":-4,"x_max":954,"o":"m 363 993 l 232 1221 l 489 1221 l 563 993 l 363 993 m 611 190 l 332 190 l 279 0 l -4 0 l 304 917 l 644 917 l 954 0 l 663 0 l 611 190 m 563 374 l 513 556 l 474 706 l 471 706 l 433 557 l 382 374 l 563 374 z "},"Ā":{"ha":950,"x_min":-4,"x_max":954,"o":"m 611 190 l 332 190 l 279 0 l -4 0 l 304 917 l 644 917 l 954 0 l 663 0 l 611 190 m 563 374 l 513 556 l 474 706 l 471 706 l 433 557 l 382 374 l 563 374 m 738 999 l 210 999 l 210 1164 l 738 1164 l 738 999 z "},"Ą":{"ha":950,"x_min":-4,"x_max":961,"o":"m 961 -264 q 894 -291 931 -283 q 807 -299 857 -299 q 660 -258 717 -299 q 604 -137 604 -217 q 688 0 604 -49 l 663 0 l 611 190 l 332 190 l 279 0 l -4 0 l 304 917 l 644 917 l 954 0 q 831 -32 867 -10 q 794 -90 794 -54 q 813 -133 794 -118 q 867 -147 832 -147 q 926 -135 907 -147 l 961 -264 m 563 374 l 513 556 l 474 706 l 471 706 l 433 557 l 382 374 l 563 374 z "},"Å":{"ha":950,"x_min":-4,"x_max":954,"o":"m 611 190 l 332 190 l 279 0 l -4 0 l 307 893 q 256 1015 256 936 q 314 1150 256 1100 q 475 1200 372 1200 q 638 1150 579 1200 q 696 1015 696 1100 q 642 893 696 940 l 954 0 l 663 0 l 611 190 m 475 1076 q 420 1057 440 1076 q 400 1004 400 1038 q 420 953 400 972 q 475 933 440 933 q 530 953 510 933 q 550 1004 550 972 q 530 1057 550 1038 q 475 1076 510 1076 m 563 374 l 513 556 l 475 706 l 469 706 l 433 557 l 382 374 l 563 374 z "},"Ã":{"ha":950,"x_min":-4,"x_max":954,"o":"m 611 190 l 332 190 l 279 0 l -4 0 l 304 917 l 644 917 l 954 0 l 663 0 l 611 190 m 563 374 l 513 556 l 474 706 l 471 706 l 433 557 l 382 374 l 563 374 m 758 1221 q 705 1044 754 1103 q 564 986 656 986 q 497 999 522 986 q 442 1033 471 1011 q 413 1054 425 1047 q 386 1061 401 1061 q 354 1044 365 1061 q 339 989 343 1026 l 189 989 q 383 1222 197 1222 q 452 1210 425 1222 q 507 1175 479 1197 q 536 1155 525 1161 q 561 1149 547 1149 q 593 1166 582 1149 q 608 1221 604 1183 l 758 1221 z "},"Æ":{"ha":1268,"x_min":-10,"x_max":1238,"o":"m 1238 201 l 1238 0 l 569 0 l 569 264 l 354 264 l 272 0 l -10 0 l 332 917 l 1219 917 l 1219 715 l 832 715 l 832 551 l 1129 551 l 1129 364 l 832 364 l 832 201 l 1238 201 m 569 438 l 569 725 l 496 725 l 407 438 l 569 438 z "},"B":{"ha":964,"x_min":85,"x_max":933,"o":"m 85 917 l 572 917 q 910 671 910 915 q 860 532 910 588 q 713 463 810 476 l 713 461 q 878 390 822 447 q 933 244 933 333 q 850 62 933 124 q 601 0 767 0 l 85 0 l 85 917 m 513 553 q 619 635 619 553 q 513 717 619 717 l 357 717 l 357 553 l 513 553 m 536 192 q 643 275 643 192 q 536 357 643 357 l 357 357 l 357 192 l 536 192 z "},"C":{"ha":943,"x_min":50,"x_max":922,"o":"m 922 272 q 777 56 885 125 q 510 -14 669 -14 q 265 42 368 -14 q 106 204 161 97 q 50 458 50 311 q 106 712 50 606 q 264 874 161 818 q 508 931 367 931 q 774 865 664 931 q 914 665 883 799 l 668 567 q 618 683 653 651 q 517 714 583 714 q 387 650 432 714 q 342 458 342 586 q 514 203 342 203 q 620 235 583 203 q 669 340 657 268 l 922 272 z "},"Ć":{"ha":943,"x_min":50,"x_max":922,"o":"m 715 1221 l 585 993 l 385 993 l 458 1221 l 715 1221 m 922 272 q 777 56 885 125 q 510 -14 669 -14 q 265 42 368 -14 q 106 204 161 97 q 50 458 50 311 q 106 712 50 606 q 264 874 161 818 q 508 931 367 931 q 774 865 664 931 q 914 665 883 799 l 668 567 q 618 683 653 651 q 517 714 583 714 q 387 650 432 714 q 342 458 342 586 q 514 203 342 203 q 620 235 583 203 q 669 340 657 268 l 922 272 z "},"Č":{"ha":943,"x_min":50,"x_max":922,"o":"m 624 992 l 360 992 l 207 1224 l 408 1224 l 492 1117 l 575 1224 l 776 1224 l 624 992 m 922 272 q 777 56 885 125 q 510 -14 669 -14 q 265 42 368 -14 q 106 204 161 97 q 50 458 50 311 q 106 712 50 606 q 264 874 161 818 q 508 931 367 931 q 774 865 664 931 q 914 665 883 799 l 668 567 q 618 683 653 651 q 517 714 583 714 q 387 650 432 714 q 342 458 342 586 q 514 203 342 203 q 620 235 583 203 q 669 340 657 268 l 922 272 z "},"Ç":{"ha":943,"x_min":50,"x_max":922,"o":"m 922 272 q 629 -3 864 42 q 700 -129 700 -53 q 642 -257 700 -215 q 488 -299 583 -299 q 380 -283 422 -299 q 308 -240 338 -268 l 367 -118 q 468 -158 407 -158 q 524 -141 503 -158 q 544 -93 544 -124 q 525 -46 544 -65 q 456 -11 506 -26 q 158 127 265 4 q 50 458 50 250 q 106 712 50 606 q 264 874 161 818 q 508 931 367 931 q 774 865 664 931 q 914 665 883 799 l 668 567 q 618 683 653 651 q 517 714 583 714 q 387 650 432 714 q 342 458 342 586 q 514 203 342 203 q 620 235 583 203 q 669 340 657 268 l 922 272 z "},"D":{"ha":996,"x_min":85,"x_max":946,"o":"m 506 917 q 833 798 719 917 q 946 458 946 679 q 833 119 946 238 q 506 0 719 0 l 85 0 l 85 917 l 506 917 m 471 207 q 613 267 571 207 q 654 458 654 328 q 613 649 654 589 q 471 710 571 710 l 368 710 l 368 207 l 471 207 z "},"Ð":{"ha":1033,"x_min":14,"x_max":983,"o":"m 543 917 q 870 798 757 917 q 983 458 983 679 q 870 119 983 238 q 543 0 757 0 l 122 0 l 122 393 l 14 393 l 14 518 l 122 518 l 122 917 l 543 917 m 508 207 q 651 267 608 207 q 693 458 693 328 q 651 649 693 589 q 508 710 608 710 l 407 710 l 407 518 l 554 518 l 554 393 l 407 393 l 407 207 l 508 207 z "},"Ď":{"ha":996,"x_min":85,"x_max":946,"o":"m 319 992 l 167 1224 l 368 1224 l 451 1117 l 535 1224 l 736 1224 l 583 992 l 319 992 m 506 917 q 833 798 719 917 q 946 458 946 679 q 833 119 946 238 q 506 0 719 0 l 85 0 l 85 917 l 506 917 m 471 207 q 613 267 571 207 q 654 458 654 328 q 613 649 654 589 q 471 710 571 710 l 368 710 l 368 207 l 471 207 z "},"Đ":{"ha":1033,"x_min":14,"x_max":983,"o":"m 543 917 q 870 798 757 917 q 983 458 983 679 q 870 119 983 238 q 543 0 757 0 l 122 0 l 122 393 l 14 393 l 14 518 l 122 518 l 122 917 l 543 917 m 508 207 q 651 267 608 207 q 693 458 693 328 q 651 649 693 589 q 508 710 608 710 l 407 710 l 407 518 l 554 518 l 554 393 l 407 393 l 407 207 l 508 207 z "},"E":{"ha":872,"x_min":85,"x_max":842,"o":"m 842 213 l 842 0 l 85 0 l 85 917 l 824 917 l 824 704 l 368 704 l 368 556 l 732 556 l 732 358 l 368 358 l 368 213 l 842 213 z "},"É":{"ha":872,"x_min":85,"x_max":842,"o":"m 528 993 l 328 993 l 401 1221 l 658 1221 l 528 993 m 842 213 l 842 0 l 85 0 l 85 917 l 824 917 l 824 704 l 368 704 l 368 556 l 732 556 l 732 358 l 368 358 l 368 213 l 842 213 z "},"Ě":{"ha":872,"x_min":85,"x_max":842,"o":"m 303 992 l 150 1224 l 351 1224 l 435 1117 l 518 1224 l 719 1224 l 567 992 l 303 992 m 842 213 l 842 0 l 85 0 l 85 917 l 824 917 l 824 704 l 368 704 l 368 556 l 732 556 l 732 358 l 368 358 l 368 213 l 842 213 z "},"Ê":{"ha":872,"x_min":85,"x_max":842,"o":"m 358 992 l 157 992 l 310 1224 l 574 1224 l 726 992 l 525 992 l 442 1099 l 358 992 m 842 213 l 842 0 l 85 0 l 85 917 l 824 917 l 824 704 l 368 704 l 368 556 l 732 556 l 732 358 l 368 358 l 368 213 l 842 213 z "},"Ë":{"ha":872,"x_min":85,"x_max":842,"o":"m 842 213 l 842 0 l 85 0 l 85 917 l 824 917 l 824 704 l 368 704 l 368 556 l 732 556 l 732 358 l 368 358 l 368 213 l 842 213 m 281 1217 q 379 1185 344 1217 q 414 1099 414 1154 q 379 1011 414 1042 q 281 981 344 981 q 185 1012 219 981 q 150 1099 150 1043 q 185 1185 150 1154 q 281 1217 219 1217 m 599 1217 q 697 1185 663 1217 q 732 1099 732 1154 q 697 1011 732 1042 q 599 981 663 981 q 503 1012 538 981 q 468 1099 468 1043 q 503 1185 468 1154 q 599 1217 538 1217 z "},"Ė":{"ha":872,"x_min":85,"x_max":842,"o":"m 842 213 l 842 0 l 85 0 l 85 917 l 824 917 l 824 704 l 368 704 l 368 556 l 732 556 l 732 358 l 368 358 l 368 213 l 842 213 m 442 1228 q 551 1197 514 1228 q 588 1106 588 1165 q 551 1015 588 1046 q 442 985 514 985 q 300 1106 300 985 q 442 1228 300 1228 z "},"È":{"ha":872,"x_min":85,"x_max":842,"o":"m 368 993 l 238 1221 l 494 1221 l 568 993 l 368 993 m 842 213 l 842 0 l 85 0 l 85 917 l 824 917 l 824 704 l 368 704 l 368 556 l 732 556 l 732 358 l 368 358 l 368 213 l 842 213 z "},"Ē":{"ha":872,"x_min":85,"x_max":842,"o":"m 842 213 l 842 0 l 85 0 l 85 917 l 824 917 l 824 704 l 368 704 l 368 556 l 732 556 l 732 358 l 368 358 l 368 213 l 842 213 m 706 999 l 178 999 l 178 1164 l 706 1164 l 706 999 z "},"Ę":{"ha":872,"x_min":85,"x_max":849,"o":"m 849 -264 q 781 -291 818 -283 q 694 -299 744 -299 q 549 -258 606 -299 q 492 -139 492 -218 q 593 0 492 -49 l 85 0 l 85 917 l 824 917 l 824 704 l 368 704 l 368 556 l 732 556 l 732 358 l 368 358 l 368 213 l 842 213 l 842 0 q 718 -32 754 -10 q 682 -90 682 -54 q 701 -132 682 -117 q 754 -147 721 -147 q 814 -135 794 -147 l 849 -264 z "},"F":{"ha":851,"x_min":85,"x_max":822,"o":"m 368 704 l 368 544 l 732 544 l 732 332 l 368 332 l 368 0 l 85 0 l 85 917 l 822 917 l 822 704 l 368 704 z "},"G":{"ha":1003,"x_min":50,"x_max":933,"o":"m 504 507 l 932 507 l 932 0 l 740 0 l 731 106 q 476 -14 657 -14 q 258 40 354 -14 q 106 200 161 94 q 50 456 50 306 q 106 711 50 604 q 267 874 163 818 q 517 931 372 931 q 779 874 681 931 q 933 688 878 817 l 669 589 q 526 714 643 714 q 342 458 342 714 q 389 260 342 322 q 535 197 436 197 q 650 228 607 197 q 693 318 693 258 l 693 325 l 504 325 l 504 507 z "},"Ğ":{"ha":1003,"x_min":50,"x_max":933,"o":"m 504 507 l 932 507 l 932 0 l 740 0 l 731 106 q 476 -14 657 -14 q 258 40 354 -14 q 106 200 161 94 q 50 456 50 306 q 106 711 50 604 q 267 874 163 818 q 517 931 372 931 q 779 874 681 931 q 933 688 878 817 l 669 589 q 526 714 643 714 q 342 458 342 714 q 389 260 342 322 q 535 197 436 197 q 650 228 607 197 q 693 318 693 258 l 693 325 l 504 325 l 504 507 m 753 1215 q 688 1044 753 1106 q 508 982 624 982 q 328 1044 393 982 q 264 1215 264 1106 l 438 1215 q 456 1153 438 1175 q 508 1131 474 1131 q 561 1153 543 1131 q 579 1215 579 1175 l 753 1215 z "},"H":{"ha":1035,"x_min":85,"x_max":950,"o":"m 950 917 l 950 0 l 665 0 l 665 356 l 368 356 l 368 0 l 85 0 l 85 917 l 368 917 l 368 568 l 665 568 l 665 917 l 950 917 z "},"I":{"ha":453,"x_min":85,"x_max":368,"o":"m 368 0 l 85 0 l 85 917 l 368 917 l 368 0 z "},"Ĳ":{"ha":1342,"x_min":85,"x_max":1276,"o":"m 368 0 l 85 0 l 85 917 l 368 917 l 368 0 m 1276 365 q 1168 85 1276 185 q 863 -14 1060 -14 q 583 69 676 -14 q 489 294 489 151 q 497 385 489 339 l 781 432 q 774 340 774 374 q 799 235 774 267 q 879 203 825 203 q 965 247 939 203 q 992 390 992 292 l 992 917 l 1276 917 l 1276 365 z "},"Í":{"ha":453,"x_min":85,"x_max":443,"o":"m 443 1221 l 313 993 l 113 993 l 186 1221 l 443 1221 m 368 0 l 85 0 l 85 917 l 368 917 l 368 0 z "},"Î":{"ha":453,"x_min":-58,"x_max":511,"o":"m 310 992 l 226 1099 l 143 992 l -58 992 l 94 1224 l 358 1224 l 511 992 l 310 992 m 368 0 l 85 0 l 85 917 l 368 917 l 368 0 z "},"Ï":{"ha":453,"x_min":-50,"x_max":504,"o":"m 75 1217 q 169 1185 135 1217 q 204 1099 204 1154 q 170 1012 204 1043 q 75 981 136 981 q -17 1012 15 981 q -50 1099 -50 1043 q -17 1185 -50 1154 q 75 1217 15 1217 m 374 1217 q 469 1185 435 1217 q 504 1099 504 1154 q 469 1012 504 1043 q 374 981 435 981 q 281 1012 314 981 q 249 1099 249 1043 q 281 1185 249 1154 q 374 1217 314 1217 m 368 0 l 85 0 l 85 917 l 368 917 l 368 0 z "},"İ":{"ha":453,"x_min":85,"x_max":372,"o":"m 368 0 l 85 0 l 85 917 l 368 917 l 368 0 m 226 1228 q 335 1197 299 1228 q 372 1106 372 1165 q 335 1015 372 1046 q 226 985 299 985 q 85 1106 85 985 q 226 1228 85 1228 z "},"Ì":{"ha":453,"x_min":-15,"x_max":368,"o":"m 315 993 l 115 993 l -15 1221 l 242 1221 l 315 993 m 368 0 l 85 0 l 85 917 l 368 917 l 368 0 z "},"Ī":{"ha":453,"x_min":11,"x_max":439,"o":"m 439 999 l 11 999 l 11 1164 l 439 1164 l 439 999 m 368 0 l 85 0 l 85 917 l 368 917 l 368 0 z "},"Į":{"ha":453,"x_min":24,"x_max":381,"o":"m 381 -264 q 313 -291 350 -283 q 225 -299 276 -299 q 80 -258 136 -299 q 24 -139 24 -218 q 46 -59 24 -94 q 108 0 68 -24 l 85 0 l 85 917 l 368 917 l 368 0 l 369 0 q 249 -34 283 -12 q 214 -90 214 -56 q 232 -133 214 -118 q 285 -147 250 -147 q 344 -133 322 -147 l 381 -264 z "},"J":{"ha":889,"x_min":36,"x_max":824,"o":"m 824 365 q 715 85 824 185 q 410 -14 607 -14 q 130 69 224 -14 q 36 294 36 151 q 44 385 36 339 l 328 432 q 321 340 321 374 q 347 235 321 267 q 426 203 372 203 q 513 247 486 203 q 539 390 539 292 l 539 917 l 824 917 l 824 365 z "},"K":{"ha":981,"x_min":85,"x_max":978,"o":"m 461 367 l 368 247 l 368 0 l 85 0 l 85 917 l 368 917 l 368 543 l 649 917 l 956 917 l 663 549 l 978 0 l 657 0 l 461 367 z "},"L":{"ha":839,"x_min":85,"x_max":804,"o":"m 804 213 l 804 0 l 85 0 l 85 917 l 368 917 l 368 213 l 804 213 z "},"Ĺ":{"ha":839,"x_min":85,"x_max":804,"o":"m 313 993 l 113 993 l 186 1221 l 443 1221 l 313 993 m 804 213 l 804 0 l 85 0 l 85 917 l 368 917 l 368 213 l 804 213 z "},"Ľ":{"ha":839,"x_min":85,"x_max":804,"o":"m 663 621 l 481 621 l 515 974 l 756 974 l 663 621 m 804 213 l 804 0 l 85 0 l 85 917 l 368 917 l 368 213 l 804 213 z "},"Ŀ":{"ha":907,"x_min":85,"x_max":889,"o":"m 804 213 l 804 0 l 85 0 l 85 917 l 368 917 l 368 213 l 804 213 m 733 638 q 848 601 807 638 q 889 500 889 565 q 848 399 889 435 q 733 363 807 363 q 619 399 660 363 q 578 500 578 435 q 619 601 578 564 q 733 638 660 638 z "},"Ł":{"ha":903,"x_min":-7,"x_max":868,"o":"m 868 213 l 868 0 l 149 0 l 149 288 l -7 215 l -7 410 l 149 482 l 149 917 l 433 917 l 433 611 l 667 718 l 667 524 l 433 417 l 433 213 l 868 213 z "},"M":{"ha":1292,"x_min":85,"x_max":1208,"o":"m 1208 0 l 958 0 l 958 367 l 964 663 l 961 663 l 760 0 l 532 0 l 333 663 l 329 663 l 335 367 l 335 0 l 85 0 l 85 917 l 485 917 l 608 482 l 654 300 l 657 300 l 703 482 l 826 917 l 1208 917 l 1208 0 z "},"N":{"ha":1033,"x_min":85,"x_max":949,"o":"m 949 0 l 638 0 l 388 454 l 329 579 l 326 579 l 332 397 l 332 0 l 85 0 l 85 917 l 394 917 l 644 463 l 704 338 l 706 338 l 700 519 l 700 917 l 949 917 l 949 0 z "},"Ń":{"ha":1033,"x_min":85,"x_max":949,"o":"m 735 1221 l 604 993 l 404 993 l 478 1221 l 735 1221 m 949 0 l 638 0 l 388 454 l 329 579 l 326 579 l 332 397 l 332 0 l 85 0 l 85 917 l 394 917 l 644 463 l 704 338 l 706 338 l 700 519 l 700 917 l 949 917 l 949 0 z "},"Ň":{"ha":1033,"x_min":85,"x_max":949,"o":"m 643 992 l 379 992 l 226 1224 l 428 1224 l 511 1117 l 594 1224 l 796 1224 l 643 992 m 949 0 l 638 0 l 388 454 l 329 579 l 326 579 l 332 397 l 332 0 l 85 0 l 85 917 l 394 917 l 644 463 l 704 338 l 706 338 l 700 519 l 700 917 l 949 917 l 949 0 z "},"Ñ":{"ha":1033,"x_min":85,"x_max":949,"o":"m 949 0 l 638 0 l 388 454 l 329 579 l 326 579 l 332 397 l 332 0 l 85 0 l 85 917 l 394 917 l 644 463 l 704 338 l 706 338 l 700 519 l 700 917 l 949 917 l 949 0 m 801 1221 q 748 1044 797 1103 q 607 986 699 986 q 540 999 565 986 q 485 1033 514 1011 q 456 1054 468 1047 q 429 1061 444 1061 q 397 1044 408 1061 q 382 989 386 1026 l 232 989 q 426 1222 240 1222 q 495 1210 468 1222 q 550 1175 522 1197 q 579 1155 568 1161 q 604 1149 590 1149 q 636 1166 625 1149 q 651 1221 647 1183 l 801 1221 z "},"O":{"ha":1018,"x_min":50,"x_max":967,"o":"m 510 931 q 846 806 725 931 q 967 458 967 682 q 846 110 967 235 q 510 -14 725 -14 q 265 42 368 -14 q 106 204 161 97 q 50 458 50 311 q 106 713 50 606 q 265 875 161 819 q 510 931 368 931 m 510 714 q 383 651 425 714 q 342 458 342 588 q 383 266 342 329 q 510 203 425 203 q 635 265 594 203 q 676 458 676 328 q 635 651 676 589 q 510 714 594 714 z "},"Ó":{"ha":1018,"x_min":50,"x_max":967,"o":"m 726 1221 l 596 993 l 396 993 l 469 1221 l 726 1221 m 510 931 q 846 806 725 931 q 967 458 967 682 q 846 110 967 235 q 510 -14 725 -14 q 265 42 368 -14 q 106 204 161 97 q 50 458 50 311 q 106 713 50 606 q 265 875 161 819 q 510 931 368 931 m 510 714 q 383 651 425 714 q 342 458 342 588 q 383 266 342 329 q 510 203 425 203 q 635 265 594 203 q 676 458 676 328 q 635 651 676 589 q 510 714 594 714 z "},"Ô":{"ha":1018,"x_min":50,"x_max":967,"o":"m 593 992 l 510 1099 l 426 992 l 225 992 l 378 1224 l 642 1224 l 794 992 l 593 992 m 510 931 q 846 806 725 931 q 967 458 967 682 q 846 110 967 235 q 510 -14 725 -14 q 265 42 368 -14 q 106 204 161 97 q 50 458 50 311 q 106 713 50 606 q 265 875 161 819 q 510 931 368 931 m 510 714 q 383 651 425 714 q 342 458 342 588 q 383 266 342 329 q 510 203 425 203 q 635 265 594 203 q 676 458 676 328 q 635 651 676 589 q 510 714 594 714 z "},"Ö":{"ha":1018,"x_min":50,"x_max":967,"o":"m 510 931 q 846 806 725 931 q 967 458 967 682 q 846 110 967 235 q 510 -14 725 -14 q 265 42 368 -14 q 106 204 161 97 q 50 458 50 311 q 106 713 50 606 q 265 875 161 819 q 510 931 368 931 m 510 714 q 383 651 425 714 q 342 458 342 588 q 383 266 342 329 q 510 203 425 203 q 635 265 594 203 q 676 458 676 328 q 635 651 676 589 q 510 714 594 714 m 349 1217 q 447 1185 413 1217 q 482 1099 482 1154 q 447 1011 482 1042 q 349 981 413 981 q 253 1012 288 981 q 218 1099 218 1043 q 253 1185 218 1154 q 349 1217 288 1217 m 667 1217 q 765 1185 731 1217 q 800 1099 800 1154 q 765 1011 800 1042 q 667 981 731 981 q 571 1012 606 981 q 536 1099 536 1043 q 571 1185 536 1154 q 667 1217 606 1217 z "},"Ò":{"ha":1018,"x_min":50,"x_max":967,"o":"m 599 993 l 399 993 l 268 1221 l 525 1221 l 599 993 m 510 931 q 846 806 725 931 q 967 458 967 682 q 846 110 967 235 q 510 -14 725 -14 q 265 42 368 -14 q 106 204 161 97 q 50 458 50 311 q 106 713 50 606 q 265 875 161 819 q 510 931 368 931 m 510 714 q 383 651 425 714 q 342 458 342 588 q 383 266 342 329 q 510 203 425 203 q 635 265 594 203 q 676 458 676 328 q 635 651 676 589 q 510 714 594 714 z "},"Ő":{"ha":1018,"x_min":50,"x_max":967,"o":"m 564 1221 l 433 993 l 232 993 l 307 1221 l 564 1221 m 897 1221 l 767 993 l 567 993 l 640 1221 l 897 1221 m 510 931 q 846 806 725 931 q 967 458 967 682 q 846 110 967 235 q 510 -14 725 -14 q 265 42 368 -14 q 106 204 161 97 q 50 458 50 311 q 106 713 50 606 q 265 875 161 819 q 510 931 368 931 m 510 714 q 383 651 425 714 q 342 458 342 588 q 383 266 342 329 q 510 203 425 203 q 635 265 594 203 q 676 458 676 328 q 635 651 676 589 q 510 714 594 714 z "},"Ō":{"ha":1018,"x_min":50,"x_max":967,"o":"m 510 931 q 846 806 725 931 q 967 458 967 682 q 846 110 967 235 q 510 -14 725 -14 q 265 42 368 -14 q 106 204 161 97 q 50 458 50 311 q 106 713 50 606 q 265 875 161 819 q 510 931 368 931 m 510 714 q 383 651 425 714 q 342 458 342 588 q 383 266 342 329 q 510 203 425 203 q 635 265 594 203 q 676 458 676 328 q 635 651 676 589 q 510 714 594 714 m 774 999 l 246 999 l 246 1164 l 774 1164 l 774 999 z "},"Ø":{"ha":1018,"x_min":50,"x_max":967,"o":"m 840 811 q 967 458 967 688 q 846 110 967 235 q 510 -14 725 -14 q 260 44 364 -14 l 204 -33 l 76 -33 l 178 106 q 83 256 115 167 q 50 458 50 344 q 106 713 50 606 q 265 875 161 819 q 510 931 368 931 q 760 872 654 931 l 813 946 l 939 946 l 840 811 m 510 714 q 383 651 425 714 q 342 458 342 588 q 356 326 342 378 l 608 682 q 510 714 568 714 m 510 203 q 635 265 594 203 q 676 458 676 328 q 664 581 676 529 l 417 231 q 510 203 456 203 z "},"Õ":{"ha":1018,"x_min":50,"x_max":967,"o":"m 510 931 q 846 806 725 931 q 967 458 967 682 q 846 110 967 235 q 510 -14 725 -14 q 265 42 368 -14 q 106 204 161 97 q 50 458 50 311 q 106 713 50 606 q 265 875 161 819 q 510 931 368 931 m 510 714 q 383 651 425 714 q 342 458 342 588 q 383 266 342 329 q 510 203 425 203 q 635 265 594 203 q 676 458 676 328 q 635 651 676 589 q 510 714 594 714 m 793 1221 q 740 1044 789 1103 q 599 986 690 986 q 531 999 557 986 q 476 1033 506 1011 q 448 1054 460 1047 q 421 1061 436 1061 q 389 1044 400 1061 q 374 989 378 1026 l 224 989 q 418 1222 232 1222 q 487 1210 460 1222 q 542 1175 514 1197 q 571 1155 560 1161 q 596 1149 582 1149 q 628 1166 617 1149 q 643 1221 639 1183 l 793 1221 z "},"Œ":{"ha":1440,"x_min":50,"x_max":1408,"o":"m 1408 213 l 1408 0 l 764 0 l 764 99 q 483 -14 656 -14 q 253 42 351 -14 q 103 205 156 99 q 50 458 50 311 q 103 712 50 606 q 253 874 156 818 q 483 931 351 931 q 764 819 656 931 l 764 917 l 1392 917 l 1392 704 l 944 704 l 944 556 l 1300 556 l 1300 358 l 944 358 l 944 213 l 1408 213 m 499 203 q 622 266 581 203 q 663 458 663 329 q 622 651 663 588 q 499 714 581 714 q 376 651 417 714 q 335 458 335 588 q 376 266 335 329 q 499 203 417 203 z "},"P":{"ha":956,"x_min":85,"x_max":911,"o":"m 540 917 q 817 838 722 917 q 911 604 911 758 q 816 381 911 458 q 540 304 721 304 l 368 304 l 368 0 l 85 0 l 85 917 l 540 917 m 494 504 q 594 529 563 504 q 626 607 626 554 q 594 685 626 660 q 494 710 563 710 l 368 710 l 368 504 l 494 504 z "},"Þ":{"ha":944,"x_min":85,"x_max":899,"o":"m 528 786 q 803 705 707 786 q 897 468 899 624 q 803 231 899 313 q 528 150 707 150 l 368 150 l 368 0 l 85 0 l 85 917 l 368 917 l 368 786 l 528 786 m 486 356 q 613 468 614 356 q 486 579 614 579 l 368 579 l 368 356 l 486 356 z "},"Q":{"ha":1018,"x_min":50,"x_max":967,"o":"m 719 -75 q 893 -21 832 -75 l 958 -219 q 710 -287 879 -287 q 491 -222 565 -287 q 417 -50 417 -157 q 419 -8 417 -36 q 147 140 244 18 q 50 458 50 261 q 106 713 50 606 q 265 875 161 819 q 510 931 368 931 q 846 806 725 931 q 967 458 967 682 q 868 137 967 258 q 593 -8 769 15 q 630 -60 599 -44 q 719 -75 661 -75 m 342 458 q 383 266 342 329 q 510 203 425 203 q 635 265 594 203 q 676 458 676 328 q 635 651 676 589 q 510 714 594 714 q 383 651 425 714 q 342 458 342 588 z "},"R":{"ha":969,"x_min":85,"x_max":965,"o":"m 478 318 l 363 318 l 363 0 l 85 0 l 85 917 l 554 917 q 821 840 729 917 q 913 617 913 764 q 742 349 913 417 l 965 0 l 656 0 l 478 318 m 363 511 l 500 511 q 599 534 569 511 q 628 610 628 557 q 598 686 628 663 q 500 710 568 710 l 363 710 l 363 511 z "},"Ŕ":{"ha":969,"x_min":85,"x_max":965,"o":"m 547 993 l 347 993 l 421 1221 l 678 1221 l 547 993 m 478 318 l 363 318 l 363 0 l 85 0 l 85 917 l 554 917 q 821 840 729 917 q 913 617 913 764 q 742 349 913 417 l 965 0 l 656 0 l 478 318 m 363 511 l 500 511 q 599 534 569 511 q 628 610 628 557 q 598 686 628 663 q 500 710 568 710 l 363 710 l 363 511 z "},"Ř":{"ha":969,"x_min":85,"x_max":965,"o":"m 322 992 l 169 1224 l 371 1224 l 454 1117 l 538 1224 l 739 1224 l 586 992 l 322 992 m 478 318 l 363 318 l 363 0 l 85 0 l 85 917 l 554 917 q 821 840 729 917 q 913 617 913 764 q 742 349 913 417 l 965 0 l 656 0 l 478 318 m 363 511 l 500 511 q 599 534 569 511 q 628 610 628 557 q 598 686 628 663 q 500 710 568 710 l 363 710 l 363 511 z "},"S":{"ha":896,"x_min":25,"x_max":874,"o":"m 464 931 q 691 895 596 931 q 874 775 786 860 l 735 596 q 616 688 679 660 q 471 717 553 717 q 378 697 411 717 q 344 646 344 678 q 379 607 344 621 q 494 578 414 593 q 708 516 628 554 q 824 419 788 478 q 861 275 861 361 q 808 118 861 183 q 665 19 756 53 q 461 -14 575 -14 q 206 20 303 -14 q 25 128 108 54 l 157 322 q 281 228 213 257 q 443 200 350 200 q 569 261 569 200 q 533 303 569 288 q 414 333 496 318 q 227 383 303 354 q 101 470 151 413 q 51 624 51 528 q 100 783 51 714 q 242 892 149 853 q 464 931 335 931 z "},"Ś":{"ha":896,"x_min":25,"x_max":874,"o":"m 676 1221 l 546 993 l 346 993 l 419 1221 l 676 1221 m 464 931 q 691 895 596 931 q 874 775 786 860 l 735 596 q 616 688 679 660 q 471 717 553 717 q 378 697 411 717 q 344 646 344 678 q 379 607 344 621 q 494 578 414 593 q 708 516 628 554 q 824 419 788 478 q 861 275 861 361 q 808 118 861 183 q 665 19 756 53 q 461 -14 575 -14 q 206 20 303 -14 q 25 128 108 54 l 157 322 q 281 228 213 257 q 443 200 350 200 q 569 261 569 200 q 533 303 569 288 q 414 333 496 318 q 227 383 303 354 q 101 470 151 413 q 51 624 51 528 q 100 783 51 714 q 242 892 149 853 q 464 931 335 931 z "},"Š":{"ha":896,"x_min":25,"x_max":874,"o":"m 583 992 l 319 992 l 167 1224 l 368 1224 l 451 1117 l 535 1224 l 736 1224 l 583 992 m 464 931 q 691 895 596 931 q 874 775 786 860 l 735 596 q 616 688 679 660 q 471 717 553 717 q 378 697 411 717 q 344 646 344 678 q 379 607 344 621 q 494 578 414 593 q 708 516 628 554 q 824 419 788 478 q 861 275 861 361 q 808 118 861 183 q 665 19 756 53 q 461 -14 575 -14 q 206 20 303 -14 q 25 128 108 54 l 157 322 q 281 228 213 257 q 443 200 350 200 q 569 261 569 200 q 533 303 569 288 q 414 333 496 318 q 227 383 303 354 q 101 470 151 413 q 51 624 51 528 q 100 783 51 714 q 242 892 149 853 q 464 931 335 931 z "},"ẞ":{"ha":1013,"x_min":85,"x_max":989,"o":"m 746 499 q 924 429 858 488 q 989 261 989 371 q 906 62 989 131 q 686 -7 822 -7 q 526 13 588 -7 q 425 71 464 32 l 494 231 q 550 199 521 208 q 624 189 579 189 q 699 211 671 189 q 726 272 726 233 q 697 333 726 313 q 614 353 668 353 l 486 353 l 486 501 l 676 710 l 543 710 q 414 661 460 710 q 368 524 368 613 l 368 0 l 85 0 l 85 569 q 192 824 85 732 q 486 917 299 917 l 939 917 l 939 714 l 746 499 z "},"T":{"ha":932,"x_min":31,"x_max":900,"o":"m 900 704 l 608 704 l 608 0 l 325 0 l 325 704 l 31 704 l 31 917 l 900 917 l 900 704 z "},"Ť":{"ha":932,"x_min":31,"x_max":900,"o":"m 326 992 l 174 1224 l 375 1224 l 458 1117 l 542 1224 l 743 1224 l 590 992 l 326 992 m 900 704 l 608 704 l 608 0 l 325 0 l 325 704 l 31 704 l 31 917 l 900 917 l 900 704 z "},"U":{"ha":986,"x_min":65,"x_max":921,"o":"m 921 385 q 493 -14 921 -14 q 65 385 65 -14 l 65 917 l 351 917 l 351 369 q 493 203 351 203 q 636 369 636 203 l 636 917 l 921 917 l 921 385 z "},"Ú":{"ha":986,"x_min":65,"x_max":921,"o":"m 711 1221 l 581 993 l 381 993 l 454 1221 l 711 1221 m 921 385 q 493 -14 921 -14 q 65 385 65 -14 l 65 917 l 351 917 l 351 369 q 493 203 351 203 q 636 369 636 203 l 636 917 l 921 917 l 921 385 z "},"Û":{"ha":986,"x_min":65,"x_max":921,"o":"m 576 992 l 493 1099 l 410 992 l 208 992 l 361 1224 l 625 1224 l 778 992 l 576 992 m 921 385 q 493 -14 921 -14 q 65 385 65 -14 l 65 917 l 351 917 l 351 369 q 493 203 351 203 q 636 369 636 203 l 636 917 l 921 917 l 921 385 z "},"Ü":{"ha":986,"x_min":65,"x_max":921,"o":"m 921 385 q 493 -14 921 -14 q 65 385 65 -14 l 65 917 l 351 917 l 351 369 q 493 203 351 203 q 636 369 636 203 l 636 917 l 921 917 l 921 385 m 333 1217 q 432 1185 397 1217 q 467 1099 467 1154 q 432 1011 467 1042 q 333 981 397 981 q 238 1012 272 981 q 203 1099 203 1043 q 238 1185 203 1154 q 333 1217 272 1217 m 651 1217 q 750 1185 715 1217 q 785 1099 785 1154 q 750 1011 785 1042 q 651 981 715 981 q 556 1012 590 981 q 521 1099 521 1043 q 556 1185 521 1154 q 651 1217 590 1217 z "},"Ù":{"ha":986,"x_min":65,"x_max":921,"o":"m 582 993 l 382 993 l 251 1221 l 508 1221 l 582 993 m 921 385 q 493 -14 921 -14 q 65 385 65 -14 l 65 917 l 351 917 l 351 369 q 493 203 351 203 q 636 369 636 203 l 636 917 l 921 917 l 921 385 z "},"Ű":{"ha":986,"x_min":65,"x_max":921,"o":"m 554 1221 l 424 994 l 222 994 l 297 1221 l 554 1221 m 886 1221 l 756 993 l 554 993 l 629 1221 l 886 1221 m 921 385 q 493 -14 921 -14 q 65 385 65 -14 l 65 917 l 351 917 l 351 369 q 493 203 351 203 q 636 369 636 203 l 636 917 l 921 917 l 921 385 z "},"Ū":{"ha":986,"x_min":65,"x_max":921,"o":"m 921 385 q 493 -14 921 -14 q 65 385 65 -14 l 65 917 l 351 917 l 351 369 q 493 203 351 203 q 636 369 636 203 l 636 917 l 921 917 l 921 385 m 757 999 l 229 999 l 229 1164 l 757 1164 l 757 999 z "},"Ų":{"ha":986,"x_min":65,"x_max":921,"o":"m 921 917 l 921 385 q 615 -4 921 49 q 549 -42 569 -21 q 529 -90 529 -64 q 548 -132 529 -117 q 600 -147 567 -147 q 660 -135 640 -147 l 694 -264 q 628 -291 665 -283 q 540 -299 590 -299 q 394 -258 451 -299 q 338 -139 338 -218 q 407 -10 338 -57 q 65 385 65 31 l 65 917 l 351 917 l 351 369 q 493 203 351 203 q 636 369 636 203 l 636 917 l 921 917 z "},"Ů":{"ha":986,"x_min":65,"x_max":921,"o":"m 921 385 q 493 -14 921 -14 q 65 385 65 -14 l 65 917 l 351 917 l 351 369 q 493 203 351 203 q 636 369 636 203 l 636 917 l 921 917 l 921 385 m 493 1256 q 635 1210 585 1256 q 685 1086 685 1165 q 635 960 685 1006 q 493 915 585 915 q 352 960 403 915 q 301 1086 301 1006 q 352 1210 301 1165 q 493 1256 403 1256 m 493 1147 q 447 1131 464 1147 q 431 1086 431 1115 q 447 1040 431 1057 q 493 1024 464 1024 q 540 1040 522 1024 q 557 1086 557 1057 q 540 1131 557 1115 q 493 1147 522 1147 z "},"V":{"ha":967,"x_min":-1,"x_max":968,"o":"m 651 0 l 315 0 l -1 917 l 294 917 l 442 390 l 489 211 l 533 388 l 682 917 l 968 917 l 651 0 z "},"W":{"ha":1403,"x_min":0,"x_max":1401,"o":"m 576 0 l 263 0 l 0 917 l 306 917 l 435 224 l 579 917 l 829 917 l 981 226 l 1107 917 l 1401 917 l 1139 0 l 833 0 l 744 392 l 707 621 l 703 621 l 665 392 l 576 0 z "},"X":{"ha":951,"x_min":8,"x_max":953,"o":"m 611 0 l 467 268 l 331 0 l 8 0 l 317 458 l 24 917 l 358 917 l 489 656 l 621 917 l 929 917 l 638 465 l 953 0 l 611 0 z "},"Y":{"ha":954,"x_min":13,"x_max":940,"o":"m 619 325 l 619 0 l 335 0 l 335 325 l 13 917 l 300 917 l 411 688 l 479 528 l 546 688 l 658 917 l 940 917 l 619 325 z "},"Ý":{"ha":954,"x_min":13,"x_max":940,"o":"m 693 1221 l 563 993 l 363 993 l 436 1221 l 693 1221 m 619 325 l 619 0 l 335 0 l 335 325 l 13 917 l 300 917 l 411 688 l 479 528 l 546 688 l 658 917 l 940 917 l 619 325 z "},"Ÿ":{"ha":954,"x_min":13,"x_max":940,"o":"m 619 325 l 619 0 l 335 0 l 335 325 l 13 917 l 300 917 l 411 688 l 479 528 l 546 688 l 658 917 l 940 917 l 619 325 m 315 1217 q 414 1185 379 1217 q 449 1099 449 1154 q 414 1011 449 1042 q 315 981 379 981 q 219 1012 254 981 q 185 1099 185 1043 q 219 1185 185 1154 q 315 1217 254 1217 m 633 1217 q 732 1185 697 1217 q 767 1099 767 1154 q 732 1011 767 1042 q 633 981 697 981 q 538 1012 572 981 q 503 1099 503 1043 q 538 1185 503 1154 q 633 1217 572 1217 z "},"Z":{"ha":883,"x_min":43,"x_max":851,"o":"m 851 207 l 851 0 l 43 0 l 43 199 l 531 710 l 50 710 l 50 917 l 836 917 l 836 718 l 350 207 l 851 207 z "},"Ź":{"ha":883,"x_min":43,"x_max":851,"o":"m 538 993 l 338 993 l 411 1221 l 668 1221 l 538 993 m 851 207 l 851 0 l 43 0 l 43 199 l 531 710 l 50 710 l 50 917 l 836 917 l 836 718 l 350 207 l 851 207 z "},"Ž":{"ha":883,"x_min":43,"x_max":851,"o":"m 313 992 l 160 1224 l 361 1224 l 444 1117 l 528 1224 l 729 1224 l 576 992 l 313 992 m 851 207 l 851 0 l 43 0 l 43 199 l 531 710 l 50 710 l 50 917 l 836 917 l 836 718 l 350 207 l 851 207 z "},"Ż":{"ha":883,"x_min":43,"x_max":851,"o":"m 851 207 l 851 0 l 43 0 l 43 199 l 531 710 l 50 710 l 50 917 l 836 917 l 836 718 l 350 207 l 851 207 m 451 1228 q 560 1197 524 1228 q 597 1106 597 1165 q 560 1015 597 1046 q 451 985 524 985 q 310 1106 310 985 q 451 1228 310 1228 z "},"Ģ":{"ha":1003,"x_min":50,"x_max":933,"o":"m 504 507 l 932 507 l 932 0 l 740 0 l 731 106 q 476 -14 657 -14 q 258 40 354 -14 q 106 200 161 94 q 50 456 50 306 q 106 711 50 604 q 267 874 163 818 q 517 931 372 931 q 779 874 681 931 q 933 688 878 817 l 669 589 q 526 714 643 714 q 342 458 342 714 q 389 260 342 322 q 535 197 436 197 q 650 228 607 197 q 693 318 693 258 l 693 325 l 504 325 l 504 507 m 564 -336 l 386 -336 l 425 -76 l 665 -76 l 564 -336 z "},"Ķ":{"ha":981,"x_min":85,"x_max":978,"o":"m 461 367 l 368 247 l 368 0 l 85 0 l 85 917 l 368 917 l 368 543 l 649 917 l 956 917 l 663 549 l 978 0 l 657 0 l 461 367 m 529 -336 l 351 -336 l 390 -76 l 631 -76 l 529 -336 z "},"Ļ":{"ha":839,"x_min":85,"x_max":804,"o":"m 804 213 l 804 0 l 85 0 l 85 917 l 368 917 l 368 213 l 804 213 m 483 -336 l 306 -336 l 344 -76 l 585 -76 l 483 -336 z "},"Ņ":{"ha":1033,"x_min":85,"x_max":949,"o":"m 949 0 l 638 0 l 388 454 l 329 579 l 326 579 l 332 397 l 332 0 l 85 0 l 85 917 l 394 917 l 644 463 l 704 338 l 706 338 l 700 519 l 700 917 l 949 917 l 949 0 m 557 -336 l 379 -336 l 418 -76 l 658 -76 l 557 -336 z "},"Ŗ":{"ha":969,"x_min":85,"x_max":965,"o":"m 478 318 l 363 318 l 363 0 l 85 0 l 85 917 l 554 917 q 821 840 729 917 q 913 617 913 764 q 742 349 913 417 l 965 0 l 656 0 l 478 318 m 363 511 l 500 511 q 599 534 569 511 q 628 610 628 557 q 598 686 628 663 q 500 710 568 710 l 363 710 l 363 511 m 535 -336 l 357 -336 l 396 -76 l 636 -76 l 535 -336 z "},"Ş":{"ha":896,"x_min":25,"x_max":874,"o":"m 494 578 q 708 516 628 554 q 824 419 788 478 q 861 275 861 361 q 785 92 861 164 q 579 -4 708 19 q 632 -60 614 -28 q 650 -129 650 -92 q 592 -257 650 -215 q 438 -299 533 -299 q 330 -283 372 -299 q 258 -240 288 -268 l 317 -118 q 418 -158 357 -158 q 474 -141 453 -158 q 494 -93 494 -124 q 476 -47 494 -67 q 410 -12 457 -28 q 188 27 275 -7 q 25 128 101 61 l 157 322 q 281 228 213 257 q 443 200 350 200 q 569 261 569 200 q 533 303 569 288 q 414 333 496 318 q 227 383 303 354 q 101 470 151 413 q 51 624 51 528 q 100 783 51 714 q 242 892 149 853 q 464 931 335 931 q 691 895 596 931 q 874 775 786 860 l 735 596 q 616 688 679 660 q 471 717 553 717 q 378 697 411 717 q 344 646 344 678 q 379 607 344 621 q 494 578 414 593 z "},"Ţ":{"ha":932,"x_min":31,"x_max":900,"o":"m 608 704 l 608 4 q 665 -122 665 -39 q 607 -256 665 -212 q 453 -299 549 -299 q 268 -239 331 -299 l 339 -111 q 377 -143 356 -132 q 431 -154 399 -154 q 486 -136 464 -154 q 508 -83 508 -118 q 404 0 508 -15 l 325 0 l 325 704 l 31 704 l 31 917 l 900 917 l 900 704 l 608 704 z "},"Ș":{"ha":896,"x_min":25,"x_max":874,"o":"m 464 931 q 691 895 596 931 q 874 775 786 860 l 735 596 q 616 688 679 660 q 471 717 553 717 q 378 697 411 717 q 344 646 344 678 q 379 607 344 621 q 494 578 414 593 q 708 516 628 554 q 824 419 788 478 q 861 275 861 361 q 808 118 861 183 q 665 19 756 53 q 461 -14 575 -14 q 206 20 303 -14 q 25 128 108 54 l 157 322 q 281 228 213 257 q 443 200 350 200 q 569 261 569 200 q 533 303 569 288 q 414 333 496 318 q 227 383 303 354 q 101 470 151 413 q 51 624 51 528 q 100 783 51 714 q 242 892 149 853 q 464 931 335 931 m 506 -336 l 328 -336 l 367 -76 l 607 -76 l 506 -336 z "},"Ț":{"ha":932,"x_min":31,"x_max":900,"o":"m 900 704 l 608 704 l 608 0 l 325 0 l 325 704 l 31 704 l 31 917 l 900 917 l 900 704 m 482 -336 l 304 -336 l 343 -76 l 583 -76 l 482 -336 z "},"a":{"ha":813,"x_min":32,"x_max":815,"o":"m 776 154 q 815 160 800 154 l 793 11 q 694 -14 747 -14 q 563 15 615 -14 q 494 99 511 43 q 402 16 464 46 q 247 -14 340 -14 q 87 30 142 -14 q 32 156 32 74 q 94 297 32 243 q 303 381 157 351 l 450 411 l 450 438 q 429 500 450 478 q 371 522 408 522 q 303 501 329 522 q 271 426 276 479 l 40 475 q 141 647 56 586 q 381 708 226 708 q 728 432 728 708 l 728 210 q 776 154 728 154 m 360 150 q 423 172 396 150 q 450 232 450 193 l 450 296 l 374 276 q 301 204 301 258 q 317 164 301 178 q 360 150 333 150 z "},"á":{"ha":813,"x_min":32,"x_max":815,"o":"m 776 154 q 815 160 800 154 l 793 11 q 694 -14 747 -14 q 563 15 615 -14 q 494 99 511 43 q 402 16 464 46 q 247 -14 340 -14 q 87 30 142 -14 q 32 156 32 74 q 94 297 32 243 q 303 381 157 351 l 450 411 l 450 438 q 429 500 450 478 q 371 522 408 522 q 303 501 329 522 q 271 426 276 479 l 40 475 q 141 647 56 586 q 381 708 226 708 q 728 432 728 708 l 728 210 q 776 154 728 154 m 360 150 q 423 172 396 150 q 450 232 450 193 l 450 296 l 374 276 q 301 204 301 258 q 317 164 301 178 q 360 150 333 150 m 606 1019 l 464 776 l 264 776 l 351 1019 l 606 1019 z "},"ă":{"ha":813,"x_min":32,"x_max":815,"o":"m 776 154 q 815 160 800 154 l 793 11 q 694 -14 747 -14 q 563 15 615 -14 q 494 99 511 43 q 402 16 464 46 q 247 -14 340 -14 q 87 30 142 -14 q 32 156 32 74 q 94 297 32 243 q 303 381 157 351 l 450 411 l 450 438 q 429 500 450 478 q 371 522 408 522 q 303 501 329 522 q 271 426 276 479 l 40 475 q 141 647 56 586 q 381 708 226 708 q 728 432 728 708 l 728 210 q 776 154 728 154 m 360 150 q 423 172 396 150 q 450 232 450 193 l 450 296 l 374 276 q 301 204 301 258 q 317 164 301 178 q 360 150 333 150 m 629 993 q 565 822 629 883 q 385 760 500 760 q 205 822 269 760 q 140 993 140 883 l 314 993 q 332 931 314 953 q 385 908 350 908 q 438 931 419 908 q 456 993 456 953 l 629 993 z "},"â":{"ha":813,"x_min":32,"x_max":815,"o":"m 776 154 q 815 160 800 154 l 793 11 q 694 -14 747 -14 q 563 15 615 -14 q 494 99 511 43 q 402 16 464 46 q 247 -14 340 -14 q 87 30 142 -14 q 32 156 32 74 q 94 297 32 243 q 303 381 157 351 l 450 411 l 450 438 q 429 500 450 478 q 371 522 408 522 q 303 501 329 522 q 271 426 276 479 l 40 475 q 141 647 56 586 q 381 708 226 708 q 728 432 728 708 l 728 210 q 776 154 728 154 m 360 150 q 423 172 396 150 q 450 232 450 193 l 450 296 l 374 276 q 301 204 301 258 q 317 164 301 178 q 360 150 333 150 m 471 767 l 385 876 l 299 767 l 103 767 l 251 1011 l 518 1011 l 667 767 l 471 767 z "},"ä":{"ha":813,"x_min":32,"x_max":815,"o":"m 776 154 q 815 160 800 154 l 793 11 q 694 -14 747 -14 q 563 15 615 -14 q 494 99 511 43 q 402 16 464 46 q 247 -14 340 -14 q 87 30 142 -14 q 32 156 32 74 q 94 297 32 243 q 303 381 157 351 l 450 411 l 450 438 q 429 500 450 478 q 371 522 408 522 q 303 501 329 522 q 271 426 276 479 l 40 475 q 141 647 56 586 q 381 708 226 708 q 728 432 728 708 l 728 210 q 776 154 728 154 m 360 150 q 423 172 396 150 q 450 232 450 193 l 450 296 l 374 276 q 301 204 301 258 q 317 164 301 178 q 360 150 333 150 m 224 994 q 322 963 288 994 q 357 876 357 932 q 322 789 357 819 q 224 758 288 758 q 128 790 163 758 q 93 876 93 821 q 128 963 93 932 q 224 994 163 994 m 542 994 q 640 963 606 994 q 675 876 675 932 q 640 789 675 819 q 542 758 606 758 q 446 790 481 758 q 411 876 411 821 q 446 963 411 932 q 542 994 481 994 z "},"à":{"ha":813,"x_min":32,"x_max":815,"o":"m 776 154 q 815 160 800 154 l 793 11 q 694 -14 747 -14 q 563 15 615 -14 q 494 99 511 43 q 402 16 464 46 q 247 -14 340 -14 q 87 30 142 -14 q 32 156 32 74 q 94 297 32 243 q 303 381 157 351 l 450 411 l 450 438 q 429 500 450 478 q 371 522 408 522 q 303 501 329 522 q 271 426 276 479 l 40 475 q 141 647 56 586 q 381 708 226 708 q 728 432 728 708 l 728 210 q 776 154 728 154 m 360 150 q 423 172 396 150 q 450 232 450 193 l 450 296 l 374 276 q 301 204 301 258 q 317 164 301 178 q 360 150 333 150 m 489 776 l 289 776 l 147 1019 l 401 1019 l 489 776 z "},"ā":{"ha":813,"x_min":32,"x_max":815,"o":"m 776 154 q 815 160 800 154 l 793 11 q 694 -14 747 -14 q 563 15 615 -14 q 494 99 511 43 q 402 16 464 46 q 247 -14 340 -14 q 87 30 142 -14 q 32 156 32 74 q 94 297 32 243 q 303 381 157 351 l 450 411 l 450 438 q 429 500 450 478 q 371 522 408 522 q 303 501 329 522 q 271 426 276 479 l 40 475 q 141 647 56 586 q 381 708 226 708 q 728 432 728 708 l 728 210 q 776 154 728 154 m 360 150 q 423 172 396 150 q 450 232 450 193 l 450 296 l 374 276 q 301 204 301 258 q 317 164 301 178 q 360 150 333 150 m 649 776 l 121 776 l 121 942 l 649 942 l 649 776 z "},"ą":{"ha":813,"x_min":32,"x_max":815,"o":"m 714 -147 q 774 -135 754 -147 l 808 -264 q 741 -291 778 -283 q 656 -299 704 -299 q 508 -258 564 -299 q 453 -133 453 -217 q 490 -33 453 -74 q 596 26 526 8 q 508 125 525 53 q 416 23 481 60 q 247 -14 351 -14 q 87 30 142 -14 q 32 156 32 74 q 94 297 32 243 q 303 381 157 350 l 450 411 l 450 438 q 429 500 450 478 q 371 522 408 522 q 303 501 329 522 q 271 426 276 479 l 40 475 q 141 647 56 586 q 381 708 226 708 q 728 432 728 708 l 728 210 q 776 154 728 154 q 815 160 800 154 l 793 7 q 681 -28 717 -4 q 644 -90 644 -51 q 663 -133 644 -118 q 714 -147 681 -147 m 360 150 q 423 172 396 150 q 450 232 450 193 l 450 296 l 374 276 q 301 204 301 258 q 317 164 301 178 q 360 150 333 150 z "},"å":{"ha":813,"x_min":32,"x_max":815,"o":"m 776 154 q 815 160 800 154 l 793 11 q 694 -14 747 -14 q 563 15 615 -14 q 494 99 511 43 q 402 16 464 46 q 247 -14 340 -14 q 87 30 142 -14 q 32 156 32 74 q 94 297 32 243 q 303 381 157 351 l 450 411 l 450 438 q 429 500 450 478 q 371 522 408 522 q 303 501 329 522 q 271 426 276 479 l 40 475 q 141 647 56 586 q 381 708 226 708 q 728 432 728 708 l 728 210 q 776 154 728 154 m 360 150 q 423 172 396 150 q 450 232 450 193 l 450 296 l 374 276 q 301 204 301 258 q 317 164 301 178 q 360 150 333 150 m 386 1093 q 528 1048 478 1093 q 578 924 578 1003 q 528 798 578 843 q 386 753 478 753 q 245 798 296 753 q 194 924 194 843 q 245 1048 194 1003 q 386 1093 296 1093 m 386 985 q 340 969 357 985 q 324 924 324 953 q 340 878 324 894 q 386 861 357 861 q 433 878 415 861 q 450 924 450 894 q 433 969 450 953 q 386 985 415 985 z "},"ã":{"ha":813,"x_min":32,"x_max":815,"o":"m 776 154 q 815 160 800 154 l 793 11 q 694 -14 747 -14 q 563 15 615 -14 q 494 99 511 43 q 402 16 464 46 q 247 -14 340 -14 q 87 30 142 -14 q 32 156 32 74 q 94 297 32 243 q 303 381 157 351 l 450 411 l 450 438 q 429 500 450 478 q 371 522 408 522 q 303 501 329 522 q 271 426 276 479 l 40 475 q 141 647 56 586 q 381 708 226 708 q 728 432 728 708 l 728 210 q 776 154 728 154 m 360 150 q 423 172 396 150 q 450 232 450 193 l 450 296 l 374 276 q 301 204 301 258 q 317 164 301 178 q 360 150 333 150 m 668 999 q 615 822 664 881 q 474 764 565 764 q 406 776 432 764 q 351 811 381 789 q 323 832 335 825 q 296 839 311 839 q 264 822 275 839 q 249 767 253 804 l 99 767 q 293 1000 107 1000 q 362 988 335 1000 q 417 953 389 975 q 446 933 435 939 q 471 926 457 926 q 503 944 492 926 q 518 999 514 961 l 668 999 z "},"æ":{"ha":1217,"x_min":33,"x_max":1178,"o":"m 1178 372 q 1171 288 1178 318 l 724 288 q 765 203 733 228 q 849 178 797 178 q 909 194 889 178 q 939 244 929 210 l 1165 179 q 1052 35 1139 85 q 838 -14 965 -14 q 576 117 654 -14 q 456 21 536 56 q 260 -14 376 -14 q 90 31 146 -14 q 33 153 33 76 q 93 292 33 243 q 292 369 153 342 l 453 403 l 453 438 q 369 522 453 522 q 303 501 326 522 q 272 428 281 479 l 42 474 q 135 646 56 583 q 364 708 215 708 q 505 685 442 708 q 611 617 568 661 q 833 708 692 708 q 1088 617 999 708 q 1178 372 1178 525 m 826 518 q 753 490 779 518 q 722 399 728 463 l 917 399 q 892 489 913 460 q 826 518 871 518 m 358 138 q 425 161 397 138 q 453 233 453 185 l 453 293 l 382 276 q 316 247 336 264 q 296 197 296 229 q 358 138 296 138 z "},"b":{"ha":872,"x_min":68,"x_max":826,"o":"m 551 708 q 754 613 682 708 q 826 344 826 517 q 755 80 826 174 q 553 -14 683 -14 q 410 31 469 -14 q 322 154 350 76 l 314 0 l 68 0 l 68 981 l 349 981 l 349 578 q 428 674 376 639 q 551 708 479 708 m 444 186 q 519 224 493 186 q 544 347 544 261 q 519 470 544 433 q 444 507 494 507 q 349 363 353 507 l 349 332 q 444 186 353 186 z "},"c":{"ha":797,"x_min":39,"x_max":767,"o":"m 414 708 q 673 644 590 708 q 767 482 756 579 l 507 403 q 428 515 503 515 q 347 476 372 515 q 321 344 321 436 q 348 216 321 253 q 426 179 375 179 q 514 281 501 179 l 765 201 q 720 92 761 142 q 605 15 679 43 q 428 -14 531 -14 q 139 80 239 -14 q 39 347 39 174 q 138 614 39 519 q 414 708 236 708 z "},"ć":{"ha":797,"x_min":39,"x_max":767,"o":"m 414 708 q 673 644 590 708 q 767 482 756 579 l 507 403 q 428 515 503 515 q 347 476 372 515 q 321 344 321 436 q 348 216 321 253 q 426 179 375 179 q 514 281 501 179 l 765 201 q 720 92 761 142 q 605 15 679 43 q 428 -14 531 -14 q 139 80 239 -14 q 39 347 39 174 q 138 614 39 519 q 414 708 236 708 m 635 1019 l 493 776 l 293 776 l 381 1019 l 635 1019 z "},"č":{"ha":797,"x_min":39,"x_max":767,"o":"m 414 708 q 673 644 590 708 q 767 482 756 579 l 507 403 q 428 515 503 515 q 347 476 372 515 q 321 344 321 436 q 348 216 321 253 q 426 179 375 179 q 514 281 501 179 l 765 201 q 720 92 761 142 q 605 15 679 43 q 428 -14 531 -14 q 139 80 239 -14 q 39 347 39 174 q 138 614 39 519 q 414 708 236 708 m 539 776 l 272 776 l 124 1019 l 319 1019 l 406 910 l 492 1019 l 688 1019 l 539 776 z "},"ç":{"ha":797,"x_min":39,"x_max":767,"o":"m 426 179 q 514 281 501 179 l 765 201 q 703 74 760 129 q 549 -1 647 19 q 622 -129 622 -51 q 564 -257 622 -215 q 410 -299 506 -299 q 302 -283 344 -299 q 231 -240 260 -268 l 289 -118 q 390 -158 329 -158 q 446 -141 425 -158 q 467 -93 467 -124 q 447 -47 467 -67 q 379 -12 428 -26 q 126 93 213 0 q 39 347 39 186 q 138 614 39 519 q 414 708 236 708 q 673 644 590 708 q 767 482 756 579 l 507 403 q 428 515 503 515 q 347 476 372 515 q 321 344 321 436 q 348 216 321 253 q 426 179 375 179 z "},"d":{"ha":872,"x_min":44,"x_max":803,"o":"m 803 981 l 803 0 l 551 0 l 542 135 q 454 26 511 67 q 319 -14 397 -14 q 117 81 189 -14 q 44 344 44 175 q 117 613 44 517 q 321 708 190 708 q 444 674 393 708 q 522 576 494 639 l 522 981 l 803 981 m 426 186 q 522 342 522 186 l 522 353 q 426 507 522 507 q 353 470 378 507 q 328 347 328 433 q 353 224 328 261 q 426 186 378 186 z "},"ð":{"ha":831,"x_min":47,"x_max":799,"o":"m 657 839 q 788 428 788 667 q 749 173 788 269 q 626 31 710 76 q 404 -14 542 -14 q 142 79 238 -14 q 47 340 47 172 q 90 530 47 450 q 210 651 132 610 q 390 693 288 693 q 575 597 524 693 q 474 797 550 708 l 258 756 l 243 836 l 417 856 q 229 999 344 921 l 467 999 q 608 894 542 961 l 778 932 l 799 851 l 657 839 m 424 179 q 501 217 478 179 q 525 340 525 256 q 501 476 525 436 q 425 517 478 517 q 351 476 374 517 q 329 340 329 436 q 351 217 329 256 q 424 179 374 179 z "},"ď":{"ha":1028,"x_min":44,"x_max":1092,"o":"m 1092 981 l 1013 628 l 856 628 l 885 981 l 1092 981 m 522 981 l 803 981 l 803 0 l 551 0 l 542 135 q 454 26 511 67 q 319 -14 397 -14 q 117 81 189 -14 q 44 344 44 175 q 117 613 44 517 q 321 708 190 708 q 444 674 393 708 q 522 576 494 639 l 522 981 m 426 186 q 522 342 522 186 l 522 353 q 426 507 522 507 q 353 470 378 507 q 328 347 328 433 q 353 224 328 261 q 426 186 378 186 z "},"đ":{"ha":871,"x_min":44,"x_max":921,"o":"m 921 756 l 803 756 l 803 0 l 551 0 l 542 135 q 454 26 511 67 q 319 -14 397 -14 q 117 81 189 -14 q 44 344 44 175 q 117 613 44 517 q 321 708 190 708 q 444 674 393 708 q 522 576 494 639 l 522 756 l 356 756 l 356 874 l 522 874 l 522 981 l 803 981 l 803 874 l 921 874 l 921 756 m 426 186 q 522 342 522 186 l 522 353 q 426 507 522 507 q 353 470 378 507 q 328 347 328 433 q 353 224 328 261 q 426 186 378 186 z "},"e":{"ha":810,"x_min":39,"x_max":772,"o":"m 772 364 q 765 283 772 314 l 308 283 q 346 201 317 225 q 428 178 375 178 q 532 244 513 178 l 758 179 q 644 35 732 85 q 428 -14 556 -14 q 139 80 239 -14 q 39 347 39 174 q 137 614 39 519 q 413 708 235 708 q 679 616 586 708 q 772 364 772 524 m 414 518 q 342 492 368 518 q 308 406 317 465 l 510 406 q 480 490 503 463 q 414 518 457 518 z "},"é":{"ha":810,"x_min":39,"x_max":772,"o":"m 772 364 q 765 283 772 314 l 308 283 q 346 201 317 225 q 428 178 375 178 q 532 244 513 178 l 758 179 q 644 35 732 85 q 428 -14 556 -14 q 139 80 239 -14 q 39 347 39 174 q 137 614 39 519 q 413 708 235 708 q 679 616 586 708 q 772 364 772 524 m 414 518 q 342 492 368 518 q 308 406 317 465 l 510 406 q 480 490 503 463 q 414 518 457 518 m 633 1019 l 492 776 l 292 776 l 379 1019 l 633 1019 z "},"ě":{"ha":810,"x_min":39,"x_max":772,"o":"m 772 364 q 765 283 772 314 l 308 283 q 346 201 317 225 q 428 178 375 178 q 532 244 513 178 l 758 179 q 644 35 732 85 q 428 -14 556 -14 q 139 80 239 -14 q 39 347 39 174 q 137 614 39 519 q 413 708 235 708 q 679 616 586 708 q 772 364 772 524 m 414 518 q 342 492 368 518 q 308 406 317 465 l 510 406 q 480 490 503 463 q 414 518 457 518 m 538 776 l 271 776 l 122 1019 l 318 1019 l 404 910 l 490 1019 l 686 1019 l 538 776 z "},"ê":{"ha":810,"x_min":39,"x_max":772,"o":"m 772 364 q 765 283 772 314 l 308 283 q 346 201 317 225 q 428 178 375 178 q 532 244 513 178 l 758 179 q 644 35 732 85 q 428 -14 556 -14 q 139 80 239 -14 q 39 347 39 174 q 137 614 39 519 q 413 708 235 708 q 679 616 586 708 q 772 364 772 524 m 414 518 q 342 492 368 518 q 308 406 317 465 l 510 406 q 480 490 503 463 q 414 518 457 518 m 497 767 l 411 876 l 325 767 l 129 767 l 278 1011 l 544 1011 l 693 767 l 497 767 z "},"ë":{"ha":810,"x_min":39,"x_max":772,"o":"m 772 364 q 765 283 772 314 l 308 283 q 346 201 317 225 q 428 178 375 178 q 532 244 513 178 l 758 179 q 644 35 732 85 q 428 -14 556 -14 q 139 80 239 -14 q 39 347 39 174 q 137 614 39 519 q 413 708 235 708 q 679 616 586 708 q 772 364 772 524 m 414 518 q 342 492 368 518 q 308 406 317 465 l 510 406 q 480 490 503 463 q 414 518 457 518 m 250 994 q 349 963 314 994 q 383 876 383 932 q 349 789 383 819 q 250 758 314 758 q 154 790 189 758 q 119 876 119 821 q 154 963 119 932 q 250 994 189 994 m 568 994 q 667 963 632 994 q 701 876 701 932 q 667 789 701 819 q 568 758 632 758 q 472 790 507 758 q 438 876 438 821 q 472 963 438 932 q 568 994 507 994 z "},"ė":{"ha":810,"x_min":39,"x_max":772,"o":"m 772 364 q 765 283 772 314 l 308 283 q 346 201 317 225 q 428 178 375 178 q 532 244 513 178 l 758 179 q 644 35 732 85 q 428 -14 556 -14 q 139 80 239 -14 q 39 347 39 174 q 137 614 39 519 q 413 708 235 708 q 679 616 586 708 q 772 364 772 524 m 414 518 q 342 492 368 518 q 308 406 317 465 l 510 406 q 480 490 503 463 q 414 518 457 518 m 411 1006 q 520 974 483 1006 q 557 883 557 943 q 520 793 557 824 q 411 763 483 763 q 269 883 269 763 q 411 1006 269 1006 z "},"è":{"ha":810,"x_min":39,"x_max":772,"o":"m 772 364 q 765 283 772 314 l 308 283 q 346 201 317 225 q 428 178 375 178 q 532 244 513 178 l 758 179 q 644 35 732 85 q 428 -14 556 -14 q 139 80 239 -14 q 39 347 39 174 q 137 614 39 519 q 413 708 235 708 q 679 616 586 708 q 772 364 772 524 m 414 518 q 342 492 368 518 q 308 406 317 465 l 510 406 q 480 490 503 463 q 414 518 457 518 m 515 776 l 315 776 l 174 1019 l 428 1019 l 515 776 z "},"ē":{"ha":810,"x_min":39,"x_max":772,"o":"m 772 364 q 765 283 772 314 l 308 283 q 346 201 317 225 q 428 178 375 178 q 532 244 513 178 l 758 179 q 644 35 732 85 q 428 -14 556 -14 q 139 80 239 -14 q 39 347 39 174 q 137 614 39 519 q 413 708 235 708 q 679 616 586 708 q 772 364 772 524 m 414 518 q 342 492 368 518 q 308 406 317 465 l 510 406 q 480 490 503 463 q 414 518 457 518 m 675 776 l 147 776 l 147 942 l 675 942 l 675 776 z "},"ę":{"ha":810,"x_min":39,"x_max":772,"o":"m 772 364 q 765 283 772 314 l 308 283 q 346 201 317 225 q 428 178 375 178 q 532 244 513 178 l 758 179 q 683 63 739 108 q 543 -3 626 17 q 480 -42 500 -22 q 460 -89 460 -62 q 478 -132 460 -117 q 531 -147 497 -147 q 590 -135 571 -147 l 625 -264 q 558 -291 596 -283 q 471 -299 521 -299 q 324 -258 381 -299 q 268 -137 268 -217 q 342 -8 268 -61 q 116 103 193 13 q 39 347 39 194 q 137 614 39 519 q 413 708 235 708 q 679 616 586 708 q 772 364 772 524 m 414 518 q 342 492 368 518 q 308 406 317 465 l 510 406 q 480 490 503 463 q 414 518 457 518 z "},"f":{"ha":588,"x_min":11,"x_max":588,"o":"m 376 694 l 579 694 l 579 501 l 394 501 l 394 0 l 114 0 l 114 501 l 11 501 l 11 694 l 114 694 l 114 739 q 199 940 114 875 q 414 1004 283 1004 q 517 993 472 1004 q 588 961 563 982 l 565 793 q 486 815 538 815 q 404 794 432 815 q 376 724 376 772 l 376 694 z "},"g":{"ha":796,"x_min":21,"x_max":796,"o":"m 528 176 q 727 121 658 176 q 796 -46 796 65 q 689 -235 796 -171 q 389 -299 582 -299 q 21 -143 21 -299 q 53 -63 21 -97 q 154 -14 85 -29 q 40 138 40 32 q 72 224 40 186 q 156 282 103 261 q 40 471 40 340 q 132 648 40 588 q 399 708 224 708 q 536 697 472 708 q 597 844 547 785 q 736 903 646 903 q 764 901 754 903 l 790 722 q 744 726 765 726 q 673 710 703 726 q 629 668 643 693 q 757 471 757 608 q 665 296 757 356 q 399 236 574 236 q 253 249 317 236 q 224 215 224 240 q 289 176 224 176 l 528 176 m 399 557 q 341 534 363 557 q 319 472 319 511 q 341 410 319 433 q 399 388 363 388 q 456 410 435 388 q 478 472 478 433 q 456 534 478 511 q 399 557 435 557 m 407 -124 q 581 -74 581 -124 q 514 -42 581 -42 l 322 -42 q 249 -50 269 -42 q 228 -78 228 -58 q 270 -112 228 -101 q 407 -124 313 -124 z "},"ğ":{"ha":790,"x_min":18,"x_max":813,"o":"m 399 760 q 218 822 283 760 q 153 993 153 883 l 328 993 q 346 931 328 953 q 399 908 364 908 q 451 931 433 908 q 469 993 469 953 l 643 993 q 578 822 643 883 q 399 760 514 760 m 525 176 q 725 121 656 176 q 794 -46 794 65 q 687 -235 794 -171 q 386 -299 579 -299 q 18 -143 18 -299 q 50 -63 18 -97 q 151 -14 82 -29 q 39 138 39 32 q 69 224 39 186 q 153 282 100 261 q 38 471 38 340 q 129 648 38 588 q 396 708 221 708 q 588 683 508 708 q 615 792 589 742 q 686 872 642 842 q 786 901 731 901 l 813 722 q 790 724 806 724 q 713 703 744 724 q 672 642 682 682 q 754 471 754 581 q 663 296 754 356 q 396 236 571 236 q 250 249 315 236 q 221 215 221 240 q 288 176 221 176 l 525 176 m 396 557 q 338 534 360 557 q 317 472 317 511 q 338 410 317 433 q 396 388 360 388 q 453 410 432 388 q 475 472 475 433 q 453 534 475 511 q 396 557 432 557 m 404 -124 q 578 -74 578 -124 q 511 -42 578 -42 l 319 -42 q 246 -50 267 -42 q 225 -78 225 -58 q 267 -112 225 -101 q 404 -124 310 -124 z "},"h":{"ha":861,"x_min":68,"x_max":794,"o":"m 567 708 q 734 646 674 708 q 794 469 794 583 l 794 0 l 514 0 l 514 394 q 496 475 514 451 q 443 499 478 499 q 374 465 400 499 q 349 365 349 432 l 349 0 l 68 0 l 68 981 l 349 981 l 349 560 q 435 671 379 633 q 567 708 490 708 z "},"i":{"ha":417,"x_min":51,"x_max":365,"o":"m 208 756 q 88 785 124 756 q 51 879 51 814 q 88 975 51 946 q 208 1004 124 1004 q 329 975 293 1004 q 365 879 365 946 q 329 785 365 814 q 208 756 293 756 m 349 0 l 68 0 l 68 694 l 349 694 l 349 0 z "},"ı":{"ha":417,"x_min":68,"x_max":349,"o":"m 349 0 l 68 0 l 68 694 l 349 694 l 349 0 z "},"í":{"ha":417,"x_min":68,"x_max":433,"o":"m 349 0 l 68 0 l 68 694 l 349 694 l 349 0 m 433 1019 l 292 776 l 92 776 l 179 1019 l 433 1019 z "},"î":{"ha":417,"x_min":-74,"x_max":490,"o":"m 349 0 l 68 0 l 68 694 l 349 694 l 349 0 m 294 767 l 208 876 l 122 767 l -74 767 l 75 1011 l 342 1011 l 490 767 l 294 767 z "},"ï":{"ha":417,"x_min":-57,"x_max":474,"o":"m 67 756 q -57 876 -57 756 q -26 967 -57 936 q 67 997 6 997 q 190 876 190 997 q 67 756 190 756 m 350 756 q 226 876 226 756 q 350 997 226 997 q 442 967 411 997 q 474 876 474 936 q 350 756 474 756 m 349 0 l 68 0 l 68 694 l 349 694 l 349 0 z "},"ì":{"ha":417,"x_min":-29,"x_max":349,"o":"m 349 0 l 68 0 l 68 694 l 349 694 l 349 0 m 313 776 l 113 776 l -29 1019 l 225 1019 l 313 776 z "},"ĳ":{"ha":832,"x_min":51,"x_max":782,"o":"m 208 756 q 88 785 124 756 q 51 879 51 814 q 88 975 51 946 q 208 1004 124 1004 q 329 975 293 1004 q 365 879 365 946 q 329 785 365 814 q 208 756 293 756 m 349 0 l 68 0 l 68 694 l 349 694 l 349 0 m 624 1004 q 745 975 708 1004 q 782 879 782 946 q 745 785 782 814 q 624 756 708 756 q 504 785 540 756 q 468 879 468 814 q 504 975 468 946 q 624 1004 540 1004 m 765 -28 q 694 -235 765 -171 q 476 -299 624 -299 q 279 -256 356 -299 l 315 -85 q 349 -102 328 -96 q 393 -108 371 -108 q 462 -83 439 -108 q 485 -3 485 -58 l 485 694 l 765 694 l 765 -28 z "},"ī":{"ha":417,"x_min":6,"x_max":413,"o":"m 413 776 l 6 776 l 6 942 l 413 942 l 413 776 m 349 0 l 68 0 l 68 694 l 349 694 l 349 0 z "},"į":{"ha":417,"x_min":4,"x_max":365,"o":"m 208 756 q 88 785 124 756 q 51 879 51 814 q 88 975 51 946 q 208 1004 124 1004 q 329 975 293 1004 q 365 879 365 946 q 329 785 365 814 q 208 756 293 756 m 265 -147 q 326 -135 307 -147 l 361 -264 q 294 -291 331 -283 q 206 -299 257 -299 q 60 -258 117 -299 q 4 -139 4 -218 q 93 0 4 -49 l 68 0 l 68 694 l 349 694 l 349 0 q 236 -33 276 -8 q 196 -92 196 -58 q 214 -133 196 -118 q 265 -147 232 -147 z "},"j":{"ha":415,"x_min":-137,"x_max":365,"o":"m 207 1004 q 328 975 292 1004 q 365 879 365 946 q 328 785 365 814 q 207 756 292 756 q 88 785 124 756 q 51 879 51 814 q 88 975 51 946 q 207 1004 124 1004 m 349 -28 q 278 -235 349 -171 q 60 -299 207 -299 q -137 -256 -61 -299 l -101 -85 q -67 -102 -89 -96 q -24 -108 -46 -108 q 45 -83 22 -108 q 68 -3 68 -58 l 68 694 l 349 694 l 349 -28 z "},"k":{"ha":890,"x_min":68,"x_max":901,"o":"m 449 263 l 349 146 l 349 0 l 68 0 l 68 981 l 349 981 l 349 426 l 581 694 l 886 694 l 635 422 l 901 0 l 593 0 l 449 263 z "},"l":{"ha":464,"x_min":67,"x_max":468,"o":"m 347 260 q 361 196 347 215 q 408 176 375 176 q 468 186 439 176 l 453 26 q 383 -3 428 8 q 293 -14 338 -14 q 119 40 172 -14 q 67 218 67 94 l 67 981 l 347 981 l 347 260 z "},"ĺ":{"ha":467,"x_min":67,"x_max":468,"o":"m 425 1272 l 306 1050 l 107 1050 l 182 1272 l 425 1272 m 347 260 q 361 196 347 215 q 408 176 375 176 q 468 186 439 176 l 453 26 q 383 -3 428 8 q 293 -14 338 -14 q 119 40 172 -14 q 67 218 67 94 l 67 981 l 347 981 l 347 260 z "},"ľ":{"ha":579,"x_min":67,"x_max":628,"o":"m 549 628 l 392 628 l 422 981 l 628 981 l 549 628 m 347 260 q 361 196 347 215 q 408 176 375 176 q 468 186 439 176 l 453 26 q 383 -3 428 8 q 293 -14 338 -14 q 119 40 172 -14 q 67 218 67 94 l 67 981 l 347 981 l 347 260 z "},"ŀ":{"ha":735,"x_min":67,"x_max":732,"o":"m 347 260 q 361 196 347 215 q 408 176 375 176 q 468 186 439 176 l 453 26 q 383 -3 428 8 q 293 -14 338 -14 q 119 40 172 -14 q 67 218 67 94 l 67 981 l 347 981 l 347 260 m 576 628 q 691 592 650 628 q 732 490 732 556 q 691 388 732 425 q 576 351 650 351 q 462 388 503 351 q 421 490 421 425 q 462 592 421 556 q 576 628 503 628 z "},"ł":{"ha":558,"x_min":8,"x_max":540,"o":"m 404 461 l 404 260 q 417 196 404 215 q 464 176 431 176 q 524 186 496 176 l 508 26 q 438 -3 483 8 q 350 -14 393 -14 q 176 40 229 -14 q 124 218 124 94 l 124 299 l 8 224 l 8 417 l 124 468 l 124 981 l 404 981 l 404 625 l 540 715 l 540 521 l 404 461 z "},"m":{"ha":1301,"x_min":68,"x_max":1235,"o":"m 1008 708 q 1174 646 1113 708 q 1235 469 1235 583 l 1235 0 l 954 0 l 954 400 q 937 476 954 453 q 885 499 919 499 q 816 465 840 499 q 792 367 792 432 l 792 0 l 511 0 l 511 400 q 494 476 511 453 q 442 499 476 499 q 374 465 399 499 q 349 365 349 432 l 349 0 l 68 0 l 68 694 l 321 694 l 328 551 q 420 668 360 628 q 565 708 481 708 q 699 672 644 708 q 778 568 754 636 q 869 672 810 636 q 1008 708 929 708 z "},"n":{"ha":861,"x_min":68,"x_max":794,"o":"m 567 708 q 734 646 674 708 q 794 469 794 583 l 794 0 l 514 0 l 514 394 q 496 475 514 451 q 443 499 478 499 q 374 466 399 499 q 349 365 349 433 l 349 0 l 68 0 l 68 694 l 321 694 l 328 551 q 419 668 358 628 q 567 708 481 708 z "},"ń":{"ha":861,"x_min":68,"x_max":794,"o":"m 567 708 q 734 646 674 708 q 794 469 794 583 l 794 0 l 514 0 l 514 394 q 496 475 514 451 q 443 499 478 499 q 374 466 399 499 q 349 365 349 433 l 349 0 l 68 0 l 68 694 l 321 694 l 328 551 q 419 668 358 628 q 567 708 481 708 m 654 1019 l 513 776 l 313 776 l 400 1019 l 654 1019 z "},"ň":{"ha":861,"x_min":68,"x_max":794,"o":"m 567 708 q 734 646 674 708 q 794 469 794 583 l 794 0 l 514 0 l 514 394 q 496 475 514 451 q 443 499 478 499 q 374 466 399 499 q 349 365 349 433 l 349 0 l 68 0 l 68 694 l 321 694 l 328 551 q 419 668 358 628 q 567 708 481 708 m 558 776 l 292 776 l 143 1019 l 339 1019 l 425 910 l 511 1019 l 707 1019 l 558 776 z "},"ñ":{"ha":861,"x_min":68,"x_max":794,"o":"m 567 708 q 734 646 674 708 q 794 469 794 583 l 794 0 l 514 0 l 514 394 q 496 475 514 451 q 443 499 478 499 q 374 466 399 499 q 349 365 349 433 l 349 0 l 68 0 l 68 694 l 321 694 l 328 551 q 419 668 358 628 q 567 708 481 708 m 715 999 q 662 822 711 881 q 521 764 613 764 q 453 776 479 764 q 399 811 428 789 q 370 832 382 825 q 343 839 358 839 q 311 822 322 839 q 296 767 300 804 l 146 767 q 340 1000 154 1000 q 409 988 382 1000 q 464 953 436 975 q 493 933 482 939 q 518 926 504 926 q 550 944 539 926 q 565 999 561 961 l 715 999 z "},"o":{"ha":833,"x_min":39,"x_max":794,"o":"m 417 708 q 695 613 596 708 q 794 347 794 518 q 695 81 794 176 q 417 -14 596 -14 q 138 81 238 -14 q 39 347 39 176 q 138 613 39 518 q 417 708 238 708 m 417 515 q 342 478 364 515 q 321 347 321 442 q 342 216 321 253 q 417 179 364 179 q 491 216 469 179 q 513 347 513 253 q 491 478 513 442 q 417 515 469 515 z "},"ó":{"ha":833,"x_min":39,"x_max":794,"o":"m 417 708 q 695 613 596 708 q 794 347 794 518 q 695 81 794 176 q 417 -14 596 -14 q 138 81 238 -14 q 39 347 39 176 q 138 613 39 518 q 417 708 238 708 m 417 515 q 342 478 364 515 q 321 347 321 442 q 342 216 321 253 q 417 179 364 179 q 491 216 469 179 q 513 347 513 253 q 491 478 513 442 q 417 515 469 515 m 639 1019 l 497 776 l 297 776 l 385 1019 l 639 1019 z "},"ô":{"ha":833,"x_min":39,"x_max":794,"o":"m 417 708 q 695 613 596 708 q 794 347 794 518 q 695 81 794 176 q 417 -14 596 -14 q 138 81 238 -14 q 39 347 39 176 q 138 613 39 518 q 417 708 238 708 m 417 515 q 342 478 364 515 q 321 347 321 442 q 342 216 321 253 q 417 179 364 179 q 491 216 469 179 q 513 347 513 253 q 491 478 513 442 q 417 515 469 515 m 503 767 l 417 876 l 331 767 l 135 767 l 283 1011 l 550 1011 l 699 767 l 503 767 z "},"ö":{"ha":833,"x_min":39,"x_max":794,"o":"m 417 708 q 695 613 596 708 q 794 347 794 518 q 695 81 794 176 q 417 -14 596 -14 q 138 81 238 -14 q 39 347 39 176 q 138 613 39 518 q 417 708 238 708 m 417 515 q 342 478 364 515 q 321 347 321 442 q 342 216 321 253 q 417 179 364 179 q 491 216 469 179 q 513 347 513 253 q 491 478 513 442 q 417 515 469 515 m 256 994 q 354 963 319 994 q 389 876 389 932 q 354 789 389 819 q 256 758 319 758 q 160 790 194 758 q 125 876 125 821 q 160 963 125 932 q 256 994 194 994 m 574 994 q 672 963 638 994 q 707 876 707 932 q 672 789 707 819 q 574 758 638 758 q 478 790 513 758 q 443 876 443 821 q 478 963 443 932 q 574 994 513 994 z "},"ò":{"ha":833,"x_min":39,"x_max":794,"o":"m 417 708 q 695 613 596 708 q 794 347 794 518 q 695 81 794 176 q 417 -14 596 -14 q 138 81 238 -14 q 39 347 39 176 q 138 613 39 518 q 417 708 238 708 m 417 515 q 342 478 364 515 q 321 347 321 442 q 342 216 321 253 q 417 179 364 179 q 491 216 469 179 q 513 347 513 253 q 491 478 513 442 q 417 515 469 515 m 521 776 l 321 776 l 179 1019 l 433 1019 l 521 776 z "},"ő":{"ha":833,"x_min":39,"x_max":794,"o":"m 417 708 q 695 613 596 708 q 794 347 794 518 q 695 81 794 176 q 417 -14 596 -14 q 138 81 238 -14 q 39 347 39 176 q 138 613 39 518 q 417 708 238 708 m 417 515 q 342 478 364 515 q 321 347 321 442 q 342 216 321 253 q 417 179 364 179 q 491 216 469 179 q 513 347 513 253 q 491 478 513 442 q 417 515 469 515 m 340 776 l 151 776 l 244 1019 l 471 1019 l 340 776 m 653 776 l 463 776 l 556 1019 l 783 1019 l 653 776 z "},"ō":{"ha":833,"x_min":39,"x_max":794,"o":"m 417 708 q 695 613 596 708 q 794 347 794 518 q 695 81 794 176 q 417 -14 596 -14 q 138 81 238 -14 q 39 347 39 176 q 138 613 39 518 q 417 708 238 708 m 417 515 q 342 478 364 515 q 321 347 321 442 q 342 216 321 253 q 417 179 364 179 q 491 216 469 179 q 513 347 513 253 q 491 478 513 442 q 417 515 469 515 m 681 776 l 153 776 l 153 942 l 681 942 l 681 776 z "},"ø":{"ha":833,"x_min":39,"x_max":794,"o":"m 417 708 q 638 657 546 708 l 689 724 l 782 724 l 694 614 q 769 500 743 568 q 794 347 794 432 q 695 81 794 176 q 417 -14 596 -14 q 207 32 293 -14 l 158 -33 l 65 -33 l 147 74 q 39 347 39 167 q 138 613 39 518 q 417 708 238 708 m 331 276 l 357 318 l 483 486 q 417 515 463 515 q 342 478 364 515 q 321 347 321 442 q 329 276 321 308 l 331 276 m 417 179 q 491 216 469 179 q 513 347 513 253 q 506 400 513 375 l 504 400 l 478 361 l 357 200 q 417 179 376 179 z "},"õ":{"ha":833,"x_min":39,"x_max":794,"o":"m 417 708 q 695 613 596 708 q 794 347 794 518 q 695 81 794 176 q 417 -14 596 -14 q 138 81 238 -14 q 39 347 39 176 q 138 613 39 518 q 417 708 238 708 m 417 515 q 342 478 364 515 q 321 347 321 442 q 342 216 321 253 q 417 179 364 179 q 491 216 469 179 q 513 347 513 253 q 491 478 513 442 q 417 515 469 515 m 701 999 q 648 822 697 881 q 507 764 599 764 q 440 776 465 764 q 385 811 414 789 q 356 832 368 825 q 329 839 344 839 q 297 822 308 839 q 282 767 286 804 l 132 767 q 326 1000 140 1000 q 395 988 368 1000 q 450 953 422 975 q 479 933 468 939 q 504 926 490 926 q 536 944 525 926 q 551 999 547 961 l 701 999 z "},"œ":{"ha":1307,"x_min":39,"x_max":1269,"o":"m 1269 372 q 1263 290 1269 321 l 806 290 q 842 203 814 228 q 925 178 871 178 q 1029 244 1010 178 l 1256 179 q 1142 35 1231 85 q 925 -14 1054 -14 q 665 97 751 -14 q 401 -14 579 -14 q 136 82 233 -14 q 39 347 39 178 q 136 613 39 517 q 401 708 233 708 q 665 597 578 708 q 910 708 746 708 q 1176 617 1083 708 q 1269 372 1269 525 m 911 518 q 839 492 864 518 q 806 404 814 465 l 1004 404 q 976 490 999 461 q 911 518 954 518 m 417 179 q 492 217 469 179 q 514 347 514 254 q 492 479 514 442 q 417 517 469 517 q 344 478 365 517 q 322 347 322 440 q 344 217 322 254 q 417 179 365 179 z "},"p":{"ha":872,"x_min":68,"x_max":826,"o":"m 553 708 q 755 615 683 708 q 826 350 826 521 q 754 82 826 178 q 551 -14 682 -14 q 428 21 479 -14 q 349 117 376 56 l 349 -292 l 68 -292 l 68 694 l 314 694 l 322 540 q 410 663 350 618 q 553 708 469 708 m 444 188 q 519 224 494 188 q 544 347 544 261 q 519 471 544 433 q 444 508 493 508 q 349 363 353 508 l 349 332 q 444 188 353 188 z "},"þ":{"ha":872,"x_min":68,"x_max":826,"o":"m 560 708 q 751 620 676 708 q 826 357 826 532 q 784 137 826 219 q 679 20 742 54 q 550 -14 617 -14 q 349 107 410 -14 l 349 -292 l 68 -292 l 68 981 l 349 981 l 349 565 q 431 670 378 632 q 560 708 483 708 m 444 188 q 521 224 497 188 q 544 347 544 260 q 521 472 544 435 q 444 508 497 508 q 349 353 349 508 l 349 342 q 444 188 349 188 z "},"q":{"ha":872,"x_min":44,"x_max":804,"o":"m 804 694 l 804 -292 l 524 -292 l 524 118 q 444 21 496 56 q 321 -14 393 -14 q 117 82 190 -14 q 44 350 44 178 q 117 614 44 519 q 319 708 189 708 q 462 663 403 708 q 550 540 521 618 l 557 694 l 804 694 m 428 188 q 524 321 518 188 l 524 374 q 494 475 519 442 q 428 508 469 508 q 353 471 379 508 q 328 347 328 433 q 353 224 328 261 q 428 188 378 188 z "},"r":{"ha":607,"x_min":68,"x_max":608,"o":"m 535 708 q 608 692 583 708 l 582 460 q 546 475 569 469 q 494 481 522 481 q 389 445 429 481 q 349 342 349 410 l 349 0 l 68 0 l 68 694 l 319 694 l 328 532 q 404 663 353 617 q 535 708 456 708 z "},"ŕ":{"ha":607,"x_min":68,"x_max":608,"o":"m 535 708 q 608 692 583 708 l 582 460 q 546 475 569 469 q 494 481 522 481 q 389 445 429 481 q 349 342 349 410 l 349 0 l 68 0 l 68 694 l 319 694 l 328 532 q 404 663 353 617 q 535 708 456 708 m 551 1019 l 410 776 l 210 776 l 297 1019 l 551 1019 z "},"ř":{"ha":607,"x_min":40,"x_max":608,"o":"m 535 708 q 608 692 583 708 l 582 460 q 546 475 569 469 q 494 481 522 481 q 389 445 429 481 q 349 342 349 410 l 349 0 l 68 0 l 68 694 l 319 694 l 328 532 q 404 663 353 617 q 535 708 456 708 m 456 776 l 189 776 l 40 1019 l 236 1019 l 322 910 l 408 1019 l 604 1019 l 456 776 z "},"s":{"ha":743,"x_min":19,"x_max":719,"o":"m 374 -14 q 163 13 250 -14 q 19 99 76 39 l 151 251 q 240 185 188 208 q 357 163 293 163 q 415 171 393 163 q 438 196 438 179 q 413 223 438 211 q 324 249 388 235 q 103 332 171 278 q 36 472 36 386 q 76 586 36 532 q 195 674 115 640 q 393 708 275 708 q 719 593 619 708 l 593 456 q 404 532 528 532 q 339 522 361 532 q 317 494 317 511 q 341 470 317 481 q 422 450 365 460 q 649 373 579 426 q 719 225 719 319 q 632 53 719 121 q 374 -14 544 -14 z "},"ś":{"ha":743,"x_min":19,"x_max":719,"o":"m 374 -14 q 163 13 250 -14 q 19 99 76 39 l 151 251 q 240 185 188 208 q 357 163 293 163 q 415 171 393 163 q 438 196 438 179 q 413 223 438 211 q 324 249 388 235 q 103 332 171 278 q 36 472 36 386 q 76 586 36 532 q 195 674 115 640 q 393 708 275 708 q 719 593 619 708 l 593 456 q 404 532 528 532 q 339 522 361 532 q 317 494 317 511 q 341 470 317 481 q 422 450 365 460 q 649 373 579 426 q 719 225 719 319 q 632 53 719 121 q 374 -14 544 -14 m 610 1019 l 468 776 l 268 776 l 356 1019 l 610 1019 z "},"š":{"ha":743,"x_min":19,"x_max":719,"o":"m 374 -14 q 163 13 250 -14 q 19 99 76 39 l 151 251 q 240 185 188 208 q 357 163 293 163 q 415 171 393 163 q 438 196 438 179 q 413 223 438 211 q 324 249 388 235 q 103 332 171 278 q 36 472 36 386 q 76 586 36 532 q 195 674 115 640 q 393 708 275 708 q 719 593 619 708 l 593 456 q 404 532 528 532 q 339 522 361 532 q 317 494 317 511 q 341 470 317 481 q 422 450 365 460 q 649 373 579 426 q 719 225 719 319 q 632 53 719 121 q 374 -14 544 -14 m 514 776 l 247 776 l 99 1019 l 294 1019 l 381 910 l 467 1019 l 663 1019 l 514 776 z "},"ß":{"ha":913,"x_min":68,"x_max":878,"o":"m 631 492 q 810 424 743 492 q 878 249 878 357 q 844 117 878 176 q 742 22 811 58 q 572 -14 674 -14 q 469 -2 515 -14 q 392 31 422 10 l 432 211 q 467 188 449 194 q 514 181 485 181 q 583 210 557 181 q 608 289 608 239 q 579 363 608 338 q 493 389 550 389 l 421 389 l 451 581 l 492 581 q 563 611 538 582 q 589 690 589 640 q 560 766 589 739 q 483 793 532 793 q 379 751 410 793 q 349 610 349 708 l 349 0 l 68 0 l 68 622 q 167 894 68 801 q 486 988 267 988 q 690 953 606 988 q 817 857 774 918 q 860 715 860 796 q 832 606 860 657 q 753 525 804 556 q 631 494 701 494 l 631 492 z "},"ſ":{"ha":485,"x_min":67,"x_max":504,"o":"m 67 739 q 149 940 67 875 q 360 1004 232 1004 q 444 996 411 1004 q 504 968 478 988 l 493 800 q 467 812 481 808 q 435 815 454 815 q 365 792 390 815 q 339 719 339 769 l 339 0 l 67 0 l 67 739 z "},"t":{"ha":611,"x_min":10,"x_max":601,"o":"m 601 36 q 511 0 568 14 q 400 -14 454 -14 q 192 42 261 -14 q 122 222 122 97 l 122 501 l 10 501 l 10 694 l 122 694 l 122 846 l 403 924 l 403 694 l 593 694 l 593 501 l 403 501 l 403 267 q 424 197 403 218 q 490 176 446 176 q 583 200 543 176 l 601 36 z "},"ť":{"ha":611,"x_min":10,"x_max":696,"o":"m 696 1065 l 617 756 l 460 756 l 490 1065 l 696 1065 m 490 176 q 583 200 543 176 l 601 36 q 511 0 568 14 q 400 -14 454 -14 q 192 42 261 -14 q 122 222 122 97 l 122 501 l 10 501 l 10 694 l 122 694 l 122 846 l 403 924 l 403 694 l 593 694 l 593 501 l 403 501 l 403 267 q 424 197 403 218 q 490 176 446 176 z "},"u":{"ha":861,"x_min":65,"x_max":793,"o":"m 793 694 l 793 0 l 540 0 l 533 138 q 296 -14 471 -14 q 65 228 65 -14 l 65 694 l 346 694 l 346 297 q 363 219 346 242 q 418 196 381 196 q 488 229 463 196 q 513 329 513 263 l 513 694 l 793 694 z "},"ú":{"ha":861,"x_min":65,"x_max":793,"o":"m 793 694 l 793 0 l 540 0 l 533 138 q 296 -14 471 -14 q 65 228 65 -14 l 65 694 l 346 694 l 346 297 q 363 219 346 242 q 418 196 381 196 q 488 229 463 196 q 513 329 513 263 l 513 694 l 793 694 m 646 1019 l 504 776 l 304 776 l 392 1019 l 646 1019 z "},"û":{"ha":861,"x_min":65,"x_max":793,"o":"m 793 694 l 793 0 l 540 0 l 533 138 q 296 -14 471 -14 q 65 228 65 -14 l 65 694 l 346 694 l 346 297 q 363 219 346 242 q 418 196 381 196 q 488 229 463 196 q 513 329 513 263 l 513 694 l 793 694 m 510 767 l 424 876 l 338 767 l 142 767 l 290 1011 l 557 1011 l 706 767 l 510 767 z "},"ü":{"ha":861,"x_min":65,"x_max":793,"o":"m 793 694 l 793 0 l 540 0 l 533 138 q 296 -14 471 -14 q 65 228 65 -14 l 65 694 l 346 694 l 346 297 q 363 219 346 242 q 418 196 381 196 q 488 229 463 196 q 513 329 513 263 l 513 694 l 793 694 m 263 994 q 361 963 326 994 q 396 876 396 932 q 361 789 396 819 q 263 758 326 758 q 167 790 201 758 q 132 876 132 821 q 167 963 132 932 q 263 994 201 994 m 581 994 q 679 963 644 994 q 714 876 714 932 q 679 789 714 819 q 581 758 644 758 q 485 790 519 758 q 450 876 450 821 q 485 963 450 932 q 581 994 519 994 z "},"ù":{"ha":861,"x_min":65,"x_max":793,"o":"m 793 694 l 793 0 l 540 0 l 533 138 q 296 -14 471 -14 q 65 228 65 -14 l 65 694 l 346 694 l 346 297 q 363 219 346 242 q 418 196 381 196 q 488 229 463 196 q 513 329 513 263 l 513 694 l 793 694 m 528 776 l 328 776 l 186 1019 l 440 1019 l 528 776 z "},"ű":{"ha":861,"x_min":65,"x_max":793,"o":"m 793 694 l 793 0 l 540 0 l 533 138 q 296 -14 471 -14 q 65 228 65 -14 l 65 694 l 346 694 l 346 297 q 363 219 346 242 q 418 196 381 196 q 488 229 463 196 q 513 329 513 263 l 513 694 l 793 694 m 347 776 l 158 776 l 251 1019 l 478 1019 l 347 776 m 660 776 l 469 776 l 563 1019 l 790 1019 l 660 776 z "},"ū":{"ha":861,"x_min":65,"x_max":793,"o":"m 793 694 l 793 0 l 540 0 l 533 138 q 296 -14 471 -14 q 65 228 65 -14 l 65 694 l 346 694 l 346 297 q 363 219 346 242 q 418 196 381 196 q 488 229 463 196 q 513 329 513 263 l 513 694 l 793 694 m 688 776 l 160 776 l 160 942 l 688 942 l 688 776 z "},"ģ":{"ha":790,"x_min":21,"x_max":796,"o":"m 499 769 l 275 769 l 374 1069 l 546 1069 l 499 769 m 528 176 q 727 121 658 176 q 796 -46 796 65 q 689 -235 796 -171 q 389 -299 582 -299 q 21 -143 21 -299 q 53 -63 21 -97 q 154 -14 85 -29 q 40 138 40 32 q 72 224 40 186 q 156 282 103 261 q 40 471 40 340 q 132 648 40 588 q 399 708 224 708 q 536 697 472 708 q 597 844 547 785 q 736 903 646 903 q 764 901 754 903 l 790 722 q 744 726 765 726 q 673 710 703 726 q 629 668 643 693 q 757 471 757 608 q 665 296 757 356 q 399 236 574 236 q 253 249 317 236 q 224 215 224 240 q 289 176 224 176 l 528 176 m 399 557 q 341 534 363 557 q 319 472 319 511 q 341 410 319 433 q 399 388 363 388 q 456 410 435 388 q 478 472 478 433 q 456 534 478 511 q 399 557 435 557 m 407 -124 q 581 -74 581 -124 q 514 -42 581 -42 l 322 -42 q 249 -50 269 -42 q 228 -78 228 -58 q 270 -112 228 -101 q 407 -124 313 -124 z "},"ķ":{"ha":890,"x_min":68,"x_max":901,"o":"m 449 263 l 349 146 l 349 0 l 68 0 l 68 981 l 349 981 l 349 426 l 581 694 l 886 694 l 635 422 l 901 0 l 593 0 l 449 263 m 493 -336 l 315 -336 l 354 -76 l 594 -76 l 493 -336 z "},"ļ":{"ha":464,"x_min":67,"x_max":468,"o":"m 347 260 q 361 196 347 215 q 408 176 375 176 q 468 186 439 176 l 453 26 q 383 -3 428 8 q 293 -14 338 -14 q 119 40 172 -14 q 67 218 67 94 l 67 981 l 347 981 l 347 260 m 283 -336 l 106 -336 l 144 -76 l 385 -76 l 283 -336 z "},"ņ":{"ha":861,"x_min":68,"x_max":794,"o":"m 567 708 q 734 646 674 708 q 794 469 794 583 l 794 0 l 514 0 l 514 394 q 496 475 514 451 q 443 499 478 499 q 374 466 399 499 q 349 365 349 433 l 349 0 l 68 0 l 68 694 l 321 694 l 328 551 q 419 668 358 628 q 567 708 481 708 m 461 -336 l 283 -336 l 322 -76 l 563 -76 l 461 -336 z "},"ŗ":{"ha":607,"x_min":53,"x_max":608,"o":"m 535 708 q 608 692 583 708 l 582 460 q 546 475 569 469 q 494 481 522 481 q 389 445 429 481 q 349 342 349 410 l 349 0 l 68 0 l 68 694 l 319 694 l 328 532 q 404 663 353 617 q 535 708 456 708 m 231 -336 l 53 -336 l 92 -76 l 332 -76 l 231 -336 z "},"ş":{"ha":743,"x_min":19,"x_max":719,"o":"m 719 225 q 663 81 719 142 q 496 -3 607 19 q 567 -129 567 -53 q 508 -257 567 -215 q 354 -299 450 -299 q 247 -283 289 -299 q 175 -240 204 -268 l 233 -118 q 335 -158 274 -158 q 390 -141 369 -158 q 411 -93 411 -124 q 392 -47 411 -67 q 326 -12 374 -28 q 147 19 222 -8 q 19 99 71 46 l 151 251 q 240 185 188 208 q 357 163 293 163 q 415 171 393 163 q 438 196 438 179 q 413 223 438 211 q 324 249 388 235 q 103 332 171 278 q 36 472 36 386 q 76 586 36 532 q 195 674 115 640 q 393 708 275 708 q 719 593 619 708 l 593 456 q 404 532 528 532 q 339 522 361 532 q 317 494 317 511 q 341 470 317 481 q 422 450 365 460 q 649 373 579 426 q 719 225 719 319 z "},"ţ":{"ha":617,"x_min":10,"x_max":601,"o":"m 476 -7 q 543 -129 543 -57 q 485 -257 543 -215 q 332 -299 426 -299 q 223 -283 265 -299 q 151 -240 181 -268 l 211 -118 q 307 -158 249 -158 q 366 -141 344 -158 q 388 -92 388 -124 q 367 -41 388 -61 q 299 -6 347 -21 q 167 67 211 13 q 122 222 122 122 l 122 501 l 10 501 l 10 694 l 122 694 l 122 846 l 403 924 l 403 694 l 593 694 l 593 501 l 403 501 l 403 267 q 424 197 403 218 q 490 176 446 176 q 583 200 543 176 l 601 36 q 476 -7 556 7 z "},"ș":{"ha":743,"x_min":19,"x_max":719,"o":"m 374 -14 q 163 13 250 -14 q 19 99 76 39 l 151 251 q 240 185 188 208 q 357 163 293 163 q 415 171 393 163 q 438 196 438 179 q 413 223 438 211 q 324 249 388 235 q 103 332 171 278 q 36 472 36 386 q 76 586 36 532 q 195 674 115 640 q 393 708 275 708 q 719 593 619 708 l 593 456 q 404 532 528 532 q 339 522 361 532 q 317 494 317 511 q 341 470 317 481 q 422 450 365 460 q 649 373 579 426 q 719 225 719 319 q 632 53 719 121 q 374 -14 544 -14 m 411 -336 l 233 -336 l 272 -76 l 513 -76 l 411 -336 z "},"ț":{"ha":611,"x_min":10,"x_max":601,"o":"m 601 36 q 511 0 568 14 q 400 -14 454 -14 q 192 42 261 -14 q 122 222 122 97 l 122 501 l 10 501 l 10 694 l 122 694 l 122 846 l 403 924 l 403 694 l 593 694 l 593 501 l 403 501 l 403 267 q 424 197 403 218 q 490 176 446 176 q 583 200 543 176 l 601 36 m 381 -336 l 203 -336 l 242 -76 l 482 -76 l 381 -336 z "},"ų":{"ha":861,"x_min":65,"x_max":799,"o":"m 799 -264 q 732 -291 769 -283 q 644 -299 694 -299 q 501 -258 556 -299 q 446 -140 446 -218 q 471 -56 446 -92 q 542 3 496 -19 l 533 143 q 440 26 501 65 q 296 -14 379 -14 q 65 228 65 -14 l 65 694 l 346 694 l 346 297 q 363 219 346 242 q 418 196 381 196 q 487 231 461 196 q 513 331 513 265 l 513 694 l 793 694 l 793 0 q 677 -33 718 -8 q 636 -92 636 -58 q 654 -133 636 -118 q 704 -147 672 -147 q 764 -135 744 -147 l 799 -264 z "},"ů":{"ha":861,"x_min":65,"x_max":793,"o":"m 793 694 l 793 0 l 540 0 l 533 138 q 296 -14 471 -14 q 65 228 65 -14 l 65 694 l 346 694 l 346 297 q 363 219 346 242 q 418 196 381 196 q 488 229 463 196 q 513 329 513 263 l 513 694 l 793 694 m 425 1093 q 567 1048 517 1093 q 617 924 617 1003 q 567 798 617 843 q 425 753 517 753 q 284 798 335 753 q 233 924 233 843 q 284 1048 233 1003 q 425 1093 335 1093 m 425 985 q 379 969 396 985 q 363 924 363 953 q 379 878 363 894 q 425 861 396 861 q 472 878 454 861 q 489 924 489 894 q 472 969 489 953 q 425 985 454 985 z "},"v":{"ha":799,"x_min":-8,"x_max":807,"o":"m 807 694 l 571 0 l 228 0 l -8 694 l 285 694 l 400 174 l 517 694 l 807 694 z "},"w":{"ha":1286,"x_min":0,"x_max":1286,"o":"m 1286 694 l 1088 0 l 744 0 l 642 394 l 542 0 l 199 0 l 0 694 l 292 694 l 388 193 l 506 694 l 781 694 l 899 193 l 994 694 l 1286 694 z "},"x":{"ha":846,"x_min":-6,"x_max":850,"o":"m 538 0 l 419 228 l 303 0 l -6 0 l 240 353 l 3 694 l 315 694 l 425 478 l 538 694 l 844 694 l 607 349 l 850 0 l 538 0 z "},"y":{"ha":810,"x_min":-1,"x_max":817,"o":"m 590 42 q 496 -158 547 -85 q 374 -265 444 -232 q 201 -299 303 -299 q -1 -250 76 -299 l 53 -69 q 102 -92 75 -85 q 175 -99 129 -99 q 242 -87 218 -99 q 276 -47 265 -76 l 286 -21 l 201 176 l -1 694 l 307 694 l 390 318 l 419 164 l 453 322 l 540 694 l 817 694 l 590 42 z "},"ý":{"ha":810,"x_min":-1,"x_max":817,"o":"m 590 42 q 496 -158 547 -85 q 374 -265 444 -232 q 201 -299 303 -299 q -1 -250 76 -299 l 53 -69 q 102 -92 75 -85 q 175 -99 129 -99 q 242 -87 218 -99 q 276 -47 265 -76 l 286 -21 l 201 176 l -1 694 l 307 694 l 390 318 l 419 164 l 453 322 l 540 694 l 817 694 l 590 42 m 658 1019 l 517 776 l 317 776 l 404 1019 l 658 1019 z "},"ÿ":{"ha":810,"x_min":-1,"x_max":817,"o":"m 590 42 q 496 -158 547 -85 q 374 -265 444 -232 q 201 -299 303 -299 q -1 -250 76 -299 l 53 -69 q 102 -92 75 -85 q 175 -99 129 -99 q 242 -87 218 -99 q 276 -47 265 -76 l 286 -21 l 201 176 l -1 694 l 307 694 l 390 318 l 419 164 l 453 322 l 540 694 l 817 694 l 590 42 m 275 994 q 374 963 339 994 q 408 876 408 932 q 374 789 408 819 q 275 758 339 758 q 179 790 214 758 q 144 876 144 821 q 179 963 144 932 q 275 994 214 994 m 593 994 q 692 963 657 994 q 726 876 726 932 q 692 789 726 819 q 593 758 657 758 q 497 790 532 758 q 463 876 463 821 q 497 963 463 932 q 593 994 532 994 z "},"z":{"ha":706,"x_min":40,"x_max":676,"o":"m 40 165 l 283 439 l 353 507 l 247 504 l 40 504 l 40 694 l 664 694 l 664 529 l 422 258 l 351 188 l 469 190 l 676 190 l 676 0 l 40 0 l 40 165 z "},"ź":{"ha":706,"x_min":40,"x_max":676,"o":"m 40 165 l 283 439 l 353 507 l 247 504 l 40 504 l 40 694 l 664 694 l 664 529 l 422 258 l 351 188 l 469 190 l 676 190 l 676 0 l 40 0 l 40 165 m 572 1019 l 431 776 l 231 776 l 318 1019 l 572 1019 z "},"ž":{"ha":706,"x_min":40,"x_max":676,"o":"m 40 165 l 283 439 l 353 507 l 247 504 l 40 504 l 40 694 l 664 694 l 664 529 l 422 258 l 351 188 l 469 190 l 676 190 l 676 0 l 40 0 l 40 165 m 476 776 l 210 776 l 61 1019 l 257 1019 l 343 910 l 429 1019 l 625 1019 l 476 776 z "},"ż":{"ha":706,"x_min":40,"x_max":676,"o":"m 40 165 l 283 439 l 353 507 l 247 504 l 40 504 l 40 694 l 664 694 l 664 529 l 422 258 l 351 188 l 469 190 l 676 190 l 676 0 l 40 0 l 40 165 m 350 1006 q 459 974 422 1006 q 496 883 496 943 q 459 793 496 824 q 350 763 422 763 q 208 883 208 763 q 350 1006 208 1006 z "},"ﬁ":{"ha":1004,"x_min":11,"x_max":953,"o":"m 376 694 l 579 694 l 579 501 l 394 501 l 394 0 l 114 0 l 114 501 l 11 501 l 11 694 l 114 694 l 114 739 q 199 940 114 875 q 414 1004 283 1004 q 517 993 472 1004 q 588 961 563 982 l 565 793 q 486 815 538 815 q 404 794 432 815 q 376 724 376 772 l 376 694 m 796 756 q 675 785 711 756 q 639 879 639 814 q 675 975 639 946 q 796 1004 711 1004 q 917 975 881 1004 q 953 879 953 946 q 917 785 953 814 q 796 756 881 756 m 936 0 l 656 0 l 656 694 l 936 694 l 936 0 z "},"ﬂ":{"ha":1053,"x_min":11,"x_max":1056,"o":"m 376 694 l 579 694 l 579 501 l 394 501 l 394 0 l 114 0 l 114 501 l 11 501 l 11 694 l 114 694 l 114 739 q 199 940 114 875 q 414 1004 283 1004 q 517 993 472 1004 q 588 961 563 982 l 565 793 q 486 815 538 815 q 404 794 432 815 q 376 724 376 772 l 376 694 m 935 260 q 949 196 935 215 q 996 176 963 176 q 1056 186 1026 176 l 1040 26 q 970 -3 1015 8 q 881 -14 925 -14 q 707 40 760 -14 q 654 218 654 94 l 654 981 l 935 981 l 935 260 z "},"ª":{"ha":636,"x_min":35,"x_max":596,"o":"m 331 710 l 331 728 q 316 769 331 754 q 275 785 301 785 q 208 718 215 785 l 40 750 q 112 874 50 831 q 286 918 174 918 q 473 869 413 918 q 533 721 533 821 l 533 575 q 543 544 533 554 q 569 533 553 533 q 596 538 588 533 l 581 433 q 496 415 549 415 q 410 435 444 415 q 365 494 376 456 q 297 436 342 457 q 188 415 251 415 q 35 531 35 415 q 79 630 35 593 q 226 688 124 667 l 331 710 m 271 529 q 313 544 296 529 q 331 586 331 558 l 331 635 l 285 622 q 228 567 228 607 q 271 529 228 529 m 51 325 l 581 325 l 581 185 l 51 185 l 51 325 z "},"º":{"ha":618,"x_min":44,"x_max":574,"o":"m 308 415 q 115 482 185 415 q 44 667 44 549 q 115 851 44 785 q 308 918 185 918 q 503 851 432 918 q 574 667 574 785 q 503 482 574 549 q 308 415 432 415 m 308 542 q 356 570 342 542 q 369 667 369 599 q 356 763 369 733 q 308 792 342 792 q 262 763 276 792 q 247 667 247 733 q 262 571 247 600 q 308 542 276 542 m 50 325 l 568 325 l 568 185 l 50 185 l 50 325 z "},"π":{"ha":1122,"x_min":24,"x_max":1082,"o":"m 908 506 l 908 279 q 1010 176 908 176 q 1036 178 1026 176 l 1014 -6 q 922 -10 964 -10 q 745 16 810 -10 q 654 92 681 42 q 628 219 628 142 l 628 506 l 468 506 l 468 0 l 188 0 l 188 506 l 24 506 l 24 694 l 1082 694 l 1082 506 l 908 506 z "},"⁄":{"ha":372,"x_min":-237,"x_max":610,"o":"m 424 918 l 610 918 l -51 0 l -237 0 l 424 918 z "},"½":{"ha":1372,"x_min":31,"x_max":1344,"o":"m 389 924 l 389 372 l 193 372 l 193 656 q 197 742 193 690 q 31 678 111 682 l 31 839 q 140 871 79 844 q 222 924 200 897 l 389 924 m 865 918 l 1051 918 l 390 0 l 204 0 l 865 918 m 849 117 q 971 182 910 144 q 1131 354 1131 279 q 1118 390 1131 376 q 1081 403 1106 403 q 1022 306 1018 403 l 829 354 q 899 501 831 450 q 1085 553 967 553 q 1277 499 1215 553 q 1339 371 1339 446 q 1228 201 1339 274 q 1108 146 1182 169 l 1108 143 q 1250 149 1175 149 l 1344 149 l 1344 -6 l 849 -6 l 849 117 z "},"¼":{"ha":1276,"x_min":31,"x_max":1257,"o":"m 389 924 l 389 372 l 193 372 l 193 656 q 197 742 193 690 q 31 678 111 682 l 31 839 q 140 871 79 844 q 222 924 200 897 l 389 924 m 865 918 l 1051 918 l 390 0 l 204 0 l 865 918 m 1257 104 l 1179 104 l 1179 -6 l 1006 -6 l 1006 104 l 725 104 l 725 193 l 940 547 l 1179 547 l 1179 235 l 1257 235 l 1257 104 m 1006 235 l 1006 324 q 1008 406 1006 353 l 1010 438 l 1006 438 q 964 351 989 392 l 892 235 l 1006 235 z "},"¾":{"ha":1371,"x_min":6,"x_max":1350,"o":"m 264 931 q 436 890 376 931 q 496 771 496 849 q 465 686 496 718 q 378 650 433 654 l 378 644 q 474 615 442 644 q 507 531 507 586 q 445 409 507 454 q 275 364 383 364 q 98 397 164 364 q 6 507 32 431 l 189 572 q 257 503 189 503 q 298 516 283 503 q 313 551 313 529 q 299 582 313 572 q 257 592 286 592 l 226 592 l 226 689 l 251 689 q 304 736 304 689 q 256 782 304 782 q 193 715 199 782 l 17 771 q 96 892 29 853 q 264 931 163 931 m 960 918 l 1146 918 l 485 0 l 299 0 l 960 918 m 1350 104 l 1272 104 l 1272 -6 l 1099 -6 l 1099 104 l 818 104 l 818 193 l 1033 547 l 1272 547 l 1272 235 l 1350 235 l 1350 104 m 1099 235 l 1099 324 q 1101 406 1099 353 l 1103 438 l 1099 438 q 1057 351 1082 392 l 985 235 l 1099 235 z "},"➀":{"ha":1264,"x_min":100,"x_max":1164,"o":"m 632 -56 q 354 9 475 -56 q 167 190 233 74 q 100 458 100 307 q 167 726 100 610 q 354 908 233 843 q 632 972 475 972 q 910 908 789 972 q 1097 726 1031 843 q 1164 458 1164 610 q 1097 190 1164 307 q 910 9 1031 74 q 632 -56 789 -56 m 632 63 q 840 112 750 63 q 979 251 929 161 q 1029 458 1029 342 q 979 665 1029 575 q 840 805 929 756 q 632 854 750 854 q 424 805 514 854 q 285 665 335 756 q 235 458 235 575 q 285 251 235 342 q 424 112 335 161 q 632 63 514 63 m 771 740 l 771 189 l 575 189 l 575 472 q 579 558 575 524 q 413 494 493 499 l 413 656 q 522 688 461 661 q 604 740 582 714 l 771 740 z "},"➁":{"ha":1264,"x_min":100,"x_max":1164,"o":"m 632 -56 q 354 9 475 -56 q 167 190 233 74 q 100 458 100 307 q 167 726 100 610 q 354 908 233 843 q 632 972 475 972 q 910 908 789 972 q 1097 726 1031 843 q 1164 458 1164 610 q 1097 190 1164 307 q 910 9 1031 74 q 632 -56 789 -56 m 632 63 q 840 112 750 63 q 979 251 929 161 q 1029 458 1029 342 q 979 665 1029 575 q 840 805 929 756 q 632 854 750 854 q 424 805 514 854 q 285 665 335 756 q 235 458 235 575 q 285 251 235 342 q 424 112 335 161 q 632 63 514 63 m 386 324 q 508 389 447 351 q 668 561 668 486 q 656 597 668 583 q 618 610 643 610 q 560 513 556 610 l 367 561 q 436 708 368 657 q 622 760 504 760 q 815 706 753 760 q 876 578 876 653 q 765 408 876 481 q 646 353 719 376 l 646 350 q 788 356 713 356 l 882 356 l 882 201 l 386 201 l 386 324 z "},"➂":{"ha":1264,"x_min":100,"x_max":1164,"o":"m 632 -56 q 354 9 475 -56 q 167 190 233 74 q 100 458 100 307 q 167 726 100 610 q 354 908 233 843 q 632 972 475 972 q 910 908 789 972 q 1097 726 1031 843 q 1164 458 1164 610 q 1097 190 1164 307 q 910 9 1031 74 q 632 -56 789 -56 m 632 63 q 840 112 750 63 q 979 251 929 161 q 1029 458 1029 342 q 979 665 1029 575 q 840 805 929 756 q 632 854 750 854 q 424 805 514 854 q 285 665 335 756 q 235 458 235 575 q 285 251 235 342 q 424 112 335 161 q 632 63 514 63 m 638 743 q 810 702 750 743 q 869 583 869 661 q 838 499 869 531 q 751 463 807 467 l 751 457 q 848 428 815 457 q 881 343 881 399 q 819 222 881 267 q 649 176 757 176 q 472 210 538 176 q 379 319 406 243 l 563 385 q 631 315 563 315 q 672 328 657 315 q 686 364 686 342 q 673 394 686 385 q 631 404 660 404 l 600 404 l 600 501 l 625 501 q 678 549 678 501 q 629 594 678 594 q 567 528 572 594 l 390 583 q 469 704 403 665 q 638 743 536 743 z "},"➃":{"ha":1264,"x_min":100,"x_max":1164,"o":"m 632 -56 q 354 9 475 -56 q 167 190 233 74 q 100 458 100 307 q 167 726 100 610 q 354 908 233 843 q 632 972 475 972 q 910 908 789 972 q 1097 726 1031 843 q 1164 458 1164 610 q 1097 190 1164 307 q 910 9 1031 74 q 632 -56 789 -56 m 632 63 q 840 112 750 63 q 979 251 929 161 q 1029 458 1029 342 q 979 665 1029 575 q 840 805 929 756 q 632 854 750 854 q 424 805 514 854 q 285 665 335 756 q 235 458 235 575 q 285 251 235 342 q 424 112 335 161 q 632 63 514 63 m 865 299 l 788 299 l 788 189 l 614 189 l 614 299 l 333 299 l 333 388 l 549 742 l 788 742 l 788 429 l 865 429 l 865 299 m 614 429 l 614 518 q 617 600 614 547 l 618 632 l 614 632 q 572 546 597 586 l 500 429 l 614 429 z "},"➄":{"ha":1264,"x_min":100,"x_max":1164,"o":"m 632 -56 q 354 9 475 -56 q 167 190 233 74 q 100 458 100 307 q 167 726 100 610 q 354 908 233 843 q 632 972 475 972 q 910 908 789 972 q 1097 726 1031 843 q 1164 458 1164 610 q 1097 190 1164 307 q 910 9 1031 74 q 632 -56 789 -56 m 632 63 q 840 112 750 63 q 979 251 929 161 q 1029 458 1029 342 q 979 665 1029 575 q 840 805 929 756 q 632 854 750 854 q 424 805 514 854 q 285 665 335 756 q 235 458 235 575 q 285 251 235 342 q 424 112 335 161 q 632 63 514 63 m 692 528 q 828 485 783 528 q 872 361 872 442 q 805 215 872 263 q 629 167 738 167 q 474 190 535 167 q 378 276 413 214 l 556 351 q 580 316 564 328 q 625 304 596 304 q 669 318 653 304 q 686 358 686 332 q 670 394 686 381 q 626 407 654 407 q 587 401 601 407 q 561 383 572 396 l 400 401 l 436 726 l 851 726 l 851 582 l 583 582 l 579 536 q 569 503 578 517 l 571 503 q 692 528 600 528 z "},"➅":{"ha":1264,"x_min":100,"x_max":1164,"o":"m 632 -56 q 354 9 475 -56 q 167 190 233 74 q 100 458 100 307 q 167 726 100 610 q 354 908 233 843 q 632 972 475 972 q 910 908 789 972 q 1097 726 1031 843 q 1164 458 1164 610 q 1097 190 1164 307 q 910 9 1031 74 q 632 -56 789 -56 m 632 63 q 840 112 750 63 q 979 251 929 161 q 1029 458 1029 342 q 979 665 1029 575 q 840 805 929 756 q 632 854 750 854 q 424 805 514 854 q 285 665 335 756 q 235 458 235 575 q 285 251 235 342 q 424 112 335 161 q 632 63 514 63 m 628 172 q 431 242 499 172 q 363 456 363 313 q 440 667 363 594 q 643 739 517 739 q 787 711 729 739 q 874 617 844 683 l 722 546 q 696 585 715 571 q 647 600 676 600 q 576 567 603 600 q 550 478 550 533 q 551 463 550 467 l 553 463 q 696 518 596 518 q 827 477 776 518 q 878 350 878 436 q 813 219 878 265 q 628 172 749 172 m 632 308 q 677 321 661 308 q 693 357 693 333 q 633 406 693 406 q 588 393 604 406 q 572 357 572 381 q 632 308 572 308 z "},"➆":{"ha":1264,"x_min":100,"x_max":1164,"o":"m 632 -56 q 354 9 475 -56 q 167 190 233 74 q 100 458 100 307 q 167 726 100 610 q 354 908 233 843 q 632 972 475 972 q 910 908 789 972 q 1097 726 1031 843 q 1164 458 1164 610 q 1097 190 1164 307 q 910 9 1031 74 q 632 -56 789 -56 m 632 63 q 840 112 750 63 q 979 251 929 161 q 1029 458 1029 342 q 979 665 1029 575 q 840 805 929 756 q 632 854 750 854 q 424 805 514 854 q 285 665 335 756 q 235 458 235 575 q 285 251 235 342 q 424 112 335 161 q 632 63 514 63 m 879 717 l 879 596 q 753 404 789 513 q 718 165 718 296 l 518 165 q 558 377 518 272 q 672 561 599 482 l 394 561 l 394 717 l 879 717 z "},"➇":{"ha":1264,"x_min":100,"x_max":1164,"o":"m 632 -56 q 354 9 475 -56 q 167 190 233 74 q 100 458 100 307 q 167 726 100 610 q 354 908 233 843 q 632 972 475 972 q 910 908 789 972 q 1097 726 1031 843 q 1164 458 1164 610 q 1097 190 1164 307 q 910 9 1031 74 q 632 -56 789 -56 m 632 63 q 840 112 750 63 q 979 251 929 161 q 1029 458 1029 342 q 979 665 1029 575 q 840 805 929 756 q 632 854 750 854 q 424 805 514 854 q 285 665 335 756 q 235 458 235 575 q 285 251 235 342 q 424 112 335 161 q 632 63 514 63 m 632 744 q 810 700 744 744 q 876 581 876 656 q 852 508 876 539 q 779 461 828 476 l 779 460 q 890 339 890 432 q 822 220 890 263 q 632 178 754 178 q 444 220 511 178 q 376 339 376 263 q 403 415 376 385 q 485 460 431 446 l 485 461 q 414 506 439 475 q 389 581 389 538 q 455 700 389 656 q 632 744 521 744 m 633 624 q 589 610 604 624 q 574 574 574 597 q 633 525 574 525 q 693 574 693 525 q 678 610 693 597 q 633 624 663 624 m 633 299 q 680 312 664 299 q 696 350 696 325 q 680 387 696 374 q 633 400 664 400 q 586 387 603 400 q 569 350 569 374 q 586 312 569 325 q 633 299 603 299 z "},"➈":{"ha":1264,"x_min":100,"x_max":1164,"o":"m 632 -56 q 354 9 475 -56 q 167 190 233 74 q 100 458 100 307 q 167 726 100 610 q 354 908 233 843 q 632 972 475 972 q 910 908 789 972 q 1097 726 1031 843 q 1164 458 1164 610 q 1097 190 1164 307 q 910 9 1031 74 q 632 -56 789 -56 m 632 63 q 840 112 750 63 q 979 251 929 161 q 1029 458 1029 342 q 979 665 1029 575 q 840 805 929 756 q 632 854 750 854 q 424 805 514 854 q 285 665 335 756 q 235 458 235 575 q 285 251 235 342 q 424 112 335 161 q 632 63 514 63 m 639 740 q 838 669 768 740 q 908 457 908 599 q 832 242 908 311 q 625 174 756 174 q 479 203 536 174 q 401 308 422 233 l 568 358 q 587 323 571 333 q 636 313 603 313 q 719 422 719 313 l 719 439 l 718 439 q 670 399 703 414 q 593 385 638 385 q 446 433 503 385 q 389 558 389 482 q 456 693 389 646 q 639 740 524 740 m 639 606 q 581 556 581 606 q 639 508 581 508 q 699 556 699 508 q 683 592 699 579 q 639 606 668 606 z "},"₀":{"ha":582,"x_min":29,"x_max":553,"o":"m 290 -271 q 93 -201 157 -271 q 29 13 29 -132 q 93 226 29 157 q 290 296 157 296 q 489 226 425 296 q 553 13 553 157 q 489 -201 553 -132 q 290 -271 425 -271 m 290 -133 q 341 -101 326 -133 q 356 13 356 -69 q 341 126 356 94 q 290 158 326 158 q 240 126 254 158 q 226 13 226 94 q 240 -101 226 -69 q 290 -133 254 -133 z "},"₁":{"ha":442,"x_min":31,"x_max":389,"o":"m 389 289 l 389 -262 l 193 -262 l 193 21 q 197 107 193 72 q 31 43 111 47 l 31 204 q 140 236 79 210 q 222 289 200 263 l 389 289 z "},"₂":{"ha":558,"x_min":15,"x_max":531,"o":"m 35 -140 q 157 -75 96 -112 q 317 97 317 22 q 304 133 317 119 q 267 146 292 146 q 208 49 204 146 l 15 97 q 85 244 17 193 q 271 296 153 296 q 463 242 401 296 q 525 114 525 189 q 414 -56 525 17 q 294 -111 368 -87 l 294 -114 q 436 -108 361 -108 l 531 -108 l 531 -262 l 35 -262 l 35 -140 z "},"₃":{"ha":536,"x_min":6,"x_max":507,"o":"m 264 296 q 436 255 376 296 q 496 136 496 214 q 465 51 496 83 q 378 15 433 19 l 378 10 q 474 -19 442 10 q 507 -104 507 -49 q 445 -226 507 -181 q 275 -271 383 -271 q 98 -237 164 -271 q 6 -128 32 -204 l 189 -62 q 257 -132 189 -132 q 298 -119 283 -132 q 313 -83 313 -106 q 299 -53 313 -62 q 257 -43 286 -43 l 226 -43 l 226 54 l 251 54 q 304 101 304 54 q 256 147 304 147 q 193 81 199 147 l 17 136 q 96 257 29 218 q 264 296 163 296 z "},"₄":{"ha":567,"x_min":15,"x_max":547,"o":"m 547 -153 l 469 -153 l 469 -262 l 296 -262 l 296 -153 l 15 -153 l 15 -64 l 231 290 l 469 290 l 469 -22 l 547 -22 l 547 -153 m 296 -22 l 296 67 q 299 149 296 96 l 300 181 l 296 181 q 254 94 279 135 l 182 -22 l 296 -22 z "},"₅":{"ha":547,"x_min":14,"x_max":508,"o":"m 328 90 q 464 47 419 90 q 508 -76 508 4 q 441 -223 508 -175 q 265 -271 374 -271 q 110 -247 171 -271 q 14 -161 49 -224 l 192 -86 q 216 -122 200 -110 q 261 -133 232 -133 q 306 -119 289 -133 q 322 -79 322 -106 q 306 -44 322 -57 q 263 -31 290 -31 q 223 -36 238 -31 q 197 -54 208 -42 l 36 -36 l 72 289 l 488 289 l 488 144 l 219 144 l 215 99 q 206 65 214 79 l 207 65 q 328 90 236 90 z "},"₆":{"ha":572,"x_min":33,"x_max":549,"o":"m 299 -271 q 101 -201 169 -271 q 33 13 33 -131 q 110 224 33 151 q 314 296 188 296 q 458 268 400 296 q 544 174 515 240 l 393 103 q 367 142 386 128 q 318 157 347 157 q 247 124 274 157 q 221 35 221 90 q 222 19 221 24 l 224 19 q 367 75 267 75 q 498 34 447 75 q 549 -93 549 -7 q 484 -224 549 -178 q 299 -271 419 -271 m 303 -135 q 348 -122 332 -135 q 364 -86 364 -110 q 304 -37 364 -37 q 259 -50 275 -37 q 243 -86 243 -62 q 303 -135 243 -135 z "},"₇":{"ha":514,"x_min":17,"x_max":501,"o":"m 501 289 l 501 168 q 376 -24 411 85 q 340 -262 340 -132 l 140 -262 q 181 -51 140 -156 q 294 133 221 54 l 17 133 l 17 289 l 501 289 z "},"₈":{"ha":594,"x_min":40,"x_max":554,"o":"m 296 296 q 474 251 408 296 q 540 132 540 207 q 516 59 540 90 q 443 13 492 28 l 443 11 q 554 -110 554 -17 q 486 -228 554 -186 q 296 -271 418 -271 q 108 -228 175 -271 q 40 -110 40 -186 q 67 -33 40 -64 q 149 11 94 -3 l 149 13 q 78 58 103 26 q 53 132 53 89 q 119 251 53 207 q 296 296 185 296 m 297 175 q 253 162 268 175 q 238 125 238 149 q 297 76 238 76 q 357 125 357 76 q 342 162 357 149 q 297 175 326 175 m 297 -150 q 344 -137 328 -150 q 360 -99 360 -124 q 344 -62 360 -75 q 297 -49 328 -49 q 250 -62 267 -49 q 233 -99 233 -75 q 250 -137 233 -124 q 297 -150 267 -150 z "},"₉":{"ha":579,"x_min":26,"x_max":546,"o":"m 276 296 q 476 225 406 296 q 546 13 546 154 q 469 -202 546 -133 q 263 -271 393 -271 q 117 -241 174 -271 q 39 -136 60 -211 l 206 -86 q 224 -122 208 -111 q 274 -132 240 -132 q 357 -22 357 -132 l 357 -6 l 356 -6 q 308 -45 340 -31 q 231 -60 275 -60 q 83 -11 140 -60 q 26 114 26 38 q 94 249 26 201 q 276 296 161 296 m 276 161 q 218 111 218 161 q 276 64 218 64 q 336 111 336 64 q 321 148 336 135 q 276 161 306 161 z "},"⁰":{"ha":582,"x_min":29,"x_max":553,"o":"m 290 454 q 93 524 157 454 q 29 738 29 593 q 93 951 29 882 q 290 1021 157 1021 q 489 951 425 1021 q 553 738 553 882 q 489 524 553 593 q 290 454 425 454 m 290 592 q 341 624 326 592 q 356 738 356 656 q 341 851 356 819 q 290 883 326 883 q 240 851 254 883 q 226 738 226 819 q 240 624 226 656 q 290 592 254 592 z "},"¹":{"ha":442,"x_min":31,"x_max":389,"o":"m 389 1014 l 389 463 l 193 463 l 193 746 q 197 832 193 797 q 31 768 111 772 l 31 929 q 140 961 79 935 q 222 1014 200 988 l 389 1014 z "},"²":{"ha":558,"x_min":15,"x_max":531,"o":"m 35 585 q 157 650 96 613 q 317 822 317 747 q 304 858 317 844 q 267 871 292 871 q 208 774 204 871 l 15 822 q 85 969 17 918 q 271 1021 153 1021 q 463 967 401 1021 q 525 839 525 914 q 414 669 525 742 q 294 614 368 638 l 294 611 q 436 617 361 617 l 531 617 l 531 463 l 35 463 l 35 585 z "},"³":{"ha":536,"x_min":6,"x_max":507,"o":"m 264 1021 q 436 980 376 1021 q 496 861 496 939 q 465 776 496 808 q 378 740 433 744 l 378 735 q 474 706 442 735 q 507 621 507 676 q 445 499 507 544 q 275 454 383 454 q 98 488 164 454 q 6 597 32 521 l 189 663 q 257 593 189 593 q 298 606 283 593 q 313 642 313 619 q 299 672 313 663 q 257 682 286 682 l 226 682 l 226 779 l 251 779 q 304 826 304 779 q 256 872 304 872 q 193 806 199 872 l 17 861 q 96 982 29 943 q 264 1021 163 1021 z "},"⁴":{"ha":567,"x_min":15,"x_max":547,"o":"m 547 572 l 469 572 l 469 463 l 296 463 l 296 572 l 15 572 l 15 661 l 231 1015 l 469 1015 l 469 703 l 547 703 l 547 572 m 296 703 l 296 792 q 299 874 296 821 l 300 906 l 296 906 q 254 819 279 860 l 182 703 l 296 703 z "},"⁵":{"ha":547,"x_min":14,"x_max":508,"o":"m 328 815 q 464 772 419 815 q 508 649 508 729 q 441 502 508 550 q 265 454 374 454 q 110 478 171 454 q 14 564 49 501 l 192 639 q 216 603 200 615 q 261 592 232 592 q 306 606 289 592 q 322 646 322 619 q 306 681 322 668 q 263 694 290 694 q 223 689 238 694 q 197 671 208 683 l 36 689 l 72 1014 l 488 1014 l 488 869 l 219 869 l 215 824 q 206 790 214 804 l 207 790 q 328 815 236 815 z "},"⁶":{"ha":572,"x_min":33,"x_max":549,"o":"m 299 454 q 101 524 169 454 q 33 738 33 594 q 110 949 33 876 q 314 1021 188 1021 q 458 993 400 1021 q 544 899 515 965 l 393 828 q 367 867 386 853 q 318 882 347 882 q 247 849 274 882 q 221 760 221 815 q 222 744 221 749 l 224 744 q 367 800 267 800 q 498 759 447 800 q 549 632 549 718 q 484 501 549 547 q 299 454 419 454 m 303 590 q 348 603 332 590 q 364 639 364 615 q 304 688 364 688 q 259 675 275 688 q 243 639 243 663 q 303 590 243 590 z "},"⁷":{"ha":514,"x_min":17,"x_max":501,"o":"m 501 1014 l 501 893 q 376 701 411 810 q 340 463 340 593 l 140 463 q 181 674 140 569 q 294 858 221 779 l 17 858 l 17 1014 l 501 1014 z "},"⁸":{"ha":594,"x_min":40,"x_max":554,"o":"m 296 1021 q 474 976 408 1021 q 540 857 540 932 q 516 784 540 815 q 443 738 492 753 l 443 736 q 554 615 554 708 q 486 497 554 539 q 296 454 418 454 q 108 497 175 454 q 40 615 40 539 q 67 692 40 661 q 149 736 94 722 l 149 738 q 78 783 103 751 q 53 857 53 814 q 119 976 53 932 q 296 1021 185 1021 m 297 900 q 253 887 268 900 q 238 850 238 874 q 297 801 238 801 q 357 850 357 801 q 342 887 357 874 q 297 900 326 900 m 297 575 q 344 588 328 575 q 360 626 360 601 q 344 663 360 650 q 297 676 328 676 q 250 663 267 676 q 233 626 233 650 q 250 588 233 601 q 297 575 267 575 z "},"⁹":{"ha":579,"x_min":26,"x_max":546,"o":"m 276 1021 q 476 950 406 1021 q 546 738 546 879 q 469 523 546 592 q 263 454 393 454 q 117 484 174 454 q 39 589 60 514 l 206 639 q 224 603 208 614 q 274 593 240 593 q 357 703 357 593 l 357 719 l 356 719 q 308 680 340 694 q 231 665 275 665 q 83 714 140 665 q 26 839 26 763 q 94 974 26 926 q 276 1021 161 1021 m 276 886 q 218 836 218 886 q 276 789 218 789 q 336 836 336 789 q 321 873 336 860 q 276 886 306 886 z "},"*":{"ha":825,"x_min":46,"x_max":778,"o":"m 578 589 l 699 433 l 540 318 l 429 482 l 413 522 l 394 482 l 283 318 l 125 433 l 247 589 l 279 618 l 236 622 l 46 676 l 107 864 l 293 796 l 331 774 l 321 817 l 314 1014 l 510 1014 l 503 817 l 493 774 l 531 796 l 718 864 l 778 676 l 588 622 l 544 618 l 578 589 z "},"\\":{"ha":665,"x_min":14,"x_max":651,"o":"m 275 981 l 651 -97 l 390 -97 l 14 981 l 275 981 z "},"·":{"ha":404,"x_min":46,"x_max":358,"o":"m 203 628 q 317 591 276 628 q 358 490 358 554 q 317 388 358 425 q 203 351 276 351 q 88 388 129 351 q 46 490 46 425 q 88 592 46 556 q 203 628 129 628 z "},"•":{"ha":597,"x_min":71,"x_max":526,"o":"m 299 681 q 466 622 406 681 q 526 460 526 564 q 466 299 526 357 q 299 240 406 240 q 131 299 192 240 q 71 460 71 357 q 131 622 71 564 q 299 681 192 681 z "},":":{"ha":422,"x_min":56,"x_max":367,"o":"m 211 708 q 326 672 285 708 q 367 571 367 636 q 326 469 367 506 q 211 433 285 433 q 97 469 138 433 q 56 571 56 506 q 97 672 56 635 q 211 708 138 708 m 211 264 q 326 228 285 264 q 367 126 367 192 q 326 25 367 61 q 211 -11 285 -11 q 97 25 138 -11 q 56 126 56 61 q 97 227 56 190 q 211 264 138 264 z "},",":{"ha":415,"x_min":40,"x_max":368,"o":"m 201 264 q 326 210 283 264 q 368 71 368 156 q 315 -105 368 -26 q 160 -225 261 -183 l 40 -146 q 158 -80 111 -117 q 225 6 206 -43 l 219 11 q 175 -7 201 -7 q 85 26 124 -7 q 46 121 46 60 q 88 228 46 192 q 201 264 129 264 z "},"…":{"ha":1303,"x_min":57,"x_max":1246,"o":"m 1090 264 q 1205 228 1164 264 q 1246 126 1246 192 q 1205 25 1246 61 q 1090 -11 1164 -11 q 976 25 1017 -11 q 935 126 935 61 q 976 227 935 190 q 1090 264 1017 264 m 651 264 q 766 228 725 264 q 807 126 807 192 q 766 25 807 61 q 651 -11 725 -11 q 537 25 578 -11 q 496 126 496 61 q 537 227 496 190 q 651 264 578 264 m 213 264 q 327 228 286 264 q 368 126 368 192 q 327 25 368 61 q 213 -11 286 -11 q 98 25 139 -11 q 57 126 57 61 q 98 227 57 190 q 213 264 139 264 z "},"!":{"ha":433,"x_min":67,"x_max":365,"o":"m 363 657 l 332 303 l 100 303 l 69 657 l 69 917 l 363 917 l 363 657 m 217 240 q 326 208 286 240 q 365 115 365 175 q 326 22 365 56 q 217 -11 286 -11 q 106 22 146 -11 q 67 115 67 56 q 106 208 67 175 q 217 240 146 240 z "},"¡":{"ha":431,"x_min":67,"x_max":365,"o":"m 217 454 q 106 487 146 454 q 67 579 67 519 q 106 672 67 639 q 217 706 146 706 q 326 672 286 706 q 365 579 365 639 q 326 487 365 519 q 217 454 286 454 m 69 38 l 100 392 l 332 392 l 363 38 l 363 -222 l 69 -222 l 69 38 z "},"#":{"ha":981,"x_min":39,"x_max":942,"o":"m 760 547 l 731 371 l 882 371 l 882 208 l 704 208 l 671 0 l 488 0 l 521 208 l 360 208 l 326 0 l 142 0 l 175 208 l 39 208 l 39 371 l 200 371 l 228 547 l 99 547 l 99 710 l 254 710 l 288 917 l 472 917 l 439 710 l 600 710 l 633 917 l 818 917 l 785 710 l 942 710 l 942 547 l 760 547 m 575 547 l 413 547 l 385 371 l 547 371 l 575 547 z "},".":{"ha":415,"x_min":51,"x_max":363,"o":"m 207 264 q 322 228 281 264 q 363 126 363 192 q 322 25 363 61 q 207 -11 281 -11 q 92 25 133 -11 q 51 126 51 61 q 92 227 51 190 q 207 264 133 264 z "},"?":{"ha":876,"x_min":42,"x_max":821,"o":"m 444 931 q 720 868 619 931 q 821 674 821 806 q 556 410 821 436 l 536 300 l 304 300 l 286 513 q 463 549 410 519 q 517 629 517 579 q 426 708 517 708 q 347 678 376 708 q 315 586 318 647 l 42 683 q 151 863 54 796 q 444 931 249 931 m 422 242 q 532 208 493 242 q 571 115 571 175 q 532 22 571 56 q 422 -11 493 -11 q 312 22 351 -11 q 272 115 272 56 q 312 208 272 175 q 422 242 351 242 z "},"¿":{"ha":875,"x_min":54,"x_max":833,"o":"m 453 454 q 343 488 382 454 q 304 581 304 521 q 343 674 304 640 q 453 707 382 707 q 563 674 524 707 q 603 581 603 640 q 563 488 603 521 q 453 454 524 454 m 431 -235 q 155 -172 256 -235 q 54 22 54 -110 q 125 211 54 150 q 319 286 196 272 l 339 396 l 572 396 l 590 182 q 412 147 465 176 q 358 65 358 117 q 449 -12 358 -12 q 560 110 554 -12 l 833 13 q 724 -167 821 -100 q 431 -235 626 -235 z "},"\"":{"ha":643,"x_min":78,"x_max":592,"o":"m 549 536 l 367 536 l 367 936 l 592 936 l 549 536 m 260 536 l 78 536 l 78 936 l 303 936 l 260 536 z "},"'":{"ha":354,"x_min":78,"x_max":303,"o":"m 260 536 l 78 536 l 78 936 l 303 936 l 260 536 z "},";":{"ha":422,"x_min":44,"x_max":372,"o":"m 211 433 q 96 469 138 433 q 54 571 54 506 q 96 672 54 636 q 211 708 138 708 q 326 672 285 708 q 367 571 367 635 q 326 469 367 506 q 211 433 285 433 m 206 264 q 330 210 288 264 q 372 71 372 156 q 319 -105 372 -26 q 164 -225 265 -183 l 44 -146 q 163 -80 115 -117 q 229 6 210 -43 l 224 11 q 179 -7 206 -7 q 89 26 128 -7 q 50 121 50 60 q 92 228 50 192 q 206 264 133 264 z "},"/":{"ha":665,"x_min":14,"x_max":650,"o":"m 274 -97 l 14 -97 l 390 981 l 650 981 l 274 -97 z "},"_":{"ha":749,"x_min":0,"x_max":749,"o":"m 749 -293 l 0 -293 l 0 -76 l 749 -76 l 749 -293 z "},"₍":{"ha":371,"x_min":75,"x_max":371,"o":"m 371 314 q 283 190 308 257 q 258 13 258 124 q 283 -165 258 -99 q 371 -289 308 -232 l 269 -375 q 75 13 75 -249 q 269 400 75 274 l 371 314 z "},"₎":{"ha":371,"x_min":0,"x_max":296,"o":"m 103 400 q 296 13 296 272 q 103 -375 296 -247 l 0 -289 q 88 -165 63 -232 q 114 13 114 -97 q 88 190 114 122 q 0 314 63 257 l 103 400 z "},"{":{"ha":618,"x_min":64,"x_max":592,"o":"m 439 32 q 475 -66 439 -36 q 592 -96 511 -96 l 589 -267 q 373 -242 453 -267 q 256 -162 293 -218 q 219 -8 219 -106 l 219 143 q 184 254 219 221 q 64 288 149 288 l 64 460 q 184 493 149 460 q 219 604 219 526 l 219 757 q 256 909 219 853 q 373 990 293 965 q 589 1015 453 1015 l 592 843 q 475 813 511 843 q 439 717 439 783 l 439 540 q 406 435 439 475 q 310 374 374 394 q 406 313 374 353 q 439 207 439 274 l 439 32 z "},"}":{"ha":618,"x_min":25,"x_max":554,"o":"m 399 604 q 434 493 399 526 q 554 460 469 460 l 554 288 q 434 254 469 288 q 399 143 399 221 l 399 -8 q 362 -162 399 -106 q 245 -242 325 -218 q 29 -267 165 -267 l 25 -96 q 142 -66 106 -96 q 179 32 179 -36 l 179 207 q 211 313 179 274 q 307 374 243 353 q 211 435 243 394 q 179 540 179 475 l 179 717 q 142 813 179 783 q 25 843 106 843 l 29 1015 q 245 990 165 1015 q 362 909 325 965 q 399 757 399 853 l 399 604 z "},"[":{"ha":565,"x_min":118,"x_max":532,"o":"m 357 793 l 357 -44 l 532 -44 l 532 -233 l 118 -233 l 118 981 l 532 981 l 532 793 l 357 793 z "},"]":{"ha":565,"x_min":32,"x_max":447,"o":"m 447 -233 l 32 -233 l 32 -44 l 207 -44 l 207 793 l 32 793 l 32 981 l 447 981 l 447 -233 z "},"(":{"ha":563,"x_min":96,"x_max":558,"o":"m 558 890 q 395 670 446 789 q 344 375 344 551 q 395 78 344 197 q 558 -142 446 -40 l 431 -267 q 96 375 96 -61 q 181 755 96 594 q 431 1015 267 915 l 558 890 z "},")":{"ha":563,"x_min":4,"x_max":467,"o":"m 132 1015 q 467 375 467 813 q 132 -267 467 -62 l 4 -142 q 168 78 118 -42 q 218 375 218 197 q 168 672 218 553 q 4 890 118 790 l 132 1015 z "},"⁽":{"ha":371,"x_min":75,"x_max":371,"o":"m 371 1039 q 283 915 308 982 q 258 738 258 849 q 283 560 258 626 q 371 436 308 493 l 269 350 q 75 738 75 476 q 269 1125 75 999 l 371 1039 z "},"⁾":{"ha":371,"x_min":0,"x_max":296,"o":"m 103 1125 q 296 738 296 997 q 103 350 296 478 l 0 436 q 88 560 63 493 q 114 738 114 628 q 88 915 114 847 q 0 1039 63 982 l 103 1125 z "},"—":{"ha":1393,"x_min":106,"x_max":1286,"o":"m 1286 265 l 106 265 l 106 483 l 1286 483 l 1286 265 z "},"–":{"ha":974,"x_min":106,"x_max":868,"o":"m 868 265 l 106 265 l 106 483 l 868 483 l 868 265 z "},"-":{"ha":742,"x_min":108,"x_max":635,"o":"m 635 265 l 108 265 l 108 485 l 635 485 l 635 265 z "},"­":{"ha":742,"x_min":108,"x_max":635,"o":"m 635 265 l 108 265 l 108 485 l 635 485 l 635 265 z "},"«":{"ha":858,"x_min":40,"x_max":818,"o":"m 285 368 l 449 96 l 214 96 l 40 368 l 214 640 l 449 640 l 285 368 m 654 368 l 818 96 l 583 96 l 410 368 l 583 640 l 818 640 l 654 368 z "},"»":{"ha":858,"x_min":40,"x_max":818,"o":"m 275 640 l 449 368 l 275 96 l 40 96 l 204 368 l 40 640 l 275 640 m 644 640 l 818 368 l 644 96 l 410 96 l 574 368 l 410 640 l 644 640 z "},"‹":{"ha":490,"x_min":40,"x_max":449,"o":"m 285 368 l 449 96 l 214 96 l 40 368 l 214 640 l 449 640 l 285 368 z "},"›":{"ha":490,"x_min":40,"x_max":450,"o":"m 275 640 l 450 368 l 275 96 l 40 96 l 204 368 l 40 640 l 275 640 z "},"„":{"ha":774,"x_min":40,"x_max":726,"o":"m 201 264 q 326 210 283 264 q 368 71 368 156 q 315 -105 368 -26 q 160 -225 261 -183 l 40 -146 q 158 -80 111 -117 q 225 6 206 -43 l 219 11 q 175 -7 201 -7 q 85 26 124 -7 q 46 121 46 60 q 88 228 46 192 q 201 264 129 264 m 560 264 q 684 210 642 264 q 726 71 726 156 q 673 -105 726 -26 q 518 -225 619 -183 l 399 -146 q 517 -80 469 -117 q 583 6 564 -43 l 578 11 q 533 -7 560 -7 q 443 26 482 -7 q 404 121 404 60 q 446 228 404 192 q 560 264 488 264 z "},"“":{"ha":796,"x_min":51,"x_max":747,"o":"m 217 467 q 93 522 135 467 q 51 661 51 576 q 105 837 51 758 q 258 957 158 915 l 379 876 q 261 812 308 849 q 193 725 214 775 l 200 721 q 243 738 215 738 q 335 705 296 738 q 374 610 374 672 q 331 503 374 540 q 217 467 289 467 m 585 467 q 461 522 503 467 q 419 661 419 576 q 473 837 419 758 q 626 957 526 915 l 747 876 q 629 812 676 849 q 561 725 582 775 l 568 721 q 611 738 583 738 q 703 705 664 738 q 742 610 742 672 q 699 503 742 540 q 585 467 657 467 z "},"”":{"ha":788,"x_min":56,"x_max":744,"o":"m 218 953 q 342 899 300 953 q 385 760 385 844 q 331 584 385 663 q 176 464 278 506 l 56 544 q 242 694 206 603 l 235 700 q 192 682 218 682 q 101 715 140 682 q 63 810 63 749 q 104 917 63 881 q 218 953 146 953 m 578 953 q 702 899 660 953 q 744 760 744 844 q 691 584 744 663 q 536 464 638 506 l 415 544 q 601 694 565 603 l 594 700 q 551 682 578 682 q 461 715 500 682 q 422 810 422 749 q 464 917 422 881 q 578 953 506 953 z "},"‘":{"ha":428,"x_min":51,"x_max":379,"o":"m 217 467 q 93 522 135 467 q 51 661 51 576 q 105 837 51 758 q 258 957 158 915 l 379 876 q 261 812 308 849 q 193 725 214 775 l 200 721 q 243 738 215 738 q 335 705 296 738 q 374 610 374 672 q 331 503 374 540 q 217 467 289 467 z "},"’":{"ha":428,"x_min":56,"x_max":385,"o":"m 218 953 q 342 899 300 953 q 385 760 385 844 q 331 584 385 663 q 176 464 278 506 l 56 544 q 242 694 206 603 l 235 700 q 192 682 218 682 q 101 715 140 682 q 63 810 63 749 q 104 917 63 881 q 218 953 146 953 z "},"‚":{"ha":414,"x_min":40,"x_max":368,"o":"m 201 264 q 326 210 283 264 q 368 71 368 156 q 315 -105 368 -26 q 160 -225 261 -183 l 40 -146 q 158 -80 111 -117 q 225 6 206 -43 l 219 11 q 175 -7 201 -7 q 85 26 124 -7 q 46 121 46 60 q 88 228 46 192 q 201 264 129 264 z "}," ":{"ha":371,"x_min":0,"x_max":0,"o":""},"€":{"ha":975,"x_min":17,"x_max":950,"o":"m 950 244 q 822 51 922 117 q 574 -14 721 -14 q 290 70 403 -14 q 140 307 176 154 l 17 307 l 17 399 l 125 399 q 122 458 122 438 l 124 493 l 17 493 l 17 585 l 135 585 q 281 840 167 750 q 574 931 396 931 q 816 872 714 931 q 947 713 918 814 l 746 618 q 695 710 739 681 q 588 739 651 739 q 390 585 431 739 l 669 585 l 631 493 l 378 493 l 378 458 q 379 399 378 418 l 624 399 l 589 307 l 396 307 q 462 210 417 242 q 582 178 507 178 q 685 209 644 178 q 739 306 726 240 l 950 244 z "},"¢":{"ha":803,"x_min":50,"x_max":774,"o":"m 774 203 q 693 51 772 110 q 471 -12 614 -7 l 471 -139 l 389 -139 l 389 -12 q 137 93 224 0 q 50 347 50 186 q 139 603 50 510 q 389 707 228 697 l 389 833 l 471 833 l 471 707 q 697 637 625 699 q 774 482 769 575 l 571 413 q 539 495 565 464 q 471 536 513 526 l 471 157 q 575 272 560 174 l 774 203 m 293 344 q 317 214 293 257 q 389 160 342 171 l 389 535 q 316 478 339 524 q 293 344 293 433 z "},"¤":{"ha":889,"x_min":33,"x_max":854,"o":"m 742 458 q 714 326 742 386 l 854 207 l 694 47 l 569 192 q 446 169 511 169 q 318 193 376 169 l 193 47 l 33 207 l 174 328 q 147 458 147 388 q 174 588 147 528 l 33 708 l 193 867 l 318 722 q 446 746 376 746 q 571 722 513 746 l 694 867 l 854 708 l 715 588 q 742 458 742 526 m 446 361 q 513 388 488 361 q 538 458 538 414 q 513 528 538 501 q 446 554 488 554 q 377 528 403 554 q 351 458 351 501 q 377 388 351 414 q 446 361 403 361 z "},"$":{"ha":897,"x_min":25,"x_max":876,"o":"m 413 1 q 183 44 274 7 q 25 153 93 82 l 147 319 q 256 226 188 260 q 413 186 324 193 l 413 356 q 231 399 304 375 q 106 479 158 424 q 53 631 53 535 q 147 827 53 750 q 413 915 242 904 l 413 1033 l 504 1033 l 504 917 q 723 872 640 911 q 876 758 806 832 l 749 603 q 644 696 703 665 q 504 732 585 726 l 504 553 q 685 508 611 533 q 813 424 760 482 q 865 269 865 367 q 765 80 865 151 q 504 1 664 8 l 504 -117 l 413 -117 l 413 1 m 413 726 q 334 699 361 719 q 307 647 307 678 q 333 601 307 618 q 413 571 360 585 l 413 726 m 504 188 q 613 258 613 199 q 585 307 613 289 q 504 338 557 325 l 504 188 z "},"ƒ":{"ha":731,"x_min":-40,"x_max":746,"o":"m 643 819 q 565 793 596 819 q 525 718 533 767 l 503 589 l 685 589 l 685 399 l 469 399 l 414 78 q 315 -112 392 -46 q 117 -178 239 -178 q 28 -169 63 -178 q -40 -139 -6 -161 l -6 26 q 63 8 24 8 q 141 35 110 8 q 181 110 172 63 l 231 399 l 46 399 l 46 589 l 264 589 l 292 750 q 390 940 314 874 q 589 1006 467 1006 q 678 997 644 1006 q 746 967 713 989 l 711 801 q 643 819 683 819 z "},"£":{"ha":865,"x_min":40,"x_max":833,"o":"m 825 256 q 833 192 833 225 q 781 46 833 106 q 635 -14 728 -14 q 517 8 568 -14 q 408 71 467 31 q 213 -14 331 -14 q 89 21 138 -14 q 40 118 40 56 q 92 216 40 182 q 219 250 143 250 q 300 246 264 250 q 275 346 296 301 l 57 346 l 57 499 l 172 499 q 130 583 142 544 q 118 663 118 621 q 156 796 118 735 q 272 894 194 857 q 460 931 349 931 q 807 678 757 931 l 582 576 q 533 700 563 665 q 454 735 504 735 q 385 713 411 735 q 360 651 360 690 q 372 597 360 626 q 414 525 385 568 q 431 499 428 504 l 704 499 l 704 346 l 490 346 q 493 297 493 313 q 478 192 493 244 q 531 176 507 182 q 582 171 554 171 q 664 278 672 171 l 825 256 m 215 81 q 264 95 246 81 q 292 142 282 110 q 217 157 254 157 q 163 119 163 157 q 176 91 163 101 q 215 81 190 81 z "},"₺":{"ha":1015,"x_min":40,"x_max":972,"o":"m 972 439 q 863 117 969 233 q 557 0 757 0 l 172 0 l 172 363 l 40 326 l 40 414 l 172 451 l 172 554 l 40 518 l 40 606 l 172 643 l 172 917 l 456 917 l 456 721 l 681 783 l 681 696 l 456 633 l 456 531 l 681 593 l 681 504 l 456 442 l 456 210 l 526 210 q 700 439 700 210 l 972 439 z "},"₽":{"ha":975,"x_min":33,"x_max":931,"o":"m 433 381 l 433 294 l 686 294 l 686 171 l 433 171 l 433 0 l 150 0 l 150 171 l 33 171 l 33 294 l 150 294 l 150 381 l 33 381 l 33 513 l 150 513 l 150 917 l 560 917 q 835 845 740 917 q 931 647 931 774 q 838 446 931 511 q 560 381 744 381 l 433 381 m 433 513 l 514 513 q 614 536 582 513 q 646 611 646 560 q 614 686 646 663 q 514 710 582 710 l 433 710 l 433 513 z "},"¥":{"ha":971,"x_min":19,"x_max":951,"o":"m 731 428 l 889 428 l 889 344 l 622 344 l 622 257 l 889 257 l 889 176 l 622 176 l 622 0 l 349 0 l 349 176 l 82 176 l 82 257 l 349 257 l 349 344 l 82 344 l 82 428 l 240 428 l 332 422 l 19 917 l 306 917 l 426 649 l 485 506 l 488 506 l 546 650 l 667 917 l 951 917 l 639 422 l 731 428 z "},"≈":{"ha":839,"x_min":79,"x_max":760,"o":"m 263 758 q 349 747 310 758 q 443 711 388 735 q 517 683 492 692 q 571 675 543 675 q 669 690 626 675 q 760 747 711 706 l 760 547 q 581 478 681 478 q 499 488 538 478 q 411 519 461 499 q 329 549 361 539 q 263 558 297 558 q 163 542 203 558 q 79 488 122 526 l 79 688 q 165 742 125 726 q 263 758 206 758 m 263 417 q 350 405 310 417 q 443 371 390 393 q 513 344 485 353 q 571 335 542 335 q 669 350 626 335 q 760 406 713 365 l 760 206 q 581 136 678 136 q 501 147 538 136 q 411 179 464 158 q 329 208 361 199 q 263 218 297 218 q 163 201 203 218 q 79 146 122 185 l 79 347 q 165 401 125 386 q 263 417 204 417 z "},"~":{"ha":857,"x_min":60,"x_max":797,"o":"m 797 610 q 732 392 792 467 q 560 318 672 318 q 474 332 508 318 q 401 371 440 346 q 363 394 378 386 q 331 401 347 401 q 290 384 304 401 q 271 328 276 367 l 60 328 q 126 545 67 471 q 299 619 186 619 q 384 606 350 619 q 457 567 418 592 q 494 544 479 551 q 526 536 510 536 q 567 553 553 536 q 586 610 581 571 l 797 610 z "},"÷":{"ha":839,"x_min":65,"x_max":774,"o":"m 421 888 q 514 855 481 888 q 547 764 547 822 q 514 674 547 707 q 421 642 481 642 q 327 674 361 642 q 293 764 293 707 q 327 855 293 822 q 421 888 361 888 m 774 360 l 65 360 l 65 551 l 774 551 l 774 360 m 421 271 q 514 238 481 271 q 547 149 547 206 q 514 58 547 90 q 421 26 481 26 q 326 58 360 26 q 293 149 293 90 q 327 238 293 206 q 421 271 361 271 z "},"=":{"ha":839,"x_min":90,"x_max":749,"o":"m 749 508 l 90 508 l 90 692 l 749 692 l 749 508 m 749 200 l 90 200 l 90 383 l 749 383 l 749 200 z "},"₌":{"ha":575,"x_min":76,"x_max":497,"o":"m 76 203 l 497 203 l 497 61 l 76 61 l 76 203 m 76 -25 l 497 -25 l 497 -167 l 76 -167 l 76 -25 z "},"⁼":{"ha":575,"x_min":76,"x_max":497,"o":"m 76 928 l 497 928 l 497 786 l 76 786 l 76 928 m 76 700 l 497 700 l 497 558 l 76 558 l 76 700 z "},">":{"ha":839,"x_min":68,"x_max":756,"o":"m 756 526 l 756 294 l 68 -4 l 68 258 l 550 411 l 68 563 l 68 825 l 756 526 z "},"≥":{"ha":839,"x_min":75,"x_max":758,"o":"m 758 736 l 758 426 l 75 243 l 75 469 l 625 582 l 75 693 l 75 919 l 758 736 m 75 194 l 758 194 l 758 0 l 75 0 l 75 194 z "},"∞":{"ha":1336,"x_min":39,"x_max":1297,"o":"m 1019 742 q 1219 666 1142 742 q 1297 411 1297 590 q 1216 155 1297 229 q 989 81 1135 81 q 815 119 894 81 q 635 257 736 158 q 510 142 558 179 q 419 93 461 106 q 314 81 376 81 q 115 156 192 81 q 39 411 39 232 q 117 666 39 590 q 317 742 194 742 q 437 731 382 742 q 558 681 492 719 q 703 568 624 643 q 835 683 781 646 q 928 730 889 719 q 1019 742 968 740 m 1000 363 q 1081 390 1056 363 q 1106 471 1106 417 q 1085 551 1106 525 q 1018 578 1064 578 q 971 570 993 578 q 912 534 949 563 q 818 449 875 506 q 910 382 868 401 q 1000 363 953 363 m 322 244 q 369 252 347 244 q 425 288 390 260 q 517 375 460 317 q 423 442 463 425 q 333 460 383 460 q 231 351 231 460 q 255 270 231 296 q 322 244 279 244 z "},"∫":{"ha":672,"x_min":-1,"x_max":675,"o":"m 501 1053 q 675 1008 617 1053 l 656 843 q 619 861 639 856 q 571 867 600 867 q 464 774 464 867 l 464 86 q 381 -113 464 -49 q 172 -178 299 -178 q -1 -133 57 -178 l 18 32 q 53 14 35 19 q 101 8 72 8 q 181 30 153 8 q 208 101 208 51 l 208 789 q 292 988 208 924 q 501 1053 375 1053 z "},"<":{"ha":839,"x_min":83,"x_max":771,"o":"m 771 563 l 288 410 l 771 258 l 771 -4 l 83 294 l 83 526 l 771 825 l 771 563 z "},"≤":{"ha":839,"x_min":81,"x_max":764,"o":"m 764 693 l 215 582 l 764 469 l 764 243 l 81 426 l 81 736 l 764 919 l 764 693 m 81 194 l 764 194 l 764 0 l 81 0 l 81 194 z "},"¬":{"ha":839,"x_min":83,"x_max":756,"o":"m 756 551 l 756 118 l 538 118 l 538 360 l 83 360 l 83 551 l 756 551 z "},"−":{"ha":839,"x_min":83,"x_max":756,"o":"m 756 353 l 83 353 l 83 558 l 756 558 l 756 353 z "},"₋":{"ha":496,"x_min":47,"x_max":449,"o":"m 47 88 l 449 88 l 449 -61 l 47 -61 l 47 88 z "},"⁻":{"ha":496,"x_min":47,"x_max":449,"o":"m 47 813 l 449 813 l 449 664 l 47 664 l 47 813 z "},"×":{"ha":839,"x_min":61,"x_max":776,"o":"m 567 457 l 776 247 l 631 100 l 419 310 l 208 100 l 61 247 l 272 457 l 61 668 l 208 815 l 419 604 l 631 815 l 776 668 l 567 457 z "},"≠":{"ha":839,"x_min":74,"x_max":765,"o":"m 533 522 l 465 369 l 765 369 l 765 188 l 385 188 l 311 19 l 149 19 l 222 188 l 74 188 l 74 369 l 303 369 l 371 522 l 74 522 l 74 703 l 450 703 l 529 881 l 692 881 l 613 703 l 765 703 l 765 522 l 533 522 z "},"∂":{"ha":936,"x_min":88,"x_max":861,"o":"m 449 931 q 753 814 646 931 q 861 479 861 697 q 752 103 861 219 q 426 -14 643 -14 q 261 19 339 -14 q 135 119 183 53 q 88 282 88 186 q 132 440 88 374 q 251 542 176 507 q 411 576 325 576 q 603 467 547 576 q 404 706 589 706 q 299 690 344 706 q 211 633 254 674 l 96 806 q 256 902 179 874 q 449 931 333 931 m 475 197 q 547 221 518 197 q 592 301 576 244 q 551 362 579 338 q 479 386 524 386 q 403 360 431 386 q 376 290 376 335 q 401 222 376 247 q 475 197 426 197 z "},"%":{"ha":1343,"x_min":38,"x_max":1306,"o":"m 310 931 q 506 858 432 931 q 581 667 581 786 q 506 475 581 547 q 310 403 432 403 q 112 475 186 403 q 38 667 38 547 q 112 858 38 786 q 310 931 186 931 m 897 918 l 1106 918 l 447 0 l 240 0 l 897 918 m 310 747 q 258 726 276 747 q 240 667 240 706 q 258 607 240 628 q 310 586 276 586 q 360 607 342 586 q 378 667 378 628 q 360 726 378 706 q 310 747 342 747 m 1033 514 q 1231 442 1156 514 q 1306 250 1306 369 q 1231 58 1306 131 q 1033 -14 1156 -14 q 836 58 911 -14 q 761 250 761 131 q 836 442 761 369 q 1033 514 911 514 m 1033 331 q 982 310 1000 331 q 964 250 964 289 q 982 190 964 211 q 1033 169 1000 169 q 1085 190 1067 169 q 1103 250 1103 211 q 1085 310 1103 289 q 1033 331 1067 331 z "},"‰":{"ha":1938,"x_min":38,"x_max":1900,"o":"m 310 931 q 506 858 432 931 q 581 667 581 786 q 506 475 581 547 q 310 403 432 403 q 112 475 186 403 q 38 667 38 547 q 112 858 38 786 q 310 931 186 931 m 897 918 l 1106 918 l 447 0 l 240 0 l 897 918 m 310 747 q 258 726 276 747 q 240 667 240 706 q 258 607 240 628 q 310 586 276 586 q 360 607 342 586 q 378 667 378 628 q 360 726 378 706 q 310 747 342 747 m 1033 514 q 1231 442 1156 514 q 1306 250 1306 369 q 1231 58 1306 131 q 1033 -14 1156 -14 q 836 58 911 -14 q 761 250 761 131 q 836 442 761 369 q 1033 514 911 514 m 1629 514 q 1826 442 1751 514 q 1900 250 1900 369 q 1826 58 1900 131 q 1629 -14 1751 -14 q 1431 58 1506 -14 q 1357 250 1357 131 q 1431 442 1357 369 q 1629 514 1506 514 m 1033 331 q 982 310 1000 331 q 964 250 964 289 q 982 190 964 211 q 1033 169 1000 169 q 1085 190 1067 169 q 1103 250 1103 211 q 1085 310 1103 289 q 1033 331 1067 331 m 1629 331 q 1578 310 1596 331 q 1560 250 1560 289 q 1578 190 1560 211 q 1629 169 1596 169 q 1679 190 1661 169 q 1697 250 1697 211 q 1679 310 1697 289 q 1629 331 1661 331 z "},"+":{"ha":839,"x_min":67,"x_max":772,"o":"m 772 360 l 529 360 l 529 79 l 311 79 l 311 360 l 67 360 l 67 551 l 311 551 l 311 831 l 529 831 l 529 551 l 772 551 l 772 360 z "},"₊":{"ha":496,"x_min":31,"x_max":465,"o":"m 465 -54 l 321 -54 l 321 -204 l 178 -204 l 178 -54 l 31 -54 l 31 83 l 178 83 l 178 232 l 321 232 l 321 83 l 465 83 l 465 -54 z "},"±":{"ha":839,"x_min":67,"x_max":772,"o":"m 772 685 l 772 500 l 518 500 l 518 272 l 322 272 l 322 500 l 67 500 l 67 685 l 322 685 l 322 911 l 518 911 l 518 685 l 772 685 m 67 179 l 772 179 l 772 1 l 67 1 l 67 179 z "},"⁺":{"ha":496,"x_min":31,"x_max":465,"o":"m 465 671 l 321 671 l 321 521 l 178 521 l 178 671 l 31 671 l 31 808 l 178 808 l 178 957 l 321 957 l 321 808 l 465 808 l 465 671 z "},"∏":{"ha":968,"x_min":81,"x_max":888,"o":"m 888 -178 l 626 -178 l 626 704 l 342 704 l 342 -178 l 81 -178 l 81 917 l 888 917 l 888 -178 z "},"√":{"ha":961,"x_min":18,"x_max":1040,"o":"m 1040 1136 l 603 0 l 324 0 l 158 425 l 18 425 l 18 631 l 304 631 l 404 358 l 464 174 l 529 376 l 807 1136 l 1040 1136 z "},"∑":{"ha":953,"x_min":78,"x_max":875,"o":"m 875 715 l 371 715 l 696 394 l 696 344 l 369 13 l 875 13 l 875 -178 l 78 -178 l 78 13 l 421 369 l 78 715 l 78 917 l 875 917 l 875 715 z "},"µ":{"ha":860,"x_min":67,"x_max":793,"o":"m 793 694 l 793 0 l 543 0 l 536 132 q 347 -14 485 -7 l 347 -292 l 67 -292 l 67 694 l 347 694 l 347 297 q 365 219 347 242 q 419 196 382 196 q 513 318 508 196 l 513 694 l 793 694 z "},"Ω":{"ha":1082,"x_min":76,"x_max":1006,"o":"m 1006 185 l 1006 0 l 588 0 l 588 185 q 681 256 651 192 q 710 451 710 321 q 540 714 710 714 q 372 451 372 714 q 401 256 372 321 q 493 185 429 192 l 494 185 l 494 0 l 76 0 l 76 185 l 276 185 q 132 307 182 226 q 82 500 82 388 q 138 729 82 632 q 296 878 193 826 q 540 931 399 931 q 785 878 682 931 q 944 729 889 826 q 999 500 999 632 q 949 307 999 388 q 804 185 899 226 l 1006 185 z "},"∆":{"ha":1035,"x_min":56,"x_max":979,"o":"m 979 163 l 979 0 l 56 0 l 56 163 l 376 917 l 658 917 l 979 163 m 276 193 l 758 193 l 518 760 l 276 193 z "},"∕":{"ha":372,"x_min":-237,"x_max":610,"o":"m 424 918 l 610 918 l -51 0 l -237 0 l 424 918 z "},"∙":{"ha":404,"x_min":46,"x_max":357,"o":"m 201 615 q 316 579 275 615 q 357 478 357 543 q 316 376 357 413 q 201 340 275 340 q 87 376 128 340 q 46 478 46 413 q 87 578 46 542 q 201 615 128 615 z "},"↑":{"ha":1042,"x_min":32,"x_max":1007,"o":"m 524 925 q 724 713 608 810 q 1007 515 840 615 l 867 307 q 642 515 736 393 q 660 267 660 386 l 660 0 l 379 0 l 379 267 q 397 515 379 386 q 172 307 303 393 l 32 515 q 315 713 199 615 q 515 925 431 810 l 524 925 z "},"↗":{"ha":1042,"x_min":121,"x_max":911,"o":"m 901 858 q 883 528 883 699 q 911 172 883 325 l 667 164 q 664 244 664 219 q 688 489 664 368 q 488 275 596 378 l 296 85 l 121 258 l 313 450 q 526 650 419 558 q 281 626 406 626 q 200 629 256 626 l 210 875 q 569 847 364 847 q 896 865 736 847 l 901 858 z "},"→":{"ha":1042,"x_min":79,"x_max":1004,"o":"m 594 947 q 792 665 694 781 q 1004 464 889 549 l 1004 456 q 792 255 889 371 q 594 -28 694 139 l 386 113 q 594 338 472 243 q 346 319 465 319 l 79 319 l 79 600 l 346 600 q 594 582 465 600 q 386 807 472 676 l 594 947 z "},"↘":{"ha":1042,"x_min":117,"x_max":907,"o":"m 907 797 q 879 442 879 644 q 897 111 879 271 l 892 106 q 561 124 729 124 q 206 96 358 124 l 196 340 q 276 343 251 343 q 522 319 400 343 q 307 519 431 396 l 117 711 l 292 886 l 483 694 q 683 481 601 579 q 660 726 660 603 q 663 807 660 751 l 907 797 z "},"↓":{"ha":1042,"x_min":35,"x_max":1010,"o":"m 1010 401 q 727 204 843 301 q 526 -8 611 107 l 518 -8 q 317 204 433 107 q 35 401 201 301 l 175 610 q 400 401 306 524 q 382 650 382 531 l 382 917 l 663 917 l 663 650 q 644 401 663 531 q 869 610 739 524 l 1010 401 z "},"↙":{"ha":1042,"x_min":135,"x_max":925,"o":"m 519 319 q 765 343 642 343 q 846 340 790 343 l 836 96 q 481 124 683 124 q 150 106 313 124 l 144 111 q 163 442 163 271 q 135 797 163 644 l 379 807 q 382 726 382 751 q 358 481 382 603 q 558 694 440 579 l 750 886 l 925 711 l 735 519 q 519 319 611 396 z "},"←":{"ha":1042,"x_min":38,"x_max":963,"o":"m 963 600 l 963 319 l 696 319 q 447 338 576 319 q 656 113 569 243 l 447 -28 q 250 255 347 139 q 38 456 153 371 l 38 464 q 250 665 153 549 q 447 947 347 781 l 656 807 q 447 582 569 676 q 696 600 576 600 l 963 600 z "},"↖":{"ha":1042,"x_min":131,"x_max":921,"o":"m 921 258 l 746 85 l 554 275 q 354 489 447 379 q 378 249 378 379 q 375 164 378 222 l 131 172 q 158 528 158 325 q 140 858 158 699 l 146 865 q 472 847 306 847 q 832 875 678 847 l 842 629 q 761 626 786 626 q 515 650 636 626 q 729 450 622 558 l 921 258 z "},"↔":{"ha":1543,"x_min":38,"x_max":1506,"o":"m 1096 974 q 1293 691 1196 807 q 1506 490 1390 575 l 1506 482 q 1294 282 1392 399 q 1096 -1 1196 165 l 886 136 q 1096 363 975 271 q 858 346 982 346 l 685 346 q 447 363 561 346 q 657 136 568 271 l 447 -1 q 249 282 347 165 q 38 482 151 399 l 38 490 q 250 691 153 575 q 447 974 347 807 l 657 836 q 447 610 571 704 q 685 626 561 626 l 858 626 q 1096 610 982 626 q 886 836 972 704 l 1096 974 z "},"↕":{"ha":1042,"x_min":33,"x_max":1008,"o":"m 643 135 q 871 344 736 254 l 1008 133 q 726 -62 842 36 q 525 -276 610 -161 l 517 -276 q 316 -63 432 -161 q 33 133 200 35 l 171 344 q 397 135 306 254 q 381 372 381 247 l 381 544 q 397 782 381 669 q 171 572 306 663 l 33 783 q 316 980 200 882 q 517 1193 432 1078 l 525 1193 q 726 979 610 1078 q 1008 783 842 881 l 871 572 q 643 782 736 663 q 661 544 661 660 l 661 372 q 643 135 661 257 z "},"●":{"ha":833,"x_min":56,"x_max":778,"o":"m 417 -14 q 233 33 315 -14 q 103 163 150 81 q 56 347 56 246 q 103 531 56 449 q 233 661 150 614 q 417 708 315 708 q 601 661 518 708 q 731 531 683 614 q 778 347 778 449 q 731 163 778 246 q 601 33 683 81 q 417 -14 518 -14 z "},"○":{"ha":833,"x_min":40,"x_max":793,"o":"m 417 -14 q 225 33 311 -14 q 90 163 139 81 q 40 347 40 246 q 90 531 40 449 q 225 661 139 614 q 417 708 311 708 q 608 661 522 708 q 744 531 694 614 q 793 347 793 449 q 744 163 793 246 q 608 33 694 81 q 417 -14 522 -14 m 417 164 q 546 217 494 164 q 597 347 597 269 q 546 478 597 425 q 417 531 494 531 q 288 478 339 531 q 236 347 236 425 q 288 217 236 269 q 417 164 339 164 z "},"◆":{"ha":833,"x_min":49,"x_max":785,"o":"m 49 360 l 417 728 l 785 360 l 417 -8 l 49 360 z "},"◇":{"ha":833,"x_min":49,"x_max":785,"o":"m 49 360 l 417 728 l 785 360 l 417 -8 l 49 360 m 576 360 l 417 519 l 257 360 l 417 200 l 576 360 z "},"◊":{"ha":939,"x_min":64,"x_max":874,"o":"m 874 458 l 610 0 l 329 0 l 64 458 l 329 917 l 610 917 l 874 458 m 621 458 l 469 765 l 318 458 l 469 151 l 621 458 z "},"▪":{"ha":833,"x_min":69,"x_max":764,"o":"m 764 694 l 764 0 l 69 0 l 69 694 l 764 694 z "},"▫":{"ha":833,"x_min":58,"x_max":775,"o":"m 58 694 l 775 694 l 775 0 l 58 0 l 58 694 m 588 174 l 588 521 l 246 521 l 246 174 l 588 174 z "},"❛":{"ha":957,"x_min":78,"x_max":888,"o":"m 864 760 q 483 714 607 760 q 313 579 360 668 l 322 574 q 408 621 360 604 q 538 638 456 638 q 714 602 635 638 q 840 496 793 567 q 888 322 888 425 q 785 69 888 153 q 499 -14 683 -14 q 183 95 288 -14 q 78 385 78 204 q 243 782 78 640 q 788 924 408 924 l 864 760 z "},"❜":{"ha":957,"x_min":71,"x_max":881,"o":"m 93 -24 q 474 22 350 -24 q 644 157 599 68 l 636 163 q 549 115 597 132 q 421 99 501 99 q 243 134 322 99 q 117 240 164 169 q 71 414 71 311 q 172 667 71 583 q 458 750 274 750 q 775 641 669 750 q 881 351 881 532 q 715 -46 881 96 q 171 -187 549 -187 l 93 -24 z "},"❝":{"ha":1701,"x_min":78,"x_max":1632,"o":"m 1282 638 q 1458 602 1379 638 q 1585 496 1538 567 q 1632 322 1632 425 q 1530 69 1632 153 q 1243 -14 1428 -14 q 1006 38 1100 -14 q 864 183 911 90 q 733 35 826 85 q 499 -14 640 -14 q 183 95 288 -14 q 78 385 78 204 q 243 782 78 640 q 788 924 408 924 l 864 760 q 483 714 607 760 q 313 579 360 668 l 322 574 q 408 621 360 604 q 538 638 456 638 q 709 605 632 638 q 832 508 786 572 q 1034 815 867 707 q 1532 924 1201 924 l 1608 760 q 1228 714 1351 760 q 1058 579 1104 668 l 1067 574 q 1152 621 1103 604 q 1282 638 1201 638 z "},"❞":{"ha":1701,"x_min":69,"x_max":1625,"o":"m 1204 750 q 1520 641 1415 750 q 1625 351 1625 532 q 1459 -46 1625 96 q 915 -187 1293 -187 l 839 -24 q 1219 22 1094 -24 q 1389 157 1343 68 l 1381 163 q 1294 115 1342 132 q 1165 99 1246 99 q 993 132 1071 99 q 869 229 915 165 q 667 -79 835 29 q 169 -187 500 -187 l 93 -24 q 474 22 350 -24 q 643 157 597 68 l 635 163 q 549 115 599 132 q 419 99 500 99 q 243 134 322 99 q 117 240 164 169 q 69 414 69 311 q 172 667 69 583 q 458 750 274 750 q 697 698 601 750 q 838 551 792 646 q 968 701 875 651 q 1204 750 1061 750 z "},"❡":{"ha":1079,"x_min":68,"x_max":1000,"o":"m 1000 154 q 951 -66 1000 36 q 790 -233 901 -168 q 506 -299 679 -299 q 206 -222 303 -299 q 108 -12 108 -146 q 114 51 108 7 l 269 94 q 263 25 263 53 q 297 -85 263 -49 q 390 -122 332 -122 q 483 19 483 -122 l 483 250 l 436 250 q 256 288 340 250 q 120 401 172 326 q 68 578 68 475 q 115 755 68 678 q 251 874 161 832 q 468 917 342 917 l 1000 917 l 1000 154 m 692 739 l 692 71 q 668 -69 692 -18 q 599 -146 644 -121 l 603 -151 q 747 -63 706 -133 q 789 126 789 7 l 789 739 l 692 739 z "},"|":{"ha":483,"x_min":118,"x_max":365,"o":"m 365 -233 l 118 -233 l 118 981 l 365 981 l 365 -233 z "},"¦":{"ha":388,"x_min":69,"x_max":318,"o":"m 318 446 l 69 446 l 69 981 l 318 981 l 318 446 m 318 -233 l 69 -233 l 69 303 l 318 303 l 318 -233 z "},"@":{"ha":1294,"x_min":60,"x_max":1232,"o":"m 678 917 q 968 853 843 917 q 1163 664 1093 789 q 1232 361 1232 539 q 1189 157 1232 238 q 1077 40 1146 76 q 929 3 1008 3 q 804 32 857 3 q 724 118 751 61 q 522 4 651 4 q 360 76 419 4 q 301 260 301 147 q 344 475 301 388 q 458 606 386 563 q 622 650 531 650 q 717 618 683 650 q 758 547 750 586 l 788 635 l 992 635 l 928 250 q 924 206 924 225 q 940 153 924 169 q 993 136 956 136 q 1082 194 1047 136 q 1117 361 1117 253 q 999 692 1117 581 q 678 804 882 804 q 422 745 533 804 q 249 574 311 686 q 188 310 188 463 q 248 65 188 167 q 408 -87 308 -36 q 622 -139 507 -139 q 787 -121 726 -139 q 896 -65 847 -103 l 958 -154 q 816 -226 890 -203 q 617 -250 742 -250 q 331 -184 457 -250 q 132 8 204 -118 q 60 310 60 135 q 140 628 60 490 q 360 842 219 767 q 678 917 500 917 m 654 472 q 574 424 608 472 q 540 296 540 375 q 558 219 540 246 q 610 193 576 193 q 661 211 639 193 q 689 263 683 229 l 707 390 q 708 414 708 399 q 696 458 708 443 q 654 472 683 472 z "},"&":{"ha":910,"x_min":24,"x_max":899,"o":"m 881 -14 q 739 1 794 -14 q 617 65 683 17 q 357 -14 518 -14 q 115 51 206 -14 q 24 243 24 117 q 64 377 24 313 q 197 476 104 442 q 128 583 146 538 q 110 686 110 629 q 143 806 110 750 q 244 896 176 861 q 411 931 313 931 q 578 899 511 931 q 676 815 644 867 q 707 703 707 764 q 657 555 707 619 q 507 453 607 490 l 560 399 l 644 311 q 668 464 669 381 l 850 461 q 763 207 846 307 q 857 178 808 178 q 899 182 876 178 l 881 -14 m 418 754 q 365 733 385 754 q 346 675 346 713 q 360 624 346 649 q 413 554 374 599 q 474 620 458 590 q 489 688 489 650 q 469 737 489 719 q 418 754 450 754 m 390 164 q 488 178 436 164 l 431 233 l 306 357 q 271 311 281 333 q 261 260 261 289 q 296 190 261 217 q 390 164 331 164 z "},"¶":{"ha":1079,"x_min":44,"x_max":999,"o":"m 999 -139 l 774 -139 l 774 706 l 635 706 l 635 -139 l 408 -139 l 408 315 q 44 615 44 318 q 142 842 44 767 q 438 917 239 917 l 999 917 l 999 -139 z "},"©":{"ha":1049,"x_min":44,"x_max":1004,"o":"m 524 931 q 776 872 667 931 q 944 707 885 814 q 1004 458 1004 600 q 944 210 1004 317 q 776 44 885 103 q 524 -14 667 -14 q 272 44 381 -14 q 104 210 164 103 q 44 458 44 317 q 104 707 44 600 q 272 872 164 814 q 524 931 381 931 m 524 806 q 341 763 419 806 q 220 641 263 719 q 178 458 178 563 q 220 276 178 354 q 341 154 263 197 q 524 111 419 111 q 706 154 628 111 q 828 276 785 197 q 871 458 871 354 q 828 641 871 563 q 706 763 785 719 q 524 806 628 806 m 514 726 q 775 565 725 726 l 624 490 q 590 527 610 517 q 533 538 571 538 q 458 458 458 538 q 535 378 458 378 q 594 388 574 378 q 626 429 614 399 l 771 356 q 679 226 735 264 q 514 189 624 189 q 335 263 403 189 q 268 458 268 336 q 335 653 268 581 q 514 726 403 726 z "},"®":{"ha":1049,"x_min":44,"x_max":1004,"o":"m 524 931 q 776 872 667 931 q 944 707 885 814 q 1004 458 1004 600 q 944 210 1004 317 q 776 44 885 103 q 524 -14 667 -14 q 272 44 381 -14 q 104 210 164 103 q 44 458 44 317 q 104 707 44 600 q 272 872 164 814 q 524 931 381 931 m 524 111 q 706 154 628 111 q 828 276 785 197 q 871 458 871 354 q 828 641 871 563 q 706 763 785 719 q 524 806 628 806 q 341 763 419 806 q 220 641 263 719 q 178 458 178 563 q 220 276 178 354 q 341 154 263 197 q 524 111 419 111 m 751 550 q 724 456 751 494 q 647 397 697 417 l 764 214 l 572 214 l 494 382 l 476 382 l 476 214 l 319 214 l 319 717 l 574 717 q 700 669 649 717 q 751 550 751 622 m 476 489 l 531 489 q 590 536 590 489 q 531 585 590 585 l 476 585 l 476 489 z "},"§":{"ha":876,"x_min":29,"x_max":849,"o":"m 849 389 q 750 182 849 257 q 767 94 767 144 q 678 -88 767 -24 q 433 -153 590 -153 q 235 -122 310 -153 q 100 -22 160 -90 l 236 107 q 316 41 272 61 q 431 21 360 21 q 534 32 500 21 q 568 68 568 43 q 531 112 568 96 q 397 136 493 128 q 117 210 206 151 q 29 374 29 268 q 126 579 29 503 q 110 668 110 619 q 200 859 110 788 q 446 931 290 931 q 644 899 569 931 q 776 800 718 868 l 642 671 q 561 737 604 717 q 447 757 518 757 q 345 739 381 757 q 310 693 310 721 q 347 651 310 667 q 479 626 383 636 q 760 551 671 610 q 849 389 849 493 m 218 417 q 258 369 218 386 q 401 342 299 351 q 622 294 540 328 q 660 346 660 315 q 619 394 660 376 q 476 421 579 411 q 254 468 336 433 q 218 417 218 447 z "},"™":{"ha":1146,"x_min":14,"x_max":1111,"o":"m 453 804 l 310 804 l 310 458 l 157 458 l 157 804 l 14 804 l 14 917 l 453 917 l 453 804 m 1111 917 l 1111 458 l 960 458 l 960 625 l 967 774 l 963 774 l 931 656 l 869 458 l 744 458 l 683 657 l 651 774 l 647 774 l 654 625 l 654 458 l 501 458 l 501 917 l 728 917 l 786 722 l 807 633 l 811 633 l 831 722 l 890 917 l 1111 917 z "},"°":{"ha":706,"x_min":56,"x_max":650,"o":"m 353 393 q 135 465 215 393 q 56 663 56 538 q 135 858 56 786 q 353 931 215 931 q 570 858 490 931 q 650 663 650 786 q 570 465 650 538 q 353 393 490 393 m 353 565 q 424 592 396 565 q 451 663 451 619 q 424 732 451 706 q 353 758 397 758 q 281 732 308 758 q 254 663 254 706 q 282 592 254 619 q 353 565 310 565 z "},"℮":{"ha":1061,"x_min":61,"x_max":1001,"o":"m 533 931 q 879 797 757 931 q 996 410 1001 664 l 268 410 l 268 199 q 391 114 315 143 q 560 85 467 85 q 788 140 689 85 q 960 318 888 194 l 960 182 q 802 35 907 85 q 561 -14 697 -14 q 293 44 406 -14 q 121 209 181 103 q 61 458 61 315 q 119 707 61 600 q 285 872 178 814 q 533 931 392 931 m 533 832 q 268 719 354 832 l 268 510 l 797 510 l 797 728 q 533 832 711 832 z "},"ℓ":{"ha":647,"x_min":46,"x_max":592,"o":"m 389 247 q 406 182 389 203 q 469 161 422 161 q 585 179 542 161 l 575 13 q 403 -14 504 -14 q 196 40 258 -14 q 133 218 133 94 l 133 242 q 46 231 104 236 l 46 354 q 133 363 92 357 l 133 675 q 189 865 133 799 q 374 931 244 931 q 547 872 501 931 q 592 717 592 813 q 538 509 592 606 q 389 346 485 413 l 389 247 m 435 800 q 399 778 410 800 q 389 708 389 756 l 389 482 q 478 725 478 575 q 468 782 478 764 q 435 800 458 800 z "},"^":{"ha":876,"x_min":33,"x_max":843,"o":"m 600 493 l 438 828 l 275 493 l 33 493 l 321 1003 l 554 1003 l 843 493 l 600 493 z "},"†":{"ha":867,"x_min":44,"x_max":822,"o":"m 822 436 l 561 436 l 561 -139 l 304 -139 l 304 436 l 44 436 l 44 647 l 304 647 l 304 917 l 561 917 l 561 647 l 822 647 l 822 436 z "},"‡":{"ha":867,"x_min":53,"x_max":815,"o":"m 554 458 l 554 311 l 815 311 l 815 108 l 554 108 l 554 -139 l 311 -139 l 311 108 l 53 108 l 53 311 l 311 311 l 311 458 l 53 458 l 53 663 l 311 663 l 311 917 l 554 917 l 554 663 l 815 663 l 815 458 l 554 458 z "},"":{"ha":1569,"x_min":32,"x_max":1524,"o":"m 1514 418 l 1439 390 l 1504 357 l 1431 329 l 1489 289 l 1404 275 l 1457 228 l 1365 224 l 1414 179 l 1329 174 q 1290 153 1310 161 l 1290 40 q 1250 0 1290 0 l 1186 0 q 1146 32 1146 0 q 1186 67 1146 67 l 1201 67 l 1201 121 q 1110 107 1163 111 l 1110 40 q 1069 0 1110 0 l 1006 0 q 965 32 965 0 q 1006 67 965 67 l 1021 67 l 1021 104 l 707 104 l 707 40 q 667 0 707 0 l 603 0 q 561 32 561 0 q 572 58 561 49 q 603 67 583 67 l 619 67 l 619 104 l 497 104 l 497 40 q 456 0 497 0 l 394 0 q 351 32 351 0 q 394 67 351 67 l 408 67 l 408 118 q 217 156 308 122 q 74 244 125 190 q 44 258 56 246 q 32 288 32 269 q 44 318 32 306 q 75 331 57 331 l 79 331 q 182 440 136 365 q 228 581 228 515 l 219 663 l 275 638 l 265 718 l 322 686 l 322 765 l 382 721 l 382 799 l 442 760 l 446 840 l 504 792 l 514 874 l 572 821 l 581 897 l 642 846 l 663 925 l 713 867 l 731 940 l 783 881 l 807 953 l 851 889 l 885 958 l 929 896 l 972 972 l 1010 890 l 1063 958 l 1090 878 l 1150 951 l 1164 863 l 1243 926 l 1232 836 l 1321 883 l 1290 800 l 1378 822 l 1342 757 l 1431 763 l 1381 707 l 1478 707 l 1411 639 l 1510 639 l 1440 585 l 1518 567 l 1443 521 l 1524 494 l 1446 460 l 1514 418 m 464 356 q 517 385 497 363 q 536 439 536 408 q 513 499 536 476 q 456 522 489 522 q 392 496 418 522 l 403 474 q 454 496 426 496 q 500 464 488 496 q 506 436 506 451 q 451 374 506 390 l 464 356 m 294 344 q 345 364 326 344 q 365 418 364 383 l 340 418 q 328 388 340 399 q 294 376 315 376 q 260 388 272 376 q 247 418 247 399 l 222 418 q 242 365 222 385 q 294 344 263 344 z "},"̦":{"ha":0,"x_min":-497,"x_max":-218,"o":"m -319 -336 l -497 -336 l -458 -76 l -218 -76 l -319 -336 z "},"ˉ":{"ha":694,"x_min":83,"x_max":611,"o":"m 611 776 l 83 776 l 83 942 l 611 942 l 611 776 z "},"´":{"ha":694,"x_min":243,"x_max":585,"o":"m 585 1019 l 443 776 l 243 776 l 331 1019 l 585 1019 z "},"˘":{"ha":694,"x_min":103,"x_max":592,"o":"m 592 993 q 527 822 592 883 q 347 760 463 760 q 167 822 232 760 q 103 993 103 883 l 276 993 q 294 931 276 953 q 347 908 313 908 q 400 931 382 908 q 418 993 418 953 l 592 993 z "},"ˇ":{"ha":694,"x_min":65,"x_max":629,"o":"m 481 776 l 214 776 l 65 1019 l 261 1019 l 347 910 l 433 1019 l 629 1019 l 481 776 z "},"¸":{"ha":694,"x_min":161,"x_max":553,"o":"m 299 56 q 487 -7 421 43 q 553 -129 553 -57 q 494 -257 553 -215 q 340 -299 436 -299 q 233 -283 275 -299 q 161 -240 190 -268 l 219 -118 q 321 -158 260 -158 q 376 -141 356 -158 q 397 -93 397 -124 q 364 -35 397 -58 q 243 3 331 -12 l 299 56 z "},"ˆ":{"ha":694,"x_min":65,"x_max":629,"o":"m 433 767 l 347 876 l 261 767 l 65 767 l 214 1011 l 481 1011 l 629 767 l 433 767 z "},"¨":{"ha":694,"x_min":57,"x_max":639,"o":"m 188 994 q 286 963 251 994 q 321 876 321 932 q 286 789 321 819 q 188 758 251 758 q 92 790 126 758 q 57 876 57 821 q 92 963 57 932 q 188 994 126 994 m 506 994 q 604 963 569 994 q 639 876 639 932 q 604 789 639 819 q 506 758 569 758 q 410 790 444 758 q 375 876 375 821 q 410 963 375 932 q 506 994 444 994 z "},"˙":{"ha":694,"x_min":206,"x_max":493,"o":"m 347 1006 q 456 974 419 1006 q 493 883 493 943 q 456 793 493 824 q 347 763 419 763 q 206 883 206 763 q 347 1006 206 1006 z "},"`":{"ha":694,"x_min":110,"x_max":451,"o":"m 451 776 l 251 776 l 110 1019 l 364 1019 l 451 776 z "},"˝":{"ha":694,"x_min":75,"x_max":707,"o":"m 264 776 l 75 776 l 168 1019 l 394 1019 l 264 776 m 576 776 l 386 776 l 479 1019 l 707 1019 l 576 776 z "},"¯":{"ha":694,"x_min":83,"x_max":611,"o":"m 611 776 l 83 776 l 83 942 l 611 942 l 611 776 z "},"˛":{"ha":751,"x_min":165,"x_max":522,"o":"m 507 15 q 392 -31 426 -6 q 357 -90 357 -56 q 376 -132 357 -117 q 428 -147 394 -147 q 488 -135 468 -147 l 522 -264 q 456 -291 493 -283 q 368 -299 418 -299 q 222 -258 279 -299 q 165 -139 165 -218 q 228 -13 165 -60 q 403 47 292 33 l 507 15 z "},"˚":{"ha":694,"x_min":158,"x_max":542,"o":"m 350 1093 q 492 1048 442 1093 q 542 924 542 1003 q 492 798 542 843 q 350 753 442 753 q 209 798 260 753 q 158 924 158 843 q 209 1048 158 1003 q 350 1093 260 1093 m 350 985 q 304 969 321 985 q 288 924 288 953 q 304 878 288 894 q 350 861 321 861 q 397 878 379 861 q 414 924 414 894 q 397 969 414 953 q 350 985 379 985 z "},"˜":{"ha":694,"x_min":63,"x_max":632,"o":"m 632 999 q 578 822 628 881 q 438 764 529 764 q 370 776 396 764 q 315 811 344 789 q 287 832 299 825 q 260 839 275 839 q 228 822 239 839 q 213 767 217 804 l 63 767 q 257 1000 71 1000 q 326 988 299 1000 q 381 953 353 975 q 410 933 399 939 q 435 926 421 926 q 467 944 456 926 q 482 999 478 961 l 632 999 z "}}}
